<mxfile modified="2021-05-18T13:07:01.959Z" host="app.diagrams.net" agent="5.0 (Macintosh; Intel Mac OS X 10_15_7) AppleWebKit/537.36 (KHTML, like Gecko) Chrome/90.0.4430.212 Safari/537.36" etag="zR75PT4Bp7UxIzDuHthN" version="14.6.12" type="github">
  <diagram id="WI9T0HZ2pTsCkuznbFz-" name="Page-1">
    <mxGraphModel dx="1127" dy="714" grid="1" gridSize="10" guides="1" tooltips="1" connect="1" arrows="1" fold="1" page="1" pageScale="1" pageWidth="1169" pageHeight="827" math="0" shadow="0">
      <root>
        <mxCell id="0" />
        <mxCell id="1" parent="0" />
        <mxCell id="ij2_FURvqXdRc3KbHj5h-31" style="edgeStyle=orthogonalEdgeStyle;curved=1;rounded=0;orthogonalLoop=1;jettySize=auto;html=1;" edge="1" parent="1" source="ij2_FURvqXdRc3KbHj5h-9" target="ij2_FURvqXdRc3KbHj5h-7">
          <mxGeometry relative="1" as="geometry" />
        </mxCell>
        <mxCell id="ij2_FURvqXdRc3KbHj5h-9" value="" style="rounded=0;whiteSpace=wrap;html=1;dashed=1;" vertex="1" parent="1">
          <mxGeometry x="170.84" y="1365" width="190" height="100" as="geometry" />
        </mxCell>
        <mxCell id="AcxdMaKK0mU5kZiv2lnr-30" style="edgeStyle=orthogonalEdgeStyle;rounded=0;orthogonalLoop=1;jettySize=auto;html=1;strokeColor=#808080;entryX=1.064;entryY=0.4;entryDx=0;entryDy=0;entryPerimeter=0;" parent="1" target="AcxdMaKK0mU5kZiv2lnr-13" edge="1">
          <mxGeometry relative="1" as="geometry">
            <mxPoint x="1010" y="230" as="sourcePoint" />
            <mxPoint x="930.7281553398057" y="320.51456310679606" as="targetPoint" />
            <Array as="points">
              <mxPoint x="1010" y="300" />
            </Array>
          </mxGeometry>
        </mxCell>
        <mxCell id="AcxdMaKK0mU5kZiv2lnr-18" style="edgeStyle=orthogonalEdgeStyle;rounded=0;orthogonalLoop=1;jettySize=auto;html=1;entryX=-0.044;entryY=0.367;entryDx=0;entryDy=0;entryPerimeter=0;strokeColor=#808080;" parent="1" source="AcxdMaKK0mU5kZiv2lnr-4" target="AcxdMaKK0mU5kZiv2lnr-5" edge="1">
          <mxGeometry relative="1" as="geometry">
            <Array as="points">
              <mxPoint x="280" y="42" />
            </Array>
          </mxGeometry>
        </mxCell>
        <mxCell id="AcxdMaKK0mU5kZiv2lnr-21" style="edgeStyle=orthogonalEdgeStyle;rounded=0;orthogonalLoop=1;jettySize=auto;html=1;strokeColor=#808080;" parent="1" source="AcxdMaKK0mU5kZiv2lnr-4" edge="1">
          <mxGeometry relative="1" as="geometry">
            <mxPoint x="510" y="365" as="targetPoint" />
            <Array as="points">
              <mxPoint x="480" y="236" />
              <mxPoint x="480" y="365" />
            </Array>
          </mxGeometry>
        </mxCell>
        <mxCell id="AcxdMaKK0mU5kZiv2lnr-16" style="edgeStyle=orthogonalEdgeStyle;rounded=0;orthogonalLoop=1;jettySize=auto;html=1;strokeColor=#808080;" parent="1" source="AcxdMaKK0mU5kZiv2lnr-1" target="AcxdMaKK0mU5kZiv2lnr-4" edge="1">
          <mxGeometry relative="1" as="geometry">
            <Array as="points">
              <mxPoint x="220" y="224" />
              <mxPoint x="220" y="224" />
            </Array>
          </mxGeometry>
        </mxCell>
        <mxCell id="AcxdMaKK0mU5kZiv2lnr-19" style="edgeStyle=orthogonalEdgeStyle;rounded=0;orthogonalLoop=1;jettySize=auto;html=1;strokeColor=#808080;" parent="1" source="AcxdMaKK0mU5kZiv2lnr-1" target="AcxdMaKK0mU5kZiv2lnr-3" edge="1">
          <mxGeometry relative="1" as="geometry">
            <Array as="points">
              <mxPoint x="142" y="380" />
            </Array>
          </mxGeometry>
        </mxCell>
        <mxCell id="AcxdMaKK0mU5kZiv2lnr-17" style="edgeStyle=elbowEdgeStyle;rounded=0;orthogonalLoop=1;jettySize=auto;html=1;entryX=-0.016;entryY=0.49;entryDx=0;entryDy=0;entryPerimeter=0;elbow=vertical;strokeColor=#808080;" parent="1" source="AcxdMaKK0mU5kZiv2lnr-2" target="AcxdMaKK0mU5kZiv2lnr-6" edge="1">
          <mxGeometry relative="1" as="geometry" />
        </mxCell>
        <mxCell id="AcxdMaKK0mU5kZiv2lnr-20" style="edgeStyle=orthogonalEdgeStyle;rounded=0;orthogonalLoop=1;jettySize=auto;html=1;strokeColor=#808080;" parent="1" source="AcxdMaKK0mU5kZiv2lnr-3" target="AcxdMaKK0mU5kZiv2lnr-4" edge="1">
          <mxGeometry relative="1" as="geometry">
            <Array as="points">
              <mxPoint x="345" y="380" />
            </Array>
          </mxGeometry>
        </mxCell>
        <mxCell id="AcxdMaKK0mU5kZiv2lnr-23" style="edgeStyle=elbowEdgeStyle;rounded=0;orthogonalLoop=1;jettySize=auto;html=1;entryX=-0.007;entryY=0.52;entryDx=0;entryDy=0;entryPerimeter=0;elbow=vertical;strokeColor=#808080;" parent="1" source="AcxdMaKK0mU5kZiv2lnr-8" target="AcxdMaKK0mU5kZiv2lnr-10" edge="1">
          <mxGeometry relative="1" as="geometry" />
        </mxCell>
        <mxCell id="AcxdMaKK0mU5kZiv2lnr-22" style="edgeStyle=orthogonalEdgeStyle;rounded=0;orthogonalLoop=1;jettySize=auto;html=1;strokeColor=#808080;" parent="1" source="AcxdMaKK0mU5kZiv2lnr-9" target="AcxdMaKK0mU5kZiv2lnr-8" edge="1">
          <mxGeometry relative="1" as="geometry" />
        </mxCell>
        <mxCell id="AcxdMaKK0mU5kZiv2lnr-24" style="edgeStyle=elbowEdgeStyle;rounded=0;orthogonalLoop=1;jettySize=auto;html=1;entryX=0.009;entryY=0.518;entryDx=0;entryDy=0;entryPerimeter=0;elbow=vertical;strokeColor=#808080;" parent="1" edge="1">
          <mxGeometry relative="1" as="geometry">
            <mxPoint x="701" y="224" as="sourcePoint" />
            <mxPoint x="763.8372093023256" y="223.69767441860466" as="targetPoint" />
            <Array as="points">
              <mxPoint x="730" y="224" />
            </Array>
          </mxGeometry>
        </mxCell>
        <mxCell id="AcxdMaKK0mU5kZiv2lnr-25" style="edgeStyle=orthogonalEdgeStyle;rounded=0;orthogonalLoop=1;jettySize=auto;html=1;strokeColor=#808080;" parent="1" source="AcxdMaKK0mU5kZiv2lnr-11" edge="1">
          <mxGeometry relative="1" as="geometry">
            <mxPoint x="900" y="104" as="targetPoint" />
          </mxGeometry>
        </mxCell>
        <mxCell id="AcxdMaKK0mU5kZiv2lnr-26" style="edgeStyle=orthogonalEdgeStyle;rounded=0;orthogonalLoop=1;jettySize=auto;html=1;entryX=0.406;entryY=0;entryDx=0;entryDy=0;entryPerimeter=0;strokeColor=#808080;" parent="1" source="AcxdMaKK0mU5kZiv2lnr-11" target="AcxdMaKK0mU5kZiv2lnr-13" edge="1">
          <mxGeometry relative="1" as="geometry" />
        </mxCell>
        <mxCell id="AcxdMaKK0mU5kZiv2lnr-28" style="edgeStyle=orthogonalEdgeStyle;rounded=0;orthogonalLoop=1;jettySize=auto;html=1;exitX=1.014;exitY=0.505;exitDx=0;exitDy=0;exitPerimeter=0;entryX=0.498;entryY=0.012;entryDx=0;entryDy=0;entryPerimeter=0;strokeColor=#808080;" parent="1" source="AcxdMaKK0mU5kZiv2lnr-12" target="AcxdMaKK0mU5kZiv2lnr-14" edge="1">
          <mxGeometry relative="1" as="geometry" />
        </mxCell>
        <mxCell id="AcxdMaKK0mU5kZiv2lnr-27" style="edgeStyle=orthogonalEdgeStyle;rounded=0;orthogonalLoop=1;jettySize=auto;html=1;exitX=1.004;exitY=0.609;exitDx=0;exitDy=0;exitPerimeter=0;strokeColor=#808080;" parent="1" source="AcxdMaKK0mU5kZiv2lnr-13" edge="1">
          <mxGeometry relative="1" as="geometry">
            <mxPoint x="1020" y="230" as="targetPoint" />
            <Array as="points">
              <mxPoint x="1020" y="310" />
            </Array>
          </mxGeometry>
        </mxCell>
        <mxCell id="AcxdMaKK0mU5kZiv2lnr-4" value="Channel" style="rounded=0;whiteSpace=wrap;html=1;fillColor=#f5f5f5;strokeColor=none;fontColor=#333333;verticalAlign=top;" parent="1" vertex="1">
          <mxGeometry x="230" y="160" width="230" height="151" as="geometry" />
        </mxCell>
        <mxCell id="AcxdMaKK0mU5kZiv2lnr-1" value="Live Source" style="shape=image;verticalLabelPosition=bottom;labelBackgroundColor=#ffffff;verticalAlign=top;aspect=fixed;imageAspect=0;image=data:image/svg+xml,PHN2ZyB4bWxuczpjYz0iaHR0cDovL2NyZWF0aXZlY29tbW9ucy5vcmcvbnMjIiB4bWxuczpkYz0iaHR0cDovL3B1cmwub3JnL2RjL2VsZW1lbnRzLzEuMS8iIHhtbG5zOmlua3NjYXBlPSJodHRwOi8vd3d3Lmlua3NjYXBlLm9yZy9uYW1lc3BhY2VzL2lua3NjYXBlIiB4bWxuczpyZGY9Imh0dHA6Ly93d3cudzMub3JnLzE5OTkvMDIvMjItcmRmLXN5bnRheC1ucyMiIHhtbG5zOnNvZGlwb2RpPSJodHRwOi8vc29kaXBvZGkuc291cmNlZm9yZ2UubmV0L0RURC9zb2RpcG9kaS0wLmR0ZCIgeG1sbnM6c3ZnPSJodHRwOi8vd3d3LnczLm9yZy8yMDAwL3N2ZyIgeG1sbnM9Imh0dHA6Ly93d3cudzMub3JnLzIwMDAvc3ZnIiB4bWxuczp4bGluaz0iaHR0cDovL3d3dy53My5vcmcvMTk5OS94bGluayIgdmVyc2lvbj0iMS4xIiBpZD0ic3ZnNDYyMjYiIGlua3NjYXBlOnZlcnNpb249IjAuOTIuMyAoMjQwNTU0NiwgMjAxOC0wMy0xMSkiIHNvZGlwb2RpOmRvY25hbWU9ImNhbWVyYS5zdmciIHg9IjBweCIgeT0iMHB4IiB2aWV3Qm94PSIwIDAgNDYuNzggMzUuMTEiIHN0eWxlPSJlbmFibGUtYmFja2dyb3VuZDpuZXcgMCAwIDQ2Ljc4IDM1LjExOyIgeG1sOnNwYWNlPSJwcmVzZXJ2ZSI+JiN4YTs8c29kaXBvZGk6bmFtZWR2aWV3IGJvcmRlcmNvbG9yPSIjNjY2NjY2IiBib3JkZXJvcGFjaXR5PSIxIiBmaXQtbWFyZ2luLWJvdHRvbT0iMCIgZml0LW1hcmdpbi1sZWZ0PSIwIiBmaXQtbWFyZ2luLXJpZ2h0PSIwIiBmaXQtbWFyZ2luLXRvcD0iMCIgZ3JpZHRvbGVyYW5jZT0iMTAiIGd1aWRldG9sZXJhbmNlPSIxMCIgaWQ9Im5hbWVkdmlldzQ2MjI4IiBpbmtzY2FwZTpjdXJyZW50LWxheWVyPSJzdmc0NjIyNiIgaW5rc2NhcGU6Y3g9IjMxLjE4Mzc3NyIgaW5rc2NhcGU6Y3k9IjIzLjQwNTI0OSIgaW5rc2NhcGU6cGFnZW9wYWNpdHk9IjAiIGlua3NjYXBlOnBhZ2VzaGFkb3c9IjIiIGlua3NjYXBlOndpbmRvdy1oZWlnaHQ9IjEwMTciIGlua3NjYXBlOndpbmRvdy1tYXhpbWl6ZWQ9IjEiIGlua3NjYXBlOndpbmRvdy13aWR0aD0iMTkyMCIgaW5rc2NhcGU6d2luZG93LXg9Ii04IiBpbmtzY2FwZTp3aW5kb3cteT0iLTgiIGlua3NjYXBlOnpvb209IjE4LjUxOTI1OSIgb2JqZWN0dG9sZXJhbmNlPSIxMCIgcGFnZWNvbG9yPSIjZmZmZmZmIiBzaG93Z3JpZD0iZmFsc2UiPiYjeGE7CTwvc29kaXBvZGk6bmFtZWR2aWV3PiYjeGE7PGcgaWQ9Imc0NjIyNCI+JiN4YTsJPHRpdGxlIGlkPSJ0aXRsZTQ2MjE3Ij5QYWdlLTE8L3RpdGxlPiYjeGE7CTxnIGlkPSJzaGFwZTEwOC0xIj4mI3hhOwkJPHRpdGxlIGlkPSJ0aXRsZTQ2MjE5Ij5DYW1lcmE8L3RpdGxlPiYjeGE7CQk8cGF0aCBpZD0icGF0aDQ2MjIxIiBpbmtzY2FwZTpjb25uZWN0b3ItY3VydmF0dXJlPSIwIiBzdHlsZT0iZmlsbDojM0Y1NzY1OyIgZD0iTTQ2Ljc4LDEzLjUzYzAsMjAuMTIsMCwyMC4xMiwwLDIwLjEyICAgIGMwLDAuNzMtMC43NCwxLjQ2LTEuODMsMC43M2MtNC4zOS0zLjY2LTQuMzktMy42Ni00LjM5LTMuNjZjMC0wLjczLTEuMDktMC43My0xLjA5LTEuODNjLTEuODMsMC0xLjgzLDAtMS44MywwICAgIGMwLDQuNzYsMCw0Ljc2LDAsNC43NmMwLDAuNzMtMC43MywxLjQ2LTEuODMsMS40NmMtMjkuMjMsMC0yOS4yMywwLTI5LjIzLDBjLTAuNzMsMC0xLjgzLTAuNzMtMS44My0xLjQ2YzAtMTcuMTksMC0xNy4xOSwwLTE3LjE5ICAgIGMwLTEuODMsMS4xLTIuOTMsMS44My0yLjkzYzI5LjIzLDAsMjkuMjMsMCwyOS4yMywwYzEuMSwwLDEuODMsMS4xLDEuODMsMi45M3MwLDEuODMsMCwxLjgzYzEuODMsMCwxLjgzLDAsMS44MywwbDEuMDktMS4xICAgIGM0LjM5LTQuMzksNC4zOS00LjM5LDQuMzktNC4zOUM0Ni4wNCwxMi44LDQ2Ljc4LDEyLjgsNDYuNzgsMTMuNTN6IE0xLjgzLDE0LjYzQzEuMSwxNC42MywwLDE1LjM2LDAsMTYuNDZjMCw2LjIyLDAsNi4yMiwwLDYuMjIgICAgYzAsMC43MywxLjEsMS44MywxLjgzLDEuODNjMS4wOSwwLDIuMTktMS4xLDIuMTktMS44M2MwLTYuMjIsMC02LjIyLDAtNi4yMkM0LjAyLDE1LjM2LDIuOTIsMTQuNjMsMS44MywxNC42M3ogTTI4LjUsMTIuOCAgICBjMy42NiwwLDYuNTgtMi41Niw2LjU4LTYuMjJDMzUuMDgsMi45MywzMi4xNiwwLDI4LjUsMGMtMy42NSwwLTcuMywyLjkzLTcuMyw2LjU4QzIxLjIsMTAuMjQsMjQuODUsMTIuOCwyOC41LDEyLjh6IE0xMy44OSwxMi44ICAgIGMzLjY1LDAsNi41Ny0yLjU2LDYuNTctNi4yMmMwLTMuNjUtMi45Mi02LjU4LTYuNTctNi41OGMtMy42NiwwLTcuMzEsMi45My03LjMxLDYuNThDNi41OCwxMC4yNCwxMC4yMywxMi44LDEzLjg5LDEyLjh6Ii8+JiN4YTsJPC9nPiYjeGE7PC9nPiYjeGE7PC9zdmc+;" parent="1" vertex="1">
          <mxGeometry x="110" y="200.00000000000003" width="64" height="48" as="geometry" />
        </mxCell>
        <mxCell id="AcxdMaKK0mU5kZiv2lnr-2" value="Azure Live&#xa;Encoder&#xa;" style="shape=image;verticalLabelPosition=bottom;labelBackgroundColor=none;verticalAlign=top;aspect=fixed;imageAspect=0;image=data:image/svg+xml,PHN2ZyB4bWxuczpjYz0iaHR0cDovL2NyZWF0aXZlY29tbW9ucy5vcmcvbnMjIiB4bWxuczpkYz0iaHR0cDovL3B1cmwub3JnL2RjL2VsZW1lbnRzLzEuMS8iIHhtbG5zOmlua3NjYXBlPSJodHRwOi8vd3d3Lmlua3NjYXBlLm9yZy9uYW1lc3BhY2VzL2lua3NjYXBlIiB4bWxuczpyZGY9Imh0dHA6Ly93d3cudzMub3JnLzE5OTkvMDIvMjItcmRmLXN5bnRheC1ucyMiIHhtbG5zOnNvZGlwb2RpPSJodHRwOi8vc29kaXBvZGkuc291cmNlZm9yZ2UubmV0L0RURC9zb2RpcG9kaS0wLmR0ZCIgeG1sbnM6c3ZnPSJodHRwOi8vd3d3LnczLm9yZy8yMDAwL3N2ZyIgeG1sbnM9Imh0dHA6Ly93d3cudzMub3JnLzIwMDAvc3ZnIiB4bWxuczp4bGluaz0iaHR0cDovL3d3dy53My5vcmcvMTk5OS94bGluayIgdmVyc2lvbj0iMS4xIiBpZD0ic3ZnNTQ2MTgiIGlua3NjYXBlOnZlcnNpb249IjAuOTIuMyAoMjQwNTU0NiwgMjAxOC0wMy0xMSkiIHNvZGlwb2RpOmRvY25hbWU9ImVuY29kaW5nLnN2ZyIgeD0iMHB4IiB5PSIwcHgiIHZpZXdCb3g9IjAgMCAyMi44MiAyMS41OCIgc3R5bGU9ImVuYWJsZS1iYWNrZ3JvdW5kOm5ldyAwIDAgMjIuODIgMjEuNTg7IiB4bWw6c3BhY2U9InByZXNlcnZlIj4mI3hhOzxzb2RpcG9kaTpuYW1lZHZpZXcgYm9yZGVyY29sb3I9IiM2NjY2NjYiIGJvcmRlcm9wYWNpdHk9IjEiIGZpdC1tYXJnaW4tYm90dG9tPSIwIiBmaXQtbWFyZ2luLWxlZnQ9IjAiIGZpdC1tYXJnaW4tcmlnaHQ9IjAiIGZpdC1tYXJnaW4tdG9wPSIwIiBncmlkdG9sZXJhbmNlPSIxMCIgZ3VpZGV0b2xlcmFuY2U9IjEwIiBpZD0ibmFtZWR2aWV3NTQ2MjAiIGlua3NjYXBlOmN1cnJlbnQtbGF5ZXI9InN2ZzU0NjE4IiBpbmtzY2FwZTpjeD0iMTEuMjk4ODY0IiBpbmtzY2FwZTpjeT0iLTEuMDQxNTI5MSIgaW5rc2NhcGU6cGFnZW9wYWNpdHk9IjAiIGlua3NjYXBlOnBhZ2VzaGFkb3c9IjIiIGlua3NjYXBlOndpbmRvdy1oZWlnaHQ9IjEwMTciIGlua3NjYXBlOndpbmRvdy1tYXhpbWl6ZWQ9IjEiIGlua3NjYXBlOndpbmRvdy13aWR0aD0iMTkyMCIgaW5rc2NhcGU6d2luZG93LXg9Ii04IiBpbmtzY2FwZTp3aW5kb3cteT0iLTgiIGlua3NjYXBlOnpvb209IjEwLjY1MzgzNiIgb2JqZWN0dG9sZXJhbmNlPSIxMCIgcGFnZWNvbG9yPSIjZmZmZmZmIiBzaG93Z3JpZD0iZmFsc2UiPiYjeGE7CTwvc29kaXBvZGk6bmFtZWR2aWV3PiYjeGE7PGcgaWQ9Imc1NDYxNiIgdHJhbnNmb3JtPSJ0cmFuc2xhdGUoLTIuNzQwNjUzNWUtNSwwLjAwMzE0NTc0KSI+JiN4YTsJPHRpdGxlIGlkPSJ0aXRsZTU0NjA5Ij5QYWdlLTE8L3RpdGxlPiYjeGE7CTxnIGlkPSJzaGFwZTMwODQtMSI+JiN4YTsJCTx0aXRsZSBpZD0idGl0bGU1NDYxMSI+RW5jb2Rpbmc8L3RpdGxlPiYjeGE7CQk8cGF0aCBpZD0icGF0aDU0NjEzIiBpbmtzY2FwZTpjb25uZWN0b3ItY3VydmF0dXJlPSIwIiBzdHlsZT0iZmlsbDojM0Y1NzY1OyIgZD0iTTIyLjgyLDEzLjMxYzAtMC44NSwwLTQuNzktMC4wOC04LjY3ICAgIGMwLTIuNDQtMi4zNC00Ljc0LTUuODctNC42NEMxNi4zMiwwLDgsMC4wNyw4LDAuMDdDNi45OSwwLjE1LDYuODQsMC45NCw2Ljg0LDEuMzNzMCwwLjA3LDAsMC42M2MwLDAuNDgsMC41MywwLjg3LDEuMDksMC45NCAgICBjMCwwLDAsMCwwLDAuMWMwLDAuMDcsMCwwLjA3LDAuMDcsMC4xNEM3LjU0LDMuNyw3LjU0LDMuNyw3LjU0LDMuN2MwLDAuNjMsMCwwLjYzLDAsMC42M2MtNC40LDAtNC40LDAtNC40LDAgICAgYzAsMi44MywwLDIuODMsMCwyLjgzQzAsNy4xNiwwLDcuMTYsMCw3LjE2YzAsMy44LDAsMy44LDAsMy44YzE2LjI0LDAsMTYuMjQsMCwxNi4yNCwwYzAtMy44LDAtMy44LDAtMy44Yy0yLjIsMC0yLjIsMC0yLjIsMCAgICBjMC0yLjgzLDAtMi44MywwLTIuODNjLTMuOTgsMC0zLjk4LDAtMy45OCwwYzAtMC41NiwwLTAuNTYsMC0wLjU2QzkuNTcsMy4xNCw5LjU3LDMuMTQsOS41NywzLjE0YzAtMC4wNywwLjA3LTAuMDcsMC4wNy0wLjE0ICAgIGMwLTAuMSwwLTAuMS0wLjA3LTAuMTdjMi4xMywwLDUuNTktMC4wNyw2LjIxLTAuMDdjMy41MSwwLDMuODIsMS40LDMuODIsMi4zN2MwLDAuODUsMC4xLDYuMjIsMC4xLDguMzQgICAgYzAuMDcsMi4wNi0zLjIyLDIuMDYtMy44NCwyLjA2Yy0wLjM5LDAtNC4zMywwLTYuMjIsMC4wN2wtMC4wNy0wLjA3Yy0wLjE0LDAtMC4xNCwwLTAuMTQsMGMwLTAuMSwwLTAuMSwwLTAuMSAgICBjMC4xNC0wLjA3LDAuMTQtMC4wNywwLjE0LTAuMDdoMC4wN2MwLTAuMDctMC4wNy0wLjA3LTAuMDctMC4wN2MtMC4xNCwwLTAuMTQsMC0wLjE0LDBjMC0wLjE3LDAtMC4xNywwLTAuMTcgICAgYzAuMTQsMCwwLjE0LDAsMC4xNCwwczAuMDcsMCwwLjA3LTAuMDdIOS41N2MtMC4xNCwwLTAuMTQsMC0wLjE0LDBjMC0wLjE1LDAtMC4xNSwwLTAuMTVjMC4xNCwwLDAuMTQsMCwwLjE0LDBzMC4wNywwLDAuMDctMC4wOSAgICBIOS41N2MtMC4xNCwwLTAuMTQsMC0wLjE0LDBjMC0wLjE1LDAtMC4xNSwwLTAuMTVjMC4xNCwwLDAuMTQsMCwwLjE0LDBsMC4wNy0wLjFsLTAuMDctMC4wN2MtMC4xNCwwLTAuMTQsMC0wLjE0LDAgICAgYzAtMC4xNCwwLTAuMTQsMC0wLjE0YzAuMTQsMCwwLjE0LDAsMC4xNCwwaDAuMDdjMC0wLjEtMC4wNy0wLjEtMC4wNy0wLjFjLTAuMTQsMC0wLjE0LDAtMC4xNCwwQzkuMzUsMTQuMSw5LjM1LDE0LjEsOS4zNSwxNC4xICAgIGMwLjIyLDAsMC4yMiwwLDAuMjIsMHMwLjA3LDAsMC4wNy0wLjA3Yy0wLjA3LDAtMC4wNywwLTAuMDcsMGMtMC4yMiwwLTAuMjIsMC0wLjIyLDBjMC0wLjE3LDAtMC4xNywwLTAuMTdjMC4yMiwwLDAuMjIsMCwwLjIyLDAgICAgdi0wLjA3di0wLjA3Yy0wLjIyLDAtMC4yMiwwLTAuMjIsMGMwLTAuMTcsMC0wLjE3LDAtMC4xN2MwLjIyLDAsMC4yMiwwLDAuMjIsMGwwLDBjMC0wLjA4LDAtMC4wOCwwLTAuMDhjLTAuMjIsMC0wLjIyLDAtMC4yMiwwICAgIGMwLTAuMTYsMC0wLjE2LDAtMC4xNmMwLjIyLDAsMC4yMiwwLDAuMjIsMHMwLDAsMC0wLjA4bDAsMGMtMC4yMiwwLTAuMjIsMC0wLjIyLDBjMC0wLjE0LDAtMC4xNCwwLTAuMTRjMC4yMiwwLDAuMjIsMCwwLjIyLDAgICAgdi0wLjF2LTAuMDdjLTAuMjIsMC0wLjIyLDAtMC4yMiwwYzAtMC4xNSwwLTAuMTUsMC0wLjE1YzAuMjIsMCwwLjIyLDAsMC4yMiwwbDAsMGMwLTAuMDksMC0wLjA5LDAtMC4wOWMtMC4yMiwwLTAuMjIsMC0wLjIyLDAgICAgYzAtMC4wOCwwLTAuMDgsMC0wLjA4YzAuMjIsMCwwLjIyLDAsMC4yMiwwYzAuMDcsMCwwLjE3LTAuMDcsMC4xNy0wLjE0YzAtMC4xLDAtMC4xLTAuMS0wLjE3YzAuNDktMC41NiwwLjQ5LTAuNTYsMC40OS0wLjU2ICAgIGMwLTAuNzcsMC0wLjc3LDAtMC43N2MtMi41MiwwLTIuNTIsMC0yLjUyLDBjMCwwLjcsMCwwLjcsMCwwLjdjMC40OSwwLjcsMC40OSwwLjcsMC40OSwwLjdjLTAuMSwwLTAuMSwwLjEtMC4xLDAuMSAgICBjMCwwLjE0LDAuMSwwLjE0LDAuMTcsMC4xNHMwLjA3LDAsMC4wNywwYzAsMC4wOCwwLDAuMDgsMCwwLjA4Yy0wLjE0LDAtMC4xNCwwLTAuMTQsMHYwLjA5djAuMDhjMC4xNCwwLDAuMTQsMCwwLjE0LDAgICAgYzAsMC4xNCwwLDAuMTQsMCwwLjE0Yy0wLjE0LDAtMC4xNCwwLTAuMTQsMGwwLDBjMCwwLjEsMCwwLjEsMCwwLjFjMC4xNCwwLDAuMTQsMCwwLjE0LDBjMCwwLjE0LDAsMC4xNCwwLDAuMTQgICAgYy0wLjE0LDAtMC4xNCwwLTAuMTQsMHMwLDAsMCwwLjA4bDAsMGMwLjE0LDAsMC4xNCwwLDAuMTQsMGMwLDAuMTYsMCwwLjE2LDAsMC4xNmMtMC4xNCwwLTAuMTQsMC0wLjE0LDB2MC4wOHYwLjA3ICAgIGMwLjE0LDAsMC4xNCwwLDAuMTQsMGMwLDAuMTcsMCwwLjE3LDAsMC4xN2MtMC4xNCwwLTAuMTQsMC0wLjE0LDBsMCwwYzAsMC4wNywwLDAuMDcsMC4wNywwLjA3czAuMDcsMCwwLjA3LDAgICAgYzAsMC4xNywwLDAuMTcsMCwwLjE3Yy0wLjA3LDAtMC4wNywwLTAuMDcsMGMtMC4wNywwLTAuMDcsMC0wLjA3LDAuMDdjMCwwLDAsMCwwLjA3LDBzMC4wNywwLDAuMDcsMGMwLDAuMTUsMCwwLjE1LDAsMC4xNSAgICBjLTAuMDcsMC0wLjA3LDAtMC4wNywwYy0wLjA3LDAtMC4wNywwLTAuMDcsMC4xYzAsMCwwLDAsMC4wNywwczAuMDcsMCwwLjA3LDBjMCwwLjE0LDAsMC4xNCwwLDAuMTRjLTAuMDcsMC0wLjA3LDAtMC4wNywwICAgIGMtMC4wNywwLTAuMDcsMC4wNy0wLjA3LDAuMDdjMCwwLjEsMCwwLjEsMC4wNywwLjFzMC4wNywwLDAuMDcsMGMwLDAuMTUsMCwwLjE1LDAsMC4xNWMtMC4wNywwLTAuMDcsMC0wLjA3LDAgICAgYy0wLjA3LDAtMC4wNywwLTAuMDcsMGMwLDAuMDksMCwwLjA5LDAuMDcsMC4wOXMwLjA3LDAsMC4wNywwYzAsMC4xNSwwLDAuMTUsMCwwLjE1Yy0wLjA3LDAtMC4wNywwLTAuMDcsMCAgICBjLTAuMDcsMC0wLjA3LDAtMC4wNywwLjA3YzAsMCwwLDAsMC4wNywwczAuMDcsMCwwLjA3LDBjMCwwLjE3LDAsMC4xNywwLDAuMTdjLTAuMDcsMC0wLjA3LDAtMC4wNywwYy0wLjA3LDAtMC4wNywwLjA3LTAuMDcsMC4wNyAgICBzMCwwLjA3LDAuMDcsMC4wN3MwLjA3LDAsMC4wNywwYzAsMC4xNywwLDAuMTcsMCwwLjE3Yy0wLjA3LDAtMC4wNywwLTAuMDcsMGMtMC4wNywwLTAuMDcsMC0wLjA3LDB2MC4wOCAgICBjLTAuNDEsMC4wNy0wLjczLDAuMzEtMC43MywwLjc5YzAsMC4zMiwwLDAuMzksMC4xLDAuODhjMCwwLjM4LDAuMzEsMC43NywwLjcsMC44NGwwLDBjMCwwLjEsMCwwLjEsMCwwLjFjMC4xNCwwLDAuMTQsMCwwLjE0LDAgICAgYzAsMC4xNCwwLDAuMTQsMCwwLjE0Yy0wLjE0LDAtMC4xNCwwLTAuMTQsMHMwLDAsMCwwLjA4bDAsMGMwLjE0LDAsMC4xNCwwLDAuMTQsMGMwLDAuMTcsMCwwLjE3LDAsMC4xN2MtMC4xNCwwLTAuMTQsMC0wLjE0LDAgICAgdjAuMDd2MC4wN2MwLjE0LDAsMC4xNCwwLDAuMTQsMGMwLDAuMTcsMCwwLjE3LDAsMC4xN2MtMC4xNCwwLTAuMTQsMC0wLjE0LDBsMCwwYzAsMC4wNywwLDAuMDcsMCwwLjA3YzAuMTQsMCwwLjE0LDAsMC4xNCwwICAgIGMwLDAuMTcsMCwwLjE3LDAsMC4xN2MtMC4xNCwwLTAuMTQsMC0wLjE0LDBzMCwwLDAsMC4wN2wwLDBjMC4xNCwwLDAuMTQsMCwwLjE0LDBjMCwwLjE1LDAsMC4xNSwwLDAuMTVjLTAuMTQsMC0wLjE0LDAtMC4xNCwwICAgIHYwLjF2MC4wN2MwLjE0LDAsMC4xNCwwLDAuMTQsMGMwLDAuMTcsMCwwLjE3LDAsMC4xN2MtMC4xNCwwLTAuMTQsMC0wLjE0LDBsMCwwYzAsMC4wNywwLDAuMDcsMC4wNywwLjA3czAuMDcsMCwwLjA3LDAgICAgYzAsMC4xNSwwLDAuMTUsMCwwLjE1Yy0wLjA3LDAtMC4wNywwLTAuMDcsMGMtMC4wNywwLTAuMDcsMC0wLjA3LDAuMDljMCwwLDAsMCwwLjA3LDBzMC4wNywwLDAuMDcsMGMwLDAuMDgsMCwwLjA4LDAsMC4wOCAgICBjLTAuNjIsMC0wLjYyLDAtMC42MiwwYzAsMC4yNCwwLDAuMjQsMCwwLjI0Yy0yLjksMC0yLjksMC0yLjksMGMtMC4yMiwwLTAuMzksMC4wNy0wLjM5LDAuMTRjMCwwLjA4LDAsMC4wOCwwLDAuMDggICAgYzAsMC4wOSwwLjE3LDAuMTYsMC4zOSwwLjE2YzIuOS0wLjA3LDIuOS0wLjA3LDIuOS0wLjA3YzAsMC4xNSwwLDAuMTUsMCwwLjE1YzAuNTUsMC43LDAuNTUsMC43LDAuNTUsMC43YzEuNSwwLDEuNSwwLDEuNSwwICAgIGMwLjUzLTAuNywwLjUzLTAuNywwLjUzLTAuN2MwLTAuMTUsMC0wLjE1LDAtMC4xNWMyLjgzLDAsMi44MywwLDIuODMsMGMwLjI0LTAuMDksMC40OC0wLjA5LDAuNDgtMC4xNyAgICBjLTAuMDktMC4xNC0wLjA5LTAuMTQtMC4wOS0wLjE0YzAtMC4xLTAuMTUtMC4xLTAuMzktMC4xYy0yLjgzLDAtMi44MywwLTIuODMsMGMwLTAuMTQsMC0wLjE0LDAtMC4xNGMtMC43NywwLTAuNzcsMC0wLjc3LDAgICAgYzAtMC4wOCwwLTAuMDgsMC0wLjA4YzAuMTQsMCwwLjE0LDAsMC4xNCwwczAuMSwwLDAuMS0wLjA5aC0wLjFjLTAuMjEsMC0wLjIxLDAtMC4yMSwwYzAtMC4xNSwwLTAuMTUsMC0wLjE1ICAgIGMwLjIxLDAsMC4yMSwwLDAuMjEsMHYtMC4wN3YtMC4xYy0wLjIxLDAtMC4yMSwwLTAuMjEsMGMwLTAuMTQsMC0wLjE0LDAtMC4xNGMwLjIxLDAsMC4yMSwwLDAuMjEsMGwwLDBjMC0wLjEsMC0wLjEsMC0wLjEgICAgYy0wLjIxLDAtMC4yMSwwLTAuMjEsMGMwLTAuMTUsMC0wLjE1LDAtMC4xNWMwLjIxLDAsMC4yMSwwLDAuMjEsMHMwLDAsMC0wLjA3bDAsMGMtMC4yMSwwLTAuMjEsMC0wLjIxLDBjMC0wLjE3LDAtMC4xNywwLTAuMTcgICAgYzAuMjEsMCwwLjIxLDAsMC4yMSwwdi0wLjA3di0wLjA3Yy0wLjIxLDAtMC4yMSwwLTAuMjEsMGMwLTAuMSwwLTAuMSwwLTAuMWMwLjIxLTAuMDcsMC4yMS0wLjA3LDAuMjEtMC4wN2wwLDAgICAgYzAtMC4wNywwLTAuMDcsMC0wLjA3Yy0wLjIxLDAtMC4yMSwwLTAuMjEsMGMwLTAuMTcsMC0wLjE3LDAtMC4xN2MwLjIxLDAsMC4yMSwwLDAuMjEsMGwwLDBjMC0wLjA4LDAtMC4wOCwwLTAuMDggICAgYy0wLjIxLDAtMC4yMSwwLTAuMjEsMGMwLTAuMTQsMC0wLjE0LDAtMC4xNGMwLjIxLDAsMC4yMSwwLDAuMjEsMHMwLDAsMC0wLjFsMCwwYzEuMzYsMCwzLjYzLTAuMDcsNy4zOC0wLjA3ICAgIEMyMi44MiwxOC4wNSwyMi44MiwxNC4yNSwyMi44MiwxMy4zMXoiLz4mI3hhOwk8L2c+JiN4YTs8L2c+JiN4YTs8L3N2Zz4=;" parent="1" vertex="1">
          <mxGeometry x="245" y="195.00000000000009" width="61" height="58" as="geometry" />
        </mxCell>
        <mxCell id="AcxdMaKK0mU5kZiv2lnr-3" value="3rd party&#xa;On-Premises&#xa;Live Encoder&#xa;" style="shape=image;verticalLabelPosition=bottom;labelBackgroundColor=#ffffff;verticalAlign=top;aspect=fixed;imageAspect=0;image=data:image/svg+xml,PHN2ZyB4bWxuczpjYz0iaHR0cDovL2NyZWF0aXZlY29tbW9ucy5vcmcvbnMjIiB4bWxuczpkYz0iaHR0cDovL3B1cmwub3JnL2RjL2VsZW1lbnRzLzEuMS8iIHhtbG5zOmlua3NjYXBlPSJodHRwOi8vd3d3Lmlua3NjYXBlLm9yZy9uYW1lc3BhY2VzL2lua3NjYXBlIiB4bWxuczpyZGY9Imh0dHA6Ly93d3cudzMub3JnLzE5OTkvMDIvMjItcmRmLXN5bnRheC1ucyMiIHhtbG5zOnNvZGlwb2RpPSJodHRwOi8vc29kaXBvZGkuc291cmNlZm9yZ2UubmV0L0RURC9zb2RpcG9kaS0wLmR0ZCIgeG1sbnM6c3ZnPSJodHRwOi8vd3d3LnczLm9yZy8yMDAwL3N2ZyIgeG1sbnM9Imh0dHA6Ly93d3cudzMub3JnLzIwMDAvc3ZnIiB4bWxuczp4bGluaz0iaHR0cDovL3d3dy53My5vcmcvMTk5OS94bGluayIgdmVyc2lvbj0iMS4xIiBpZD0ic3ZnNTQ2MTgiIGlua3NjYXBlOnZlcnNpb249IjAuOTIuMyAoMjQwNTU0NiwgMjAxOC0wMy0xMSkiIHNvZGlwb2RpOmRvY25hbWU9ImVuY29kaW5nLnN2ZyIgeD0iMHB4IiB5PSIwcHgiIHZpZXdCb3g9IjAgMCAyMi44MiAyMS41OCIgc3R5bGU9ImVuYWJsZS1iYWNrZ3JvdW5kOm5ldyAwIDAgMjIuODIgMjEuNTg7IiB4bWw6c3BhY2U9InByZXNlcnZlIj4mI3hhOzxzb2RpcG9kaTpuYW1lZHZpZXcgYm9yZGVyY29sb3I9IiM2NjY2NjYiIGJvcmRlcm9wYWNpdHk9IjEiIGZpdC1tYXJnaW4tYm90dG9tPSIwIiBmaXQtbWFyZ2luLWxlZnQ9IjAiIGZpdC1tYXJnaW4tcmlnaHQ9IjAiIGZpdC1tYXJnaW4tdG9wPSIwIiBncmlkdG9sZXJhbmNlPSIxMCIgZ3VpZGV0b2xlcmFuY2U9IjEwIiBpZD0ibmFtZWR2aWV3NTQ2MjAiIGlua3NjYXBlOmN1cnJlbnQtbGF5ZXI9InN2ZzU0NjE4IiBpbmtzY2FwZTpjeD0iMTEuMjk4ODY0IiBpbmtzY2FwZTpjeT0iLTEuMDQxNTI5MSIgaW5rc2NhcGU6cGFnZW9wYWNpdHk9IjAiIGlua3NjYXBlOnBhZ2VzaGFkb3c9IjIiIGlua3NjYXBlOndpbmRvdy1oZWlnaHQ9IjEwMTciIGlua3NjYXBlOndpbmRvdy1tYXhpbWl6ZWQ9IjEiIGlua3NjYXBlOndpbmRvdy13aWR0aD0iMTkyMCIgaW5rc2NhcGU6d2luZG93LXg9Ii04IiBpbmtzY2FwZTp3aW5kb3cteT0iLTgiIGlua3NjYXBlOnpvb209IjEwLjY1MzgzNiIgb2JqZWN0dG9sZXJhbmNlPSIxMCIgcGFnZWNvbG9yPSIjZmZmZmZmIiBzaG93Z3JpZD0iZmFsc2UiPiYjeGE7CTwvc29kaXBvZGk6bmFtZWR2aWV3PiYjeGE7PGcgaWQ9Imc1NDYxNiIgdHJhbnNmb3JtPSJ0cmFuc2xhdGUoLTIuNzQwNjUzNWUtNSwwLjAwMzE0NTc0KSI+JiN4YTsJPHRpdGxlIGlkPSJ0aXRsZTU0NjA5Ij5QYWdlLTE8L3RpdGxlPiYjeGE7CTxnIGlkPSJzaGFwZTMwODQtMSI+JiN4YTsJCTx0aXRsZSBpZD0idGl0bGU1NDYxMSI+RW5jb2Rpbmc8L3RpdGxlPiYjeGE7CQk8cGF0aCBpZD0icGF0aDU0NjEzIiBpbmtzY2FwZTpjb25uZWN0b3ItY3VydmF0dXJlPSIwIiBzdHlsZT0iZmlsbDojM0Y1NzY1OyIgZD0iTTIyLjgyLDEzLjMxYzAtMC44NSwwLTQuNzktMC4wOC04LjY3ICAgIGMwLTIuNDQtMi4zNC00Ljc0LTUuODctNC42NEMxNi4zMiwwLDgsMC4wNyw4LDAuMDdDNi45OSwwLjE1LDYuODQsMC45NCw2Ljg0LDEuMzNzMCwwLjA3LDAsMC42M2MwLDAuNDgsMC41MywwLjg3LDEuMDksMC45NCAgICBjMCwwLDAsMCwwLDAuMWMwLDAuMDcsMCwwLjA3LDAuMDcsMC4xNEM3LjU0LDMuNyw3LjU0LDMuNyw3LjU0LDMuN2MwLDAuNjMsMCwwLjYzLDAsMC42M2MtNC40LDAtNC40LDAtNC40LDAgICAgYzAsMi44MywwLDIuODMsMCwyLjgzQzAsNy4xNiwwLDcuMTYsMCw3LjE2YzAsMy44LDAsMy44LDAsMy44YzE2LjI0LDAsMTYuMjQsMCwxNi4yNCwwYzAtMy44LDAtMy44LDAtMy44Yy0yLjIsMC0yLjIsMC0yLjIsMCAgICBjMC0yLjgzLDAtMi44MywwLTIuODNjLTMuOTgsMC0zLjk4LDAtMy45OCwwYzAtMC41NiwwLTAuNTYsMC0wLjU2QzkuNTcsMy4xNCw5LjU3LDMuMTQsOS41NywzLjE0YzAtMC4wNywwLjA3LTAuMDcsMC4wNy0wLjE0ICAgIGMwLTAuMSwwLTAuMS0wLjA3LTAuMTdjMi4xMywwLDUuNTktMC4wNyw2LjIxLTAuMDdjMy41MSwwLDMuODIsMS40LDMuODIsMi4zN2MwLDAuODUsMC4xLDYuMjIsMC4xLDguMzQgICAgYzAuMDcsMi4wNi0zLjIyLDIuMDYtMy44NCwyLjA2Yy0wLjM5LDAtNC4zMywwLTYuMjIsMC4wN2wtMC4wNy0wLjA3Yy0wLjE0LDAtMC4xNCwwLTAuMTQsMGMwLTAuMSwwLTAuMSwwLTAuMSAgICBjMC4xNC0wLjA3LDAuMTQtMC4wNywwLjE0LTAuMDdoMC4wN2MwLTAuMDctMC4wNy0wLjA3LTAuMDctMC4wN2MtMC4xNCwwLTAuMTQsMC0wLjE0LDBjMC0wLjE3LDAtMC4xNywwLTAuMTcgICAgYzAuMTQsMCwwLjE0LDAsMC4xNCwwczAuMDcsMCwwLjA3LTAuMDdIOS41N2MtMC4xNCwwLTAuMTQsMC0wLjE0LDBjMC0wLjE1LDAtMC4xNSwwLTAuMTVjMC4xNCwwLDAuMTQsMCwwLjE0LDBzMC4wNywwLDAuMDctMC4wOSAgICBIOS41N2MtMC4xNCwwLTAuMTQsMC0wLjE0LDBjMC0wLjE1LDAtMC4xNSwwLTAuMTVjMC4xNCwwLDAuMTQsMCwwLjE0LDBsMC4wNy0wLjFsLTAuMDctMC4wN2MtMC4xNCwwLTAuMTQsMC0wLjE0LDAgICAgYzAtMC4xNCwwLTAuMTQsMC0wLjE0YzAuMTQsMCwwLjE0LDAsMC4xNCwwaDAuMDdjMC0wLjEtMC4wNy0wLjEtMC4wNy0wLjFjLTAuMTQsMC0wLjE0LDAtMC4xNCwwQzkuMzUsMTQuMSw5LjM1LDE0LjEsOS4zNSwxNC4xICAgIGMwLjIyLDAsMC4yMiwwLDAuMjIsMHMwLjA3LDAsMC4wNy0wLjA3Yy0wLjA3LDAtMC4wNywwLTAuMDcsMGMtMC4yMiwwLTAuMjIsMC0wLjIyLDBjMC0wLjE3LDAtMC4xNywwLTAuMTdjMC4yMiwwLDAuMjIsMCwwLjIyLDAgICAgdi0wLjA3di0wLjA3Yy0wLjIyLDAtMC4yMiwwLTAuMjIsMGMwLTAuMTcsMC0wLjE3LDAtMC4xN2MwLjIyLDAsMC4yMiwwLDAuMjIsMGwwLDBjMC0wLjA4LDAtMC4wOCwwLTAuMDhjLTAuMjIsMC0wLjIyLDAtMC4yMiwwICAgIGMwLTAuMTYsMC0wLjE2LDAtMC4xNmMwLjIyLDAsMC4yMiwwLDAuMjIsMHMwLDAsMC0wLjA4bDAsMGMtMC4yMiwwLTAuMjIsMC0wLjIyLDBjMC0wLjE0LDAtMC4xNCwwLTAuMTRjMC4yMiwwLDAuMjIsMCwwLjIyLDAgICAgdi0wLjF2LTAuMDdjLTAuMjIsMC0wLjIyLDAtMC4yMiwwYzAtMC4xNSwwLTAuMTUsMC0wLjE1YzAuMjIsMCwwLjIyLDAsMC4yMiwwbDAsMGMwLTAuMDksMC0wLjA5LDAtMC4wOWMtMC4yMiwwLTAuMjIsMC0wLjIyLDAgICAgYzAtMC4wOCwwLTAuMDgsMC0wLjA4YzAuMjIsMCwwLjIyLDAsMC4yMiwwYzAuMDcsMCwwLjE3LTAuMDcsMC4xNy0wLjE0YzAtMC4xLDAtMC4xLTAuMS0wLjE3YzAuNDktMC41NiwwLjQ5LTAuNTYsMC40OS0wLjU2ICAgIGMwLTAuNzcsMC0wLjc3LDAtMC43N2MtMi41MiwwLTIuNTIsMC0yLjUyLDBjMCwwLjcsMCwwLjcsMCwwLjdjMC40OSwwLjcsMC40OSwwLjcsMC40OSwwLjdjLTAuMSwwLTAuMSwwLjEtMC4xLDAuMSAgICBjMCwwLjE0LDAuMSwwLjE0LDAuMTcsMC4xNHMwLjA3LDAsMC4wNywwYzAsMC4wOCwwLDAuMDgsMCwwLjA4Yy0wLjE0LDAtMC4xNCwwLTAuMTQsMHYwLjA5djAuMDhjMC4xNCwwLDAuMTQsMCwwLjE0LDAgICAgYzAsMC4xNCwwLDAuMTQsMCwwLjE0Yy0wLjE0LDAtMC4xNCwwLTAuMTQsMGwwLDBjMCwwLjEsMCwwLjEsMCwwLjFjMC4xNCwwLDAuMTQsMCwwLjE0LDBjMCwwLjE0LDAsMC4xNCwwLDAuMTQgICAgYy0wLjE0LDAtMC4xNCwwLTAuMTQsMHMwLDAsMCwwLjA4bDAsMGMwLjE0LDAsMC4xNCwwLDAuMTQsMGMwLDAuMTYsMCwwLjE2LDAsMC4xNmMtMC4xNCwwLTAuMTQsMC0wLjE0LDB2MC4wOHYwLjA3ICAgIGMwLjE0LDAsMC4xNCwwLDAuMTQsMGMwLDAuMTcsMCwwLjE3LDAsMC4xN2MtMC4xNCwwLTAuMTQsMC0wLjE0LDBsMCwwYzAsMC4wNywwLDAuMDcsMC4wNywwLjA3czAuMDcsMCwwLjA3LDAgICAgYzAsMC4xNywwLDAuMTcsMCwwLjE3Yy0wLjA3LDAtMC4wNywwLTAuMDcsMGMtMC4wNywwLTAuMDcsMC0wLjA3LDAuMDdjMCwwLDAsMCwwLjA3LDBzMC4wNywwLDAuMDcsMGMwLDAuMTUsMCwwLjE1LDAsMC4xNSAgICBjLTAuMDcsMC0wLjA3LDAtMC4wNywwYy0wLjA3LDAtMC4wNywwLTAuMDcsMC4xYzAsMCwwLDAsMC4wNywwczAuMDcsMCwwLjA3LDBjMCwwLjE0LDAsMC4xNCwwLDAuMTRjLTAuMDcsMC0wLjA3LDAtMC4wNywwICAgIGMtMC4wNywwLTAuMDcsMC4wNy0wLjA3LDAuMDdjMCwwLjEsMCwwLjEsMC4wNywwLjFzMC4wNywwLDAuMDcsMGMwLDAuMTUsMCwwLjE1LDAsMC4xNWMtMC4wNywwLTAuMDcsMC0wLjA3LDAgICAgYy0wLjA3LDAtMC4wNywwLTAuMDcsMGMwLDAuMDksMCwwLjA5LDAuMDcsMC4wOXMwLjA3LDAsMC4wNywwYzAsMC4xNSwwLDAuMTUsMCwwLjE1Yy0wLjA3LDAtMC4wNywwLTAuMDcsMCAgICBjLTAuMDcsMC0wLjA3LDAtMC4wNywwLjA3YzAsMCwwLDAsMC4wNywwczAuMDcsMCwwLjA3LDBjMCwwLjE3LDAsMC4xNywwLDAuMTdjLTAuMDcsMC0wLjA3LDAtMC4wNywwYy0wLjA3LDAtMC4wNywwLjA3LTAuMDcsMC4wNyAgICBzMCwwLjA3LDAuMDcsMC4wN3MwLjA3LDAsMC4wNywwYzAsMC4xNywwLDAuMTcsMCwwLjE3Yy0wLjA3LDAtMC4wNywwLTAuMDcsMGMtMC4wNywwLTAuMDcsMC0wLjA3LDB2MC4wOCAgICBjLTAuNDEsMC4wNy0wLjczLDAuMzEtMC43MywwLjc5YzAsMC4zMiwwLDAuMzksMC4xLDAuODhjMCwwLjM4LDAuMzEsMC43NywwLjcsMC44NGwwLDBjMCwwLjEsMCwwLjEsMCwwLjFjMC4xNCwwLDAuMTQsMCwwLjE0LDAgICAgYzAsMC4xNCwwLDAuMTQsMCwwLjE0Yy0wLjE0LDAtMC4xNCwwLTAuMTQsMHMwLDAsMCwwLjA4bDAsMGMwLjE0LDAsMC4xNCwwLDAuMTQsMGMwLDAuMTcsMCwwLjE3LDAsMC4xN2MtMC4xNCwwLTAuMTQsMC0wLjE0LDAgICAgdjAuMDd2MC4wN2MwLjE0LDAsMC4xNCwwLDAuMTQsMGMwLDAuMTcsMCwwLjE3LDAsMC4xN2MtMC4xNCwwLTAuMTQsMC0wLjE0LDBsMCwwYzAsMC4wNywwLDAuMDcsMCwwLjA3YzAuMTQsMCwwLjE0LDAsMC4xNCwwICAgIGMwLDAuMTcsMCwwLjE3LDAsMC4xN2MtMC4xNCwwLTAuMTQsMC0wLjE0LDBzMCwwLDAsMC4wN2wwLDBjMC4xNCwwLDAuMTQsMCwwLjE0LDBjMCwwLjE1LDAsMC4xNSwwLDAuMTVjLTAuMTQsMC0wLjE0LDAtMC4xNCwwICAgIHYwLjF2MC4wN2MwLjE0LDAsMC4xNCwwLDAuMTQsMGMwLDAuMTcsMCwwLjE3LDAsMC4xN2MtMC4xNCwwLTAuMTQsMC0wLjE0LDBsMCwwYzAsMC4wNywwLDAuMDcsMC4wNywwLjA3czAuMDcsMCwwLjA3LDAgICAgYzAsMC4xNSwwLDAuMTUsMCwwLjE1Yy0wLjA3LDAtMC4wNywwLTAuMDcsMGMtMC4wNywwLTAuMDcsMC0wLjA3LDAuMDljMCwwLDAsMCwwLjA3LDBzMC4wNywwLDAuMDcsMGMwLDAuMDgsMCwwLjA4LDAsMC4wOCAgICBjLTAuNjIsMC0wLjYyLDAtMC42MiwwYzAsMC4yNCwwLDAuMjQsMCwwLjI0Yy0yLjksMC0yLjksMC0yLjksMGMtMC4yMiwwLTAuMzksMC4wNy0wLjM5LDAuMTRjMCwwLjA4LDAsMC4wOCwwLDAuMDggICAgYzAsMC4wOSwwLjE3LDAuMTYsMC4zOSwwLjE2YzIuOS0wLjA3LDIuOS0wLjA3LDIuOS0wLjA3YzAsMC4xNSwwLDAuMTUsMCwwLjE1YzAuNTUsMC43LDAuNTUsMC43LDAuNTUsMC43YzEuNSwwLDEuNSwwLDEuNSwwICAgIGMwLjUzLTAuNywwLjUzLTAuNywwLjUzLTAuN2MwLTAuMTUsMC0wLjE1LDAtMC4xNWMyLjgzLDAsMi44MywwLDIuODMsMGMwLjI0LTAuMDksMC40OC0wLjA5LDAuNDgtMC4xNyAgICBjLTAuMDktMC4xNC0wLjA5LTAuMTQtMC4wOS0wLjE0YzAtMC4xLTAuMTUtMC4xLTAuMzktMC4xYy0yLjgzLDAtMi44MywwLTIuODMsMGMwLTAuMTQsMC0wLjE0LDAtMC4xNGMtMC43NywwLTAuNzcsMC0wLjc3LDAgICAgYzAtMC4wOCwwLTAuMDgsMC0wLjA4YzAuMTQsMCwwLjE0LDAsMC4xNCwwczAuMSwwLDAuMS0wLjA5aC0wLjFjLTAuMjEsMC0wLjIxLDAtMC4yMSwwYzAtMC4xNSwwLTAuMTUsMC0wLjE1ICAgIGMwLjIxLDAsMC4yMSwwLDAuMjEsMHYtMC4wN3YtMC4xYy0wLjIxLDAtMC4yMSwwLTAuMjEsMGMwLTAuMTQsMC0wLjE0LDAtMC4xNGMwLjIxLDAsMC4yMSwwLDAuMjEsMGwwLDBjMC0wLjEsMC0wLjEsMC0wLjEgICAgYy0wLjIxLDAtMC4yMSwwLTAuMjEsMGMwLTAuMTUsMC0wLjE1LDAtMC4xNWMwLjIxLDAsMC4yMSwwLDAuMjEsMHMwLDAsMC0wLjA3bDAsMGMtMC4yMSwwLTAuMjEsMC0wLjIxLDBjMC0wLjE3LDAtMC4xNywwLTAuMTcgICAgYzAuMjEsMCwwLjIxLDAsMC4yMSwwdi0wLjA3di0wLjA3Yy0wLjIxLDAtMC4yMSwwLTAuMjEsMGMwLTAuMSwwLTAuMSwwLTAuMWMwLjIxLTAuMDcsMC4yMS0wLjA3LDAuMjEtMC4wN2wwLDAgICAgYzAtMC4wNywwLTAuMDcsMC0wLjA3Yy0wLjIxLDAtMC4yMSwwLTAuMjEsMGMwLTAuMTcsMC0wLjE3LDAtMC4xN2MwLjIxLDAsMC4yMSwwLDAuMjEsMGwwLDBjMC0wLjA4LDAtMC4wOCwwLTAuMDggICAgYy0wLjIxLDAtMC4yMSwwLTAuMjEsMGMwLTAuMTQsMC0wLjE0LDAtMC4xNGMwLjIxLDAsMC4yMSwwLDAuMjEsMHMwLDAsMC0wLjFsMCwwYzEuMzYsMCwzLjYzLTAuMDcsNy4zOC0wLjA3ICAgIEMyMi44MiwxOC4wNSwyMi44MiwxNC4yNSwyMi44MiwxMy4zMXoiLz4mI3hhOwk8L2c+JiN4YTs8L2c+JiN4YTs8L3N2Zz4=;" parent="1" vertex="1">
          <mxGeometry x="240" y="350" width="63" height="60" as="geometry" />
        </mxCell>
        <mxCell id="AcxdMaKK0mU5kZiv2lnr-5" value="Preview&lt;br&gt;Monitoring&lt;br&gt;" style="aspect=fixed;html=1;perimeter=none;align=center;shadow=0;dashed=0;image;fontSize=12;image=img/lib/mscae/TaskVM.svg;" parent="1" vertex="1">
          <mxGeometry x="340" y="20" width="63" height="60" as="geometry" />
        </mxCell>
        <mxCell id="AcxdMaKK0mU5kZiv2lnr-6" value="Program" style="aspect=fixed;html=1;perimeter=none;align=center;shadow=0;dashed=0;image;fontSize=12;image=img/lib/mscae/WebApp_WebJobs.svg;labelBackgroundColor=none;" parent="1" vertex="1">
          <mxGeometry x="378" y="192.00000000000006" width="64" height="64" as="geometry" />
        </mxCell>
        <mxCell id="AcxdMaKK0mU5kZiv2lnr-8" value="Streaming&#xa;Endpoint&#xa;" style="shape=image;verticalLabelPosition=bottom;labelBackgroundColor=#ffffff;verticalAlign=top;aspect=fixed;imageAspect=0;image=data:image/svg+xml,PHN2ZyB4bWxuczpjYz0iaHR0cDovL2NyZWF0aXZlY29tbW9ucy5vcmcvbnMjIiB4bWxuczpkYz0iaHR0cDovL3B1cmwub3JnL2RjL2VsZW1lbnRzLzEuMS8iIHhtbG5zOmlua3NjYXBlPSJodHRwOi8vd3d3Lmlua3NjYXBlLm9yZy9uYW1lc3BhY2VzL2lua3NjYXBlIiB4bWxuczpyZGY9Imh0dHA6Ly93d3cudzMub3JnLzE5OTkvMDIvMjItcmRmLXN5bnRheC1ucyMiIHhtbG5zOnNvZGlwb2RpPSJodHRwOi8vc29kaXBvZGkuc291cmNlZm9yZ2UubmV0L0RURC9zb2RpcG9kaS0wLmR0ZCIgeG1sbnM6c3ZnPSJodHRwOi8vd3d3LnczLm9yZy8yMDAwL3N2ZyIgeG1sbnM9Imh0dHA6Ly93d3cudzMub3JnLzIwMDAvc3ZnIiB4bWxuczp4bGluaz0iaHR0cDovL3d3dy53My5vcmcvMTk5OS94bGluayIgdmVyc2lvbj0iMS4xIiBpZD0ic3ZnOTI3NzciIGlua3NjYXBlOnZlcnNpb249IjAuOTIuMyAoMjQwNTU0NiwgMjAxOC0wMy0xMSkiIHNvZGlwb2RpOmRvY25hbWU9InBsYXkuc3ZnIiB4PSIwcHgiIHk9IjBweCIgdmlld0JveD0iMCAwIDI3IDI3IiBzdHlsZT0iZW5hYmxlLWJhY2tncm91bmQ6bmV3IDAgMCAyNyAyNzsiIHhtbDpzcGFjZT0icHJlc2VydmUiPiYjeGE7PHNvZGlwb2RpOm5hbWVkdmlldyBib3JkZXJjb2xvcj0iIzY2NjY2NiIgYm9yZGVyb3BhY2l0eT0iMSIgZml0LW1hcmdpbi1ib3R0b209IjAiIGZpdC1tYXJnaW4tbGVmdD0iMCIgZml0LW1hcmdpbi1yaWdodD0iMCIgZml0LW1hcmdpbi10b3A9IjAiIGdyaWR0b2xlcmFuY2U9IjEwIiBndWlkZXRvbGVyYW5jZT0iMTAiIGlkPSJuYW1lZHZpZXc5Mjc3OSIgaW5rc2NhcGU6Y3VycmVudC1sYXllcj0ic3ZnOTI3NzciIGlua3NjYXBlOmN4PSIxNy45OTk1MjIiIGlua3NjYXBlOmN5PSIxNy45OTk4NTYiIGlua3NjYXBlOnBhZ2VvcGFjaXR5PSIwIiBpbmtzY2FwZTpwYWdlc2hhZG93PSIyIiBpbmtzY2FwZTp3aW5kb3ctaGVpZ2h0PSIxMDE3IiBpbmtzY2FwZTp3aW5kb3ctbWF4aW1pemVkPSIxIiBpbmtzY2FwZTp3aW5kb3ctd2lkdGg9IjE5MjAiIGlua3NjYXBlOndpbmRvdy14PSItOCIgaW5rc2NhcGU6d2luZG93LXk9Ii04IiBpbmtzY2FwZTp6b29tPSIyNC4wODMxNCIgb2JqZWN0dG9sZXJhbmNlPSIxMCIgcGFnZWNvbG9yPSIjZmZmZmZmIiBzaG93Z3JpZD0iZmFsc2UiPiYjeGE7CTwvc29kaXBvZGk6bmFtZWR2aWV3PiYjeGE7PGcgaWQ9Imc5Mjc3NSIgdHJhbnNmb3JtPSJ0cmFuc2xhdGUoMS45OTMyMDk4ZS02LDQuMzc4NDU4MWUtNSkiPiYjeGE7CTx0aXRsZSBpZD0idGl0bGU5Mjc2MCI+UGFnZS0xPC90aXRsZT4mI3hhOwk8ZyBpZD0iZ3JvdXA1OTA1LTEiIHRyYW5zZm9ybT0idHJhbnNsYXRlKDAuNzQ5OTkzLC0wLjc0OTk5MykiPiYjeGE7CQk8dGl0bGUgaWQ9InRpdGxlOTI3NjIiPlBsYXk8L3RpdGxlPiYjeGE7CQk8ZyBpZD0ic2hhcGU1OTA2LTIiPiYjeGE7CQkJPHRpdGxlIGlkPSJ0aXRsZTkyNzY0Ij5TaGVldC41OTA2PC90aXRsZT4mI3hhOwkJCSYjeGE7CQkJCTxwYXRoIGlkPSJwYXRoOTI3NjYiIGlua3NjYXBlOmNvbm5lY3Rvci1jdXJ2YXR1cmU9IjAiIHN0eWxlPSJmaWxsOm5vbmU7c3Ryb2tlOiM1NTZBOEE7c3Ryb2tlLXdpZHRoOjEuNTtzdHJva2UtbGluZWNhcDpyb3VuZDtzdHJva2UtbGluZWpvaW46cm91bmQ7c3Ryb2tlLW1pdGVybGltaXQ6MzsiIGQ9IiAgICAgTTMsMS41aDE5LjVjMS42OCwwLDMsMS4zOCwzLDNWMjRjMCwxLjY4LTEuMzIsMy0zLDNIM2MtMS42MiwwLTMtMS4zMi0zLTNWNC41QzAsMi44OCwxLjM4LDEuNSwzLDEuNSIvPiYjeGE7CQk8L2c+JiN4YTsJCTxnIGlkPSJzaGFwZTU5MDctNSIgdHJhbnNmb3JtPSJ0cmFuc2xhdGUoNi43Nzk4MiwtNS4yMjAwNCkiPiYjeGE7CQkJPHRpdGxlIGlkPSJ0aXRsZTkyNzY5Ij5TaGVldC41OTA3PC90aXRsZT4mI3hhOwkJCTxwYXRoIGlkPSJwYXRoOTI3NzEiIGlua3NjYXBlOmNvbm5lY3Rvci1jdXJ2YXR1cmU9IjAiIHN0eWxlPSJmaWxsOiMyQkM3RjQ7IiBkPSJNMCwyN1YxMmwxMy4yLDcuNTZMMCwyN3oiLz4mI3hhOwkJPC9nPiYjeGE7CTwvZz4mI3hhOzwvZz4mI3hhOzwvc3ZnPg==;spacingTop=2;" parent="1" vertex="1">
          <mxGeometry x="517" y="197.50000000000003" width="53" height="53" as="geometry" />
        </mxCell>
        <mxCell id="AcxdMaKK0mU5kZiv2lnr-9" value="Azure Blob&lt;br&gt;Storage&lt;br&gt;" style="aspect=fixed;html=1;perimeter=none;align=center;shadow=0;dashed=0;image;fontSize=12;image=img/lib/mscae/BlobBlock.svg;" parent="1" vertex="1">
          <mxGeometry x="512.5" y="338" width="62" height="53" as="geometry" />
        </mxCell>
        <mxCell id="AcxdMaKK0mU5kZiv2lnr-10" value="Multi-Protocol&lt;br&gt;Dynamic &lt;br&gt;Packaging/&lt;br&gt;Multi-DRM&lt;br&gt;" style="aspect=fixed;html=1;perimeter=none;align=center;shadow=0;dashed=0;image;fontSize=12;image=img/lib/mscae/VPN_Gateway.svg;" parent="1" vertex="1">
          <mxGeometry x="655" y="199.00000000000003" width="45" height="50" as="geometry" />
        </mxCell>
        <mxCell id="AcxdMaKK0mU5kZiv2lnr-11" value="Azure CDN" style="aspect=fixed;html=1;perimeter=none;align=center;shadow=0;dashed=0;image;fontSize=12;image=img/lib/mscae/Content_Delivery_Network.svg;" parent="1" vertex="1">
          <mxGeometry x="763" y="202.00000000000003" width="96" height="44" as="geometry" />
        </mxCell>
        <mxCell id="AcxdMaKK0mU5kZiv2lnr-12" value="Azure Media&lt;br&gt;Player in Browser&lt;br&gt;" style="aspect=fixed;html=1;perimeter=none;align=center;shadow=0;dashed=0;image;fontSize=12;image=img/lib/mscae/Browser.svg;spacingTop=5;" parent="1" vertex="1">
          <mxGeometry x="878.2499999999997" y="60" width="50" height="42.5" as="geometry" />
        </mxCell>
        <mxCell id="AcxdMaKK0mU5kZiv2lnr-13" value="Azure Media Player&lt;br&gt;in Mobile App&lt;br&gt;" style="aspect=fixed;html=1;perimeter=none;align=center;shadow=0;dashed=0;image;fontSize=12;image=img/lib/mscae/App_Service_Mobile_App.svg;" parent="1" vertex="1">
          <mxGeometry x="885.9999999999999" y="280" width="34.5" height="50" as="geometry" />
        </mxCell>
        <mxCell id="AcxdMaKK0mU5kZiv2lnr-14" value="Cloud DRM&lt;br&gt;License / Key&lt;br&gt;Delivery Service&lt;br&gt;" style="aspect=fixed;html=1;perimeter=none;align=center;shadow=0;dashed=0;image;fontSize=12;image=img/lib/mscae/KeyVault.svg;spacingTop=3;" parent="1" vertex="1">
          <mxGeometry x="990" y="179" width="45" height="50" as="geometry" />
        </mxCell>
        <mxCell id="AcxdMaKK0mU5kZiv2lnr-29" style="edgeStyle=orthogonalEdgeStyle;rounded=0;orthogonalLoop=1;jettySize=auto;html=1;exitX=0.364;exitY=0.004;exitDx=0;exitDy=0;exitPerimeter=0;entryX=1.043;entryY=0.678;entryDx=0;entryDy=0;entryPerimeter=0;strokeColor=#808080;" parent="1" source="AcxdMaKK0mU5kZiv2lnr-14" target="AcxdMaKK0mU5kZiv2lnr-12" edge="1">
          <mxGeometry relative="1" as="geometry">
            <mxPoint x="1022.5517241379312" y="209.41379310344826" as="sourcePoint" />
            <mxPoint x="939.1034482758621" y="91.48275862068965" as="targetPoint" />
            <Array as="points">
              <mxPoint x="1006" y="89" />
              <mxPoint x="990" y="89" />
            </Array>
          </mxGeometry>
        </mxCell>
        <mxCell id="ij2_FURvqXdRc3KbHj5h-2" value="" style="verticalLabelPosition=bottom;html=1;verticalAlign=top;align=center;strokeColor=none;fillColor=#00BEF2;shape=mxgraph.azure.mobile_services;pointerEvents=1;" vertex="1" parent="1">
          <mxGeometry x="290.84" y="1390" width="32.5" height="50" as="geometry" />
        </mxCell>
        <mxCell id="ij2_FURvqXdRc3KbHj5h-4" value="" style="verticalLabelPosition=bottom;html=1;verticalAlign=top;align=center;strokeColor=none;fillColor=#00BEF2;shape=mxgraph.azure.computer;pointerEvents=1;" vertex="1" parent="1">
          <mxGeometry x="193.34" y="1395" width="50" height="45" as="geometry" />
        </mxCell>
        <mxCell id="ij2_FURvqXdRc3KbHj5h-5" value="" style="verticalLabelPosition=bottom;html=1;verticalAlign=top;align=center;strokeColor=none;fillColor=#00BEF2;shape=mxgraph.azure.cloud_service;" vertex="1" parent="1">
          <mxGeometry x="90" y="790" width="62.5" height="50" as="geometry" />
        </mxCell>
        <mxCell id="ij2_FURvqXdRc3KbHj5h-19" value="Nginx" style="text;html=1;align=center;verticalAlign=middle;resizable=0;points=[];autosize=1;strokeColor=none;" vertex="1" parent="1">
          <mxGeometry x="40" y="860" width="50" height="20" as="geometry" />
        </mxCell>
        <mxCell id="ij2_FURvqXdRc3KbHj5h-20" value="" style="verticalLabelPosition=bottom;html=1;verticalAlign=top;align=center;strokeColor=none;fillColor=#00BEF2;shape=mxgraph.azure.cloud_service;dashed=1;" vertex="1" parent="1">
          <mxGeometry x="800" y="940" width="50" height="40" as="geometry" />
        </mxCell>
        <mxCell id="ij2_FURvqXdRc3KbHj5h-21" value="" style="verticalLabelPosition=bottom;html=1;verticalAlign=top;align=center;strokeColor=none;fillColor=#00BEF2;shape=mxgraph.azure.cloud_service_package_file;dashed=1;" vertex="1" parent="1">
          <mxGeometry x="730" y="860" width="42.5" height="50" as="geometry" />
        </mxCell>
        <mxCell id="ij2_FURvqXdRc3KbHj5h-23" value="Gateway1" style="text;html=1;align=center;verticalAlign=middle;resizable=0;points=[];autosize=1;strokeColor=none;" vertex="1" parent="1">
          <mxGeometry x="790" y="980" width="70" height="20" as="geometry" />
        </mxCell>
        <mxCell id="ij2_FURvqXdRc3KbHj5h-24" value="" style="verticalLabelPosition=bottom;html=1;verticalAlign=top;align=center;strokeColor=none;fillColor=#00BEF2;shape=mxgraph.azure.cloud_service;dashed=1;" vertex="1" parent="1">
          <mxGeometry x="805" y="1010" width="50" height="40" as="geometry" />
        </mxCell>
        <mxCell id="ij2_FURvqXdRc3KbHj5h-25" value="Gateway 2" style="text;html=1;align=center;verticalAlign=middle;resizable=0;points=[];autosize=1;strokeColor=none;" vertex="1" parent="1">
          <mxGeometry x="795" y="1050" width="70" height="20" as="geometry" />
        </mxCell>
        <mxCell id="ij2_FURvqXdRc3KbHj5h-33" value="" style="group" vertex="1" connectable="0" parent="1">
          <mxGeometry x="130.00000000000003" y="1200" width="80" height="64" as="geometry" />
        </mxCell>
        <mxCell id="ij2_FURvqXdRc3KbHj5h-26" value="" style="verticalLabelPosition=bottom;html=1;verticalAlign=top;align=center;strokeColor=none;fillColor=#00BEF2;shape=mxgraph.azure.express_route;pointerEvents=1;dashed=1;" vertex="1" parent="ij2_FURvqXdRc3KbHj5h-33">
          <mxGeometry x="6.659999999999968" width="66.67" height="40" as="geometry" />
        </mxCell>
        <mxCell id="ij2_FURvqXdRc3KbHj5h-7" value="阿里云 SLB" style="text;html=1;align=center;verticalAlign=middle;resizable=0;points=[];autosize=1;strokeColor=none;" vertex="1" parent="ij2_FURvqXdRc3KbHj5h-33">
          <mxGeometry y="44" width="80" height="20" as="geometry" />
        </mxCell>
        <mxCell id="ij2_FURvqXdRc3KbHj5h-34" value="" style="verticalLabelPosition=bottom;html=1;verticalAlign=top;align=center;strokeColor=none;fillColor=#00BEF2;shape=mxgraph.azure.server_rack;dashed=1;" vertex="1" parent="1">
          <mxGeometry x="780" y="1130" width="50" height="50" as="geometry" />
        </mxCell>
        <mxCell id="ij2_FURvqXdRc3KbHj5h-38" value="" style="group" vertex="1" connectable="0" parent="1">
          <mxGeometry x="136.66" y="1000" width="66.67000000000002" height="62" as="geometry" />
        </mxCell>
        <mxCell id="ij2_FURvqXdRc3KbHj5h-35" value="" style="verticalLabelPosition=bottom;html=1;verticalAlign=top;align=center;strokeColor=none;fillColor=#00BEF2;shape=mxgraph.azure.express_route;pointerEvents=1;dashed=1;" vertex="1" parent="ij2_FURvqXdRc3KbHj5h-38">
          <mxGeometry width="66.67" height="40" as="geometry" />
        </mxCell>
        <mxCell id="ij2_FURvqXdRc3KbHj5h-37" value="Nginx" style="text;html=1;align=center;verticalAlign=middle;resizable=0;points=[];autosize=1;strokeColor=none;" vertex="1" parent="ij2_FURvqXdRc3KbHj5h-38">
          <mxGeometry x="8.340000000000003" y="42" width="50" height="20" as="geometry" />
        </mxCell>
        <mxCell id="ij2_FURvqXdRc3KbHj5h-39" style="edgeStyle=orthogonalEdgeStyle;curved=1;rounded=0;orthogonalLoop=1;jettySize=auto;html=1;entryX=0.493;entryY=1.25;entryDx=0;entryDy=0;entryPerimeter=0;" edge="1" parent="1" source="ij2_FURvqXdRc3KbHj5h-26" target="ij2_FURvqXdRc3KbHj5h-37">
          <mxGeometry relative="1" as="geometry" />
        </mxCell>
        <mxCell id="ij2_FURvqXdRc3KbHj5h-51" value="" style="shape=image;verticalLabelPosition=bottom;labelBackgroundColor=#ffffff;verticalAlign=top;aspect=fixed;imageAspect=0;image=data:image/svg+xml,PHN2ZyB4bWxucz0iaHR0cDovL3d3dy53My5vcmcvMjAwMC9zdmciIHhtbG5zOnhsaW5rPSJodHRwOi8vd3d3LnczLm9yZy8xOTk5L3hsaW5rIiB2ZXJzaW9uPSIxLjEiIGlkPSJMYXllcl8xIiB4PSIwcHgiIHk9IjBweCIgdmlld0JveD0iMC4wMTY5NjU4NjYwODg4NjcxODggLTAuMDE5NjQ3NTk4MjY2NjAxNTYyIDM3Ny40ODMwMzIyMjY1NjI1IDk2Ljk5NTIzMTYyODQxNzk3IiBzdHlsZT0iZW5hYmxlLWJhY2tncm91bmQ6bmV3IDAgMCAzNzcuNSA5Ny4xOyIgeG1sOnNwYWNlPSJwcmVzZXJ2ZSIgd2lkdGg9IjM3Ny40ODMwMzIyMjY1NjI1IiBoZWlnaHQ9Ijk2Ljk5NTIzMTYyODQxNzk3Ij4mI3hhOzxzdHlsZSB0eXBlPSJ0ZXh0L2NzcyI+JiN4YTsJLnN0MHtmaWxsOiM2REIzM0Y7fSYjeGE7CS5zdDF7ZmlsbDojRkZGRkZGO30mI3hhOzwvc3R5bGU+JiN4YTs8cGF0aCBjbGFzcz0ic3QwIiBkPSJNODguNSw1LjdjLTEuMywzLjItMy4xLDYuMy01LjIsOS4xQzY0LjctNC41LDM0LTUsMTQuOCwxMy42Uy01LDYyLjksMTMuNiw4Mi4xYzAuNiwwLjcsMS4zLDEuMywyLDEuOWwxLjgsMS42JiMxMDsmIzk7YzIwLjQsMTcuMiw1MSwxNC42LDY4LjItNS44QzkyLjIsNzIsOTYuMiw2Mi4yLDk2LjksNTJDOTguMywzOS45LDk0LjYsMjQuMyw4OC41LDUuN3ogTTIyLjYsODQuNWMtMS40LDEuOC00LDItNS44LDAuNiYjMTA7JiM5O3MtMi00LTAuNi01LjhzNC0yLDUuOC0wLjZDMjMuNyw4MC4xLDI0LDgyLjcsMjIuNiw4NC41eiBNODguMiw3MEM3Ni4zLDg1LjksNTAuNyw4MC41LDM0LjQsODEuM2MwLDAtMi45LDAuMi01LjgsMC42JiMxMDsmIzk7YzAsMCwxLjEtMC41LDIuNS0xYzExLjUtNCwxNi45LTQuOCwyMy45LTguNGMxMy4xLTYuNywyNi4yLTIxLjQsMjguOC0zNi42Yy01LDE0LjYtMjAuMiwyNy4yLTM0LDMyLjNjLTkuNSwzLjUtMjYuNiw2LjktMjYuNiw2LjkmIzEwOyYjOTtsLTAuNy0wLjRjLTExLjYtNS43LTEyLTMwLjksOS4yLTM5YzkuMy0zLjYsMTguMS0xLjYsMjguMi00QzcwLjYsMjkuMiw4MywyMS4yLDg4LDEwLjdDOTMuNiwyNy42LDEwMC40LDUzLjgsODguMiw3MHoiLz4mI3hhOzxwYXRoIGNsYXNzPSJzdDAiIGQ9Ik0xMjQuNCw2Ny42Yy0xLjMtMC44LTIuMS0yLjItMi0zLjdjMC0yLjQsMS45LTQuNCw0LjMtNC40YzAsMCwwLDAsMC4xLDBjMC44LDAsMS42LDAuMiwyLjMsMC42JiMxMDsmIzk7YzQsMi44LDguNyw0LjMsMTMuNSw0LjVjNC42LDAsNy4zLTIsNy4zLTUuMXYtMC4yYzAtMy43LTUtNC45LTEwLjUtNi42Yy02LjktMi0xNC43LTQuOC0xNC43LTEzLjh2LTAuMmMwLTguOSw3LjQtMTQuMywxNi43LTE0LjMmIzEwOyYjOTtjNS4yLDAuMSwxMC4yLDEuNCwxNC44LDMuOGMxLjYsMC44LDIuNiwyLjMsMi42LDQuMWMwLDIuNC0yLDQuNC00LjQsNC40aC0wLjFjLTAuNywwLTEuNC0wLjItMi4xLTAuNWMtMy40LTEuOS03LjEtMy0xMS0zLjImIzEwOyYjOTtjLTQuMiwwLTYuNiwyLTYuNiw0LjZ2MC4yYzAsMy41LDUuMSw0LjksMTAuNiw2LjdjNi45LDIuMSwxNC42LDUuMywxNC42LDEzLjd2MC4yYzAsOS45LTcuNywxNC44LTE3LjQsMTQuOCYjMTA7JiM5O0MxMzYsNzMuMSwxMjkuNyw3MS4yLDEyNC40LDY3LjZ6Ii8+JiN4YTs8cGF0aCBjbGFzcz0ic3QwIiBkPSJNMTYzLjgsMjkuOWMtMC4xLTIuOSwyLjMtNS4zLDUuMi01LjRoMC4xYzMsMCw1LjQsMi40LDUuNCw1LjRsMCwwdjMuMmMzLjUtNC45LDguNC04LjgsMTYtOC44JiMxMDsmIzk7YzExLDAsMjEuOCw4LjcsMjEuOCwyNC40djAuMmMwLDE1LjYtMTAuNywyNC40LTIxLjgsMjQuNGMtNy44LDAtMTIuNy0zLjktMTYtOC4zdjE2LjZjMCwzLTIuNCw1LjQtNS40LDUuNGwwLDAmIzEwOyYjOTtjLTIuOSwwLTUuMy0yLjQtNS4zLTUuM3YtMC4xVjI5Ljl6IE0yMDEuNSw0OC45di0wLjJjMC05LjEtNi4xLTE1LTEzLjQtMTVzLTEzLjcsNi4xLTEzLjcsMTV2MC4yYzAsOSw2LjQsMTUsMTMuNywxNSYjMTA7JiM5O1MyMDEuNSw1OC4yLDIwMS41LDQ4Ljl6Ii8+JiN4YTs8cGF0aCBjbGFzcz0ic3QwIiBkPSJNMjE2LjUsMjkuOWMtMC4xLTIuOSwyLjMtNS4zLDUuMi01LjRoMC4xYzMsMCw1LjQsMi40LDUuNCw1LjRsMCwwdjIuNmMwLjUtNCw3LjEtOCwxMS44LTgmIzEwOyYjOTtjMi43LTAuMiw1LjEsMS44LDUuMyw0LjVjMCwwLjMsMCwwLjUsMCwwLjhjMCwyLjYtMS44LDQuOC00LjMsNS4yYy03LjcsMS4zLTEyLjksOC0xMi45LDE3LjN2MTUuNWMwLDMtMi40LDUuMy01LjQsNS4zJiMxMDsmIzk7Yy0yLjksMC01LjMtMi4zLTUuMy01LjJjMCwwLDAsMCwwLTAuMUwyMTYuNSwyOS45TDIxNi41LDI5Ljl6Ii8+JiN4YTs8cGF0aCBjbGFzcz0ic3QwIiBkPSJNMjQ4LjYsMzBjLTAuMS0yLjksMi4zLTUuMyw1LjItNS40aDAuMWMzLDAsNS40LDIuNCw1LjQsNS40bDAsMHYzNy45YzAsMy0yLjQsNS4zLTUuNCw1LjNzLTUuMy0yLjQtNS4zLTUuMyYjMTA7JiM5O0wyNDguNiwzMHoiLz4mI3hhOzxwYXRoIGNsYXNzPSJzdDAiIGQ9Ik0yNjQuOCwzMGMtMC4xLTIuOSwyLjMtNS4zLDUuMi01LjRoMC4xYzMsMCw1LjQsMi40LDUuNCw1LjRsMCwwdjIuMmMzLjItNSw4LjgtNy45LDE0LjctNy43JiMxMDsmIzk7YzEwLjYsMCwxNi43LDcuMSwxNi43LDE4djI1LjNjMC4xLDIuOS0yLjIsNS4yLTUuMSw1LjNjLTAuMSwwLTAuMSwwLTAuMiwwYy0yLjksMC4xLTUuMy0yLjMtNS40LTUuMnYtMC4xdi0yMiYjMTA7JiM5O2MwLTcuMy0zLjYtMTEuNS0xMC4xLTExLjVjLTYuMiwwLTEwLjYsNC40LTEwLjYsMTEuN3YyMS45YzAsMy0yLjQsNS40LTUuNCw1LjRzLTUuNC0yLjQtNS40LTUuNEwyNjQuOCwzMEwyNjQuOCwzMHoiLz4mI3hhOzxwYXRoIGNsYXNzPSJzdDAiIGQ9Ik0zNTQuMywyNC40Yy0zLDAtNS40LDIuNC01LjQsNS40bDAsMFYzM2MtMy41LTQuOS04LjQtOC44LTE2LTguOGMtMTEsMC0yMS44LDguNy0yMS44LDI0LjR2MC4yJiMxMDsmIzk7YzAsMTUuNiwxMC43LDI0LjQsMjEuOCwyNC40YzcuOCwwLDEyLjctMy45LDE2LTguMmMtMC41LDguNS01LjcsMTIuOS0xNC44LDEyLjljLTUsMC0xMC0xLjItMTQuNC0zLjdjLTAuNi0wLjMtMS4yLTAuNC0xLjktMC40JiMxMDsmIzk7Yy0yLjUsMC00LjUsMS45LTQuNiw0LjRjMCwxLjksMS4yLDMuNywzLDQuM2M1LjcsMi44LDExLjksNC4yLDE4LjIsNC4yYzguNSwwLDE1LjEtMiwxOS4zLTYuM2MzLjktMy45LDYtOS44LDYtMTcuN1YyOS45JiMxMDsmIzk7YzAuMS0zLTIuMy01LjQtNS4zLTUuNUMzNTQuNCwyNC40LDM1NC4zLDI0LjQsMzU0LjMsMjQuNHogTTMzNS40LDYzLjljLTcuNCwwLTEzLjQtNS44LTEzLjQtMTUuMXYtMC4yYzAtOS4xLDYuMS0xNSwxMy40LTE1JiMxMDsmIzk7czEzLjcsNi4xLDEzLjcsMTV2MC4yQzM0OS4yLDU3LjgsMzQyLjgsNjMuOSwzMzUuNCw2My45eiIvPiYjeGE7PHBhdGggY2xhc3M9InN0MCIgZD0iTTI1OS40LDExLjZjMCwzLTIuNCw1LjQtNS40LDUuNHMtNS40LTIuNC01LjQtNS40czIuNC01LjQsNS40LTUuNGwwLDBjMi45LTAuMSw1LjMsMi4zLDUuNCw1LjImIzEwOyYjOTtDMjU5LjQsMTEuNSwyNTkuNCwxMS41LDI1OS40LDExLjZ6Ii8+JiN4YTs8cGF0aCBjbGFzcz0ic3QwIiBkPSJNMzcyLDM1LjdjLTMsMC01LjUtMi41LTUuNS01LjVzMi41LTUuNSw1LjUtNS41czUuNSwyLjUsNS41LDUuNVMzNzUsMzUuNywzNzIsMzUuN3ogTTM3MiwyNS41JiMxMDsmIzk7Yy0yLjYsMC00LjcsMi4xLTQuNyw0LjdzMi4xLDQuNyw0LjcsNC43czQuNy0yLjEsNC43LTQuN3MtMi00LjctNC42LTQuN0gzNzJ6IE0zNzMuNSwzMy4zbC0xLjYtMi41aC0xLjF2Mi41aC0wLjlWMjdoMi42JiMxMDsmIzk7YzEuMS0wLjEsMiwwLjgsMi4xLDEuOWwwLDBjMCwwLjktMC43LDEuNy0xLjYsMS45bDEuNywyLjVIMzczLjV6IE0zNzIuNCwyNy44aC0xLjZWMzBoMS43YzAuNiwwLDEuMS0wLjUsMS4xLTEuMSYjMTA7JiM5O1MzNzMuMSwyNy44LDM3Mi40LDI3LjhMMzcyLjQsMjcuOHoiLz4mI3hhOzxwYXRoIGNsYXNzPSJzdDAiIGQ9Ik04NS42LDc5LjhDOTIuMiw3Miw5Ni4yLDYyLjIsOTYuOSw1MiIvPiYjeGE7PHBhdGggY2xhc3M9InN0MSIgZD0iTTg4LjIsNzBDNzYuMyw4NS45LDUwLjcsODAuNSwzNC40LDgxLjNjMCwwLTIuOSwwLjItNS44LDAuNmMwLDAsMS4xLTAuNSwyLjUtMWMxMS41LTQsMTYuOS00LjgsMjMuOS04LjQmIzEwOyYjOTtjMTMuMS02LjcsMjYuMi0yMS40LDI4LjgtMzYuNmMtNSwxNC42LTIwLjIsMjcuMi0zNCwzMi4zYy05LjUsMy41LTI2LjYsNi45LTI2LjYsNi45bC0wLjctMC40Yy0xMS42LTUuNy0xMi0zMC45LDkuMi0zOSYjMTA7JiM5O2M5LjMtMy42LDE4LjEtMS42LDI4LjItNEM3MC42LDI5LjIsODMsMjEuMiw4OCwxMC43QzkzLjYsMjcuNiwxMDAuNCw1My44LDg4LjIsNzB6Ii8+JiN4YTs8cGF0aCBjbGFzcz0ic3QxIiBkPSJNMjIuNiw4NC41Yy0xLjQsMS44LTQsMi01LjgsMC42cy0yLTQtMC42LTUuOHM0LTIsNS44LTAuNkMyMy43LDgwLjEsMjQsODIuNywyMi42LDg0LjV6Ii8+JiN4YTs8L3N2Zz4=;" vertex="1" parent="1">
          <mxGeometry x="358.72" y="1166" width="132.12" height="34" as="geometry" />
        </mxCell>
        <mxCell id="ij2_FURvqXdRc3KbHj5h-50" value="" style="rounded=0;whiteSpace=wrap;html=1;dashed=1;" vertex="1" parent="1">
          <mxGeometry x="360.84" y="870" width="130" height="280" as="geometry" />
        </mxCell>
        <mxCell id="ij2_FURvqXdRc3KbHj5h-53" value="" style="group" vertex="1" connectable="0" parent="1">
          <mxGeometry x="387" y="980" width="70" height="70" as="geometry" />
        </mxCell>
        <mxCell id="ij2_FURvqXdRc3KbHj5h-41" value="" style="verticalLabelPosition=bottom;html=1;verticalAlign=top;align=center;strokeColor=none;fillColor=#00BEF2;shape=mxgraph.azure.cloud_service_package_file;dashed=1;" vertex="1" parent="ij2_FURvqXdRc3KbHj5h-53">
          <mxGeometry x="13" width="42.5" height="50" as="geometry" />
        </mxCell>
        <mxCell id="ij2_FURvqXdRc3KbHj5h-45" value="Gateway2" style="text;html=1;align=center;verticalAlign=middle;resizable=0;points=[];autosize=1;strokeColor=none;" vertex="1" parent="ij2_FURvqXdRc3KbHj5h-53">
          <mxGeometry y="50" width="70" height="20" as="geometry" />
        </mxCell>
        <mxCell id="ij2_FURvqXdRc3KbHj5h-54" value="" style="group" vertex="1" connectable="0" parent="1">
          <mxGeometry x="388" y="890" width="70" height="70" as="geometry" />
        </mxCell>
        <mxCell id="ij2_FURvqXdRc3KbHj5h-40" value="" style="verticalLabelPosition=bottom;html=1;verticalAlign=top;align=center;strokeColor=none;fillColor=#00BEF2;shape=mxgraph.azure.cloud_service_package_file;dashed=1;" vertex="1" parent="ij2_FURvqXdRc3KbHj5h-54">
          <mxGeometry x="13" width="42.5" height="50" as="geometry" />
        </mxCell>
        <mxCell id="ij2_FURvqXdRc3KbHj5h-44" value="Gateway1" style="text;html=1;align=center;verticalAlign=middle;resizable=0;points=[];autosize=1;strokeColor=none;" vertex="1" parent="ij2_FURvqXdRc3KbHj5h-54">
          <mxGeometry y="50" width="70" height="20" as="geometry" />
        </mxCell>
        <mxCell id="ij2_FURvqXdRc3KbHj5h-55" value="" style="group" vertex="1" connectable="0" parent="1">
          <mxGeometry x="387" y="1070" width="70" height="70" as="geometry" />
        </mxCell>
        <mxCell id="ij2_FURvqXdRc3KbHj5h-42" value="" style="verticalLabelPosition=bottom;html=1;verticalAlign=top;align=center;strokeColor=none;fillColor=#00BEF2;shape=mxgraph.azure.cloud_service_package_file;dashed=1;" vertex="1" parent="ij2_FURvqXdRc3KbHj5h-55">
          <mxGeometry x="14" width="42.5" height="50" as="geometry" />
        </mxCell>
        <mxCell id="ij2_FURvqXdRc3KbHj5h-43" value="Gateway3" style="text;html=1;align=center;verticalAlign=middle;resizable=0;points=[];autosize=1;strokeColor=none;" vertex="1" parent="ij2_FURvqXdRc3KbHj5h-55">
          <mxGeometry y="50" width="70" height="20" as="geometry" />
        </mxCell>
        <mxCell id="ij2_FURvqXdRc3KbHj5h-57" value="" style="shape=image;verticalLabelPosition=bottom;labelBackgroundColor=#ffffff;verticalAlign=top;aspect=fixed;imageAspect=0;image=data:image/png,iVBORw0KGgoAAAANSUhEUgAAAjYAAAJUCAYAAAAGimxkAAAMa2lDQ1BJQ0MgUHJvZmlsZQAASImVVwdYU8kWnluSkJDQAhGQEnoTpFcpIbQIAlIFGyEJJJQYE4KKDVFRwbWLKFZ0VUTRtQCyqIi9LIq9LxYUlHVRF0VReRMS0HVf+d75vrnz3zNn/lMykzsDgGYvVyLJQbUAyBXnSePCg5njUlKZpHZAAGRAAp7AksuTSVixsVEAymD/d3l/CyCK/rqjguuf4/9VdPgCGQ8AZALE6XwZLxfiJgDwjTyJNA8AokJvMS1PosCFEOtKYYAQr1HgTCXercDpStw4YJMQx4b4KgBqVC5XmgmAxgOoZ+bzMiGPxmeIncV8kRgAzREQB/CEXD7EithH5OZOUeByiG2hvQRiGA/wTv+OM/Nv/OlD/Fxu5hBW5jUgaiEimSSHO+P/LM3/ltwc+aAPa9ioQmlEnCJ/WMM72VMiFZgKcZc4PTpGUWuIe0V8Zd0BQClCeUSi0h414snYsH6AAbEznxsSCbERxGHinOgolT49QxTGgRiuFnS6KI+TALE+xIsFstB4lc1W6ZQ4lS+0NkPKZqn057nSAb8KX4/k2YksFf9boYCj4sc0CoQJyRBTILbMFyVFQ6wBsZMsOz5SZTOqQMiOHrSRyuMU8VtCHCcQhwcr+bH8DGlYnMq+JFc2mC+2VSjiRKvwwTxhQoSyPthpHncgfpgLdlUgZiUO8ghk46IGc+ELQkKVuWMdAnFivIqnV5IXHKeci1MkObEqe9xckBOu0JtD7C7Lj1fNxZPy4OJU8uMZkrzYBGWceEEWd3SsMh58BYgCbBACmEAOWzqYArKAqKWrrgu+KUfCABdIQSYQAEeVZnBG8sCIGD7jQQH4AyIBkA3NCx4YFYB8qP8ypFU+HUHGwGj+wIxs8BziXBAJcuC7fGCWeMhbEngGNaJ/eOfCxoPx5sCmGP/3+kHtNw0LaqJUGvmgR6bmoCUxlBhCjCCGEe1wQzwA98Oj4DMINlfcG/cZzOObPeE5oZXwhHCT0Ea4O1lUJP0hyjGgDfKHqWqR/n0tcGvI6YEH4/6QHTLjDNwQOOLu0A8LD4SePaCWrYpbURXmD9x/y+C7X0NlR3Ymo+Rh5CCy7Y8zNew1PIZYFLX+vj7KWNOH6s0eGvnRP/u76vNhH/mjJbYYO4Sdw05iF7BGrA4wsRNYPXYZO6bAQ6vr2cDqGvQWNxBPNuQR/cMfV+VTUUmZc7Vzp/Nn5VieYHqeYuOxp0hmSEWZwjwmC34dBEyOmOc0gunq7OoCgOJbo/z7escY+IYgjIvfdEUPAfBP6e/vb/ymi4L793AH3P5d33Q21QDQjgNwfiFPLs1X6nDFgwD/JTThTjMAJsAC2MJ8XOEXzQ8EgVAwGsSABJACJsEqC+E6l4JpYBaYB4pBKVgB1oINYAvYDnaDfeAgqAON4CQ4Cy6Bq+AmuA9XTzt4BbrBe9CHIAgJoSF0xAAxRawQB8QV8UYCkFAkColDUpA0JBMRI3JkFjIfKUVWIRuQbUgV8gtyFDmJXEBakbvIY6QTeYt8QjGUiuqixqg1OhL1RlloJJqATkQz0aloAboAXYaWo5XoXrQWPYleQm+ibegrtAcDmDrGwMwwR8wbY2MxWCqWgUmxOVgJVoZVYjVYA/ydr2NtWBf2ESfidJyJO8IVHIEn4jx8Kj4HX4pvwHfjtfhp/Dr+GO/GvxJoBCOCA8GXwCGMI2QSphGKCWWEnYQjhDNwL7UT3hOJRAbRhugF92IKMYs4k7iUuIm4n9hEbCU+JfaQSCQDkgPJnxRD4pLySMWk9aS9pBOka6R2Uq+aupqpmqtamFqqmlitSK1MbY/acbVrai/U+shaZCuyLzmGzCfPIC8n7yA3kK+Q28l9FG2KDcWfkkDJosyjlFNqKGcoDyjv1NXVzdV91Meqi9QL1cvVD6ifV3+s/pGqQ7WnsqkTqHLqMuouahP1LvUdjUazpgXRUml5tGW0Ktop2iNarwZdw0mDo8HXmKtRoVGrcU3jtSZZ00qTpTlJs0CzTPOQ5hXNLi2ylrUWW4urNUerQuuo1m2tHm26tot2jHau9lLtPdoXtDt0SDrWOqE6fJ0FOtt1Tuk8pWN0CzqbzqPPp++gn6G36xJ1bXQ5ulm6pbr7dFt0u/V09Nz1kvSm61XoHdNrY2AMawaHkcNYzjjIuMX4NMx4GGuYYNiSYTXDrg37oD9cP0hfoF+iv1//pv4nA6ZBqEG2wUqDOoOHhrihveFYw2mGmw3PGHYN1x3uN5w3vGT4weH3jFAje6M4o5lG240uG/UYmxiHG0uM1xufMu4yYZgEmWSZrDE5btJpSjcNMBWZrjE9YfqSqcdkMXOY5czTzG4zI7MIM7nZNrMWsz5zG/NE8yLz/eYPLSgW3hYZFmssmi26LU0tx1jOsqy2vGdFtvK2Elqtszpn9cHaxjrZepF1nXWHjb4Nx6bAptrmgS3NNtB2qm2l7Q07op23XbbdJrur9qi9h73QvsL+igPq4Okgctjk0DqCMMJnhHhE5YjbjlRHlmO+Y7XjYyeGU5RTkVOd0+uRliNTR64ceW7kV2cP5xznHc73XXRcRrsUuTS4vHW1d+W5VrjecKO5hbnNdat3e+Pu4C5w3+x+x4PuMcZjkUezxxdPL0+pZ41np5elV5rXRq/b3rresd5Lvc/7EHyCfeb6NPp89PX0zfM96Punn6Nftt8ev45RNqMEo3aMeupv7s/13+bfFsAMSAvYGtAWaBbIDawMfBJkEcQP2hn0gmXHymLtZb0Odg6WBh8J/sD2Zc9mN4VgIeEhJSEtoTqhiaEbQh+FmYdlhlWHdYd7hM8Mb4ogRERGrIy4zTHm8DhVnO7RXqNnjz4dSY2Mj9wQ+STKPkoa1TAGHTN6zOoxD6KtosXRdTEghhOzOuZhrE3s1NhfxxLHxo6tGPs8ziVuVty5eHr85Pg98e8TghOWJ9xPtE2UJzYnaSZNSKpK+pAckrwquW3cyHGzx11KMUwRpdSnklKTUnem9owPHb92fPsEjwnFE25NtJk4feKFSYaTciYdm6w5mTv5UBohLTltT9pnbgy3ktuTzknfmN7NY/PW8V7xg/hr+J0Cf8EqwYsM/4xVGR2Z/pmrMzuFgcIyYZeILdogepMVkbUl60N2TPau7P6c5Jz9uWq5ablHxTribPHpKSZTpk9plThIiiVtU32nrp3aLY2U7pQhsomy+jxdeKi/LLeVL5Q/zg/Ir8jvnZY07dB07eni6Zdn2M9YMuNFQVjBzzPxmbyZzbPMZs2b9Xg2a/a2Ocic9DnNcy3mLpjbXhheuHseZV72vN+KnItWFf01P3l+wwLjBYULni4MX1hdrFEsLb69yG/RlsX4YtHiliVuS9Yv+VrCL7lY6lxaVvp5KW/pxZ9cfir/qX9ZxrKW5Z7LN68grhCvuLUycOXuVdqrClY9XT1mde0a5pqSNX+tnbz2Qpl72ZZ1lHXydW3lUeX16y3Xr1j/eYNww82K4Ir9G402Ltn4YRN/07XNQZtrthhvKd3yaato651t4dtqK60ry7YTt+dvf74jace5n71/rtppuLN055dd4l1tu+N2n67yqqraY7RneTVaLa/u3Dth79V9Ifvqaxxrtu1n7C89AA7ID7z8Je2XWwcjDzYf8j5Uc9jq8MYj9CMltUjtjNruOmFdW31KfevR0UebG/wajvzq9OuuRrPGimN6x5YfpxxfcLz/RMGJniZJU9fJzJNPmyc33z817tSN02NPt5yJPHP+bNjZU+dY506c9z/feMH3wtGL3hfrLnleqr3scfnIbx6/HWnxbKm94nWl/qrP1YbWUa3HrwVeO3k95PrZG5wbl25G32y9lXjrzu0Jt9vu8O903M25++Ze/r2++4UPCA9KHmo9LHtk9Kjyd7vf97d5th17HPL48pP4J/ef8p6+eiZ79rl9wXPa87IXpi+qOlw7GjvDOq++HP+y/ZXkVV9X8R/af2x8bfv68J9Bf17uHtfd/kb6pv/t0ncG73b95f5Xc09sz6P3ue/7PpT0GvTu/uj98dyn5E8v+qZ9Jn0u/2L3peFr5NcH/bn9/RKulDtwFMBgQzMyAHi7C54TUgCgw3sbZbzyLjggiPL+OoDAf8LK++KAeAJQAzvFMZ7dBMAB2KwLITd8VxzhE4IA6uY21FQiy3BzVXJR4U2I0Nvf/84YAFIDAF+k/f19m/r7v+yAwd4FoGmq8g6qECK8M2wNUqCb+vxC8IMo76ff5fhjDxQRuIMf+38BfYqQMrgid5gAAABsZVhJZk1NACoAAAAIAAQBGgAFAAAAAQAAAD4BGwAFAAAAAQAAAEYBKAADAAAAAQACAACHaQAEAAAAAQAAAE4AAAAAAAAAkAAAAAEAAACQAAAAAQACoAIABAAAAAEAAAI2oAMABAAAAAEAAAJUAAAAADKHKQcAAAAJcEhZcwAAFiUAABYlAUlSJPAAAEAASURBVHgB7J0HfBzV8cdHp957s6zm3ovcjY2NbTC9QwgkkAQIgdDSSEiDVP5JSEhoCSQk9N57MWDcey+y5SJLltV77/83Z8uWLJ1u92537+3u7/mjz93tzntv5vvW0twrM37dohAKCIAACIAACIAACFiAgMMCNsAEEAABEAABEAABEHASgGODBwEEQAAEQAAEQMAyBODYWGYoYQgIgAAIgAAIgAAcGzwDIAACIAACIAACliEAx8YyQwlDQAAEQAAEQAAE4NjgGQABEAABEAABELAMATg2lhlKGAICIAACIAACIADHBs8ACIAACIAACICAZQjAsbHMUMIQEAABEAABEAABODZ4BkAABEAABEAABCxDAI6NZYYShoAACIAACIAACMCxwTMAAiAAAiAAAiBgGQJwbCwzlDAEBEAABEAABEAAjg2eARAAARAAARAAAcsQgGNjmaGEISAAAiAAAiAAAnBs8AyAAAiAAAiAAAhYhgAcG8sMJQwBARAAARAAARCAY4NnAARAAARAAARAwDIE4NhYZihhCAiAAAiAAAiAABwbPAMgAAIgAAIgAAKWIQDHxjJDCUNAAARAAARAAATg2OAZAAEQAAEQAAEQsAwBODaWGUoYAgIgAAIgAAIgAMcGzwAIgAAIgAAIgIBlCMCxscxQwhAQAAEQAAEQAAE4NngGQAAEQAAEQAAELEMAjo1lhhKGgAAIgAAIgAAIwLHBMwACIAACIAACIGAZAnBsLDOUMAQEQAAEQAAEQACODZ4BEAABEAABEAAByxCAY2OZoYQhIAACIAACIAACAUAAAiBgfgLd3d3U0dVGHZ3tztf2TvH+xOfe749f43vt5LzulOP3rc5rHeLzcfl28hNYAvyDKFD8BDj4J9D5+dS1QHEvuM91lumRd7721PUXdcU9FBAAARDQmwAcG70Jo30Q8JIAOxr1LZVU21xJdeK1jl97va9trqDGtlpi50bm4u8IoIjgWIoKjaPIkDiKEj89r1GhCRQtfqJC4+EAyTyI0A0ETEDAT/wylPu3oQkgQkUQ8IZAa0cz1TaVU3VTGdU0l4v3Zc73teJ9jbje2CqcFvHPDsVPzBNFhMRQTGgixYQlOX9iT7zy52hxnWeCUEAABEDAFQE4Nq7I4DoIaEiAZ12qG0uoovEYVTac+uHP7LigKCPAjk+kmPFJCB9C8REnfsJTne9jw5KJZ4VQQAAE7E0Ajo29xx/W60CAl4lK6vKppPbwidd8qhQODCZHdYDdq0mHn7/TwUmJyqTkXj/RYYnCHeIdQyggAAJ2IADHxg6jDBt1I1DfUkVFNQfpWM0B8XpAvB7EDIxutD1rODQwgtJiR1BajPiJHeV8jQyJ9awx1AIBEJCeABwb6YcICspCoK2zxem4HK3Oo6NV++ho9X6xmbdKFvWghwoCvFcnPW4UDRWODv8MiRmOTcsq+EEUBGQmAMdG5tGBbj4lwCeQCipzqaCKf/aKpaV86uru9KlO6FwfArw3h52bjLix4meM8zU8OEqfztAqCICArgTg2OiKF42biQCfQMqv3EX5FbvpsHitbiw1k/rQVUMCvCcnITKNsuLHU1bCBOcrlq80BIymQEBHAnBsdISLpuUm0NzWQIcqdtCh8h10oHwbHBm5h8vn2iVGDqVhCZNoWOIkyhbOTkhguM91ggIgAAL9CcCx6c8EVyxKgGPBlNQcpv1lm2l/6WYqEntlurq7LGotzNKTAJ/AGho7kkYm59DIpBxKjR5Gfn44eaUnc7QNAkoJwLFRSgpypiTA8WN4RmZf6UbaV7JJRPDFZl9TDqTkSkcEx9DolBk0RvwMS5yMIIKSjxfUszYBODbWHl9bWtfUVud0YnJLNtCBsm3OPEi2BAGjfUIgyD+ERiRNobGps2hUynTi4+YoIAACxhGAY2Mca/SkIwGeidlTvJ72HlsrNgDvweklHVmjaeUE/B3+Yj/ORBqXOsfp6IQHRyuvDEkQAAGPCMCx8QgbKslAgJ2Z3cKR2V20mgqqcxHZV4ZBgQ4uCTj8HM7TVRPSzhBOzhzCcXKXqHADBLwiAMfGK3yobDSBprZ62nNsDe0sWiVmZnbDmTF6ANCfJgR48zGfrpqYNk84ObPFCaswTdpFIyAAAkRwbPAUSE+go6td7JnZSNsLv6I8caKpswtB8qQfNCiomECAyFY+Onk6TU5f4DxhhUSeitFBEAQGJADHZkAsuCgDgUKRsmBbwRfO2ZmW9kYZVIIOIKArgbCgSDGLM5+mZJzlzGmla2doHAQsSgCOjUUH1qxm8YmmbYXLafORZVReX2hWM6A3CHhNgDOU52Qsds7khAUhvYPXQNGAbQjAsbHNUMttaKFIKrn+8Idi/8xa4qUnFBAAgeMEAhyBNHbIbJqeeY5I7zBeJHtAIEA8GyAwGAE4NoPRwT1dCXDwvF1FK2n9oQ/pWO0hXftC4yBgBQKc1mFm9nk0JX0hBQdgw7EVxhQ2aE8Ajo32TNGiGwK1zRW08fDHtOnIZ8RLTyggAALqCAQHhDqXqWYNu4DiwlPUVYY0CFicABwbiw+wTObxZuC1B99zLjd1deNkk0xjA13MSYBj44xOmUlzh19MmfFjzWkEtAYBjQnAsdEYKJrrS4CTTO4tXkdrDrxD7NiggAAI6EOAk3KeMeJSZ1wcdnhQQMCuBODY2HXkdba7raOFthR87pyhqW4q1bk3NA8CINBDIDY8WczgXCKWqhaJZJzBPZfxCgK2IQDHxjZDbYyhja21tO7QB7Qh/yNqbmswplP0AgIg0I8AHxGfLfbgzMo+n0KDkIizHyBcsCwBODaWHVpjDeNZmdViuWmrmKXh004oIAACchAICgihGVlLnftwIkPi5FAKWoCAjgTg2OgI1w5Nl9cfpRV5b9DOoyuRUdsOAw4bTUuA4+FMFctT80deTjFhSaa1A4qDgDsCcGzcEcL9AQmU1ObTV/tfoz3Fa5GIckBCuAgCchLwd/jT5KEL6cxRV4ij4qlyKgmtQMALAnBsvIBnx6rFIpDe8n2vUm7xBuoW/1BAAATMSYAzjE8aeiYtGH0VxcPBMecgQusBCcCxGRALLp5OoLQun77IfUU4NOvh0JwOB59BwMQE2MHhzOILR11NfKIKBQTMTgCOjdlHUGf9KxqKhEPzMu0+thpLTjqzRvMg4EsCvESVk7GEFoy6iqJC432pCvoGAa8IwLHxCp91K3Pag+X7XhGnnL7EpmDrDjMsA4F+BAL8g2hm1rnOPTjIKt4Pj+4Xcks20BgRTRrFcwJwbDxnZ8maHHuGTzlxpu0OHNu25BjDKBBQQoCTbM4beSnNGX4RBfmHKKkCGS8JFNccotc2/43uXPyoly3Zu3qAvc2H9T0EOrranVm2V+x/nZrbEVivhwteQcCuBFo7mujzvS/ShsMf0Vmjr6GczMXE+3FQ9CPAgU15+b+07gglR2Xq15HFW8aMjcUH2J15fLJpz7G19OmeZ6m6EakP3PHCfRCwK4HEyHRaOv4GGpU8za4IdLWbZ8sf/PQmEeC0lRaOvpoWjfm6rv1ZuXE4NlYeXTe28dHtj3b+l/Ird7uRxG0QAAEQOE5gRNIUOnfCtykpMgNINCSw6sDb9OnuZ5wtMtvbF/1Dw9bt1RQcG3uNt9PaprZ6McX8Am0+8pnYGNxlQwIwGQRAwBsCvCTFaRp4VgF5qLwhebxuV3cn/X3ZrVTTVH6ysTsWPUKJkUNPfsYb5QSwx0Y5K9NLdnd3i4zby+izPc8ROzcoIAACIOAJAf5DzAcMdhatoiVjr6NpmWeTn5+fJ02hjiCwV8QH6+3UMBSO6r4g8irw8YAAZmw8gGbGKpwC4b3t/6TC6v1mVB86gwAISEwgLWYEXTj5FuJXFPUEnlzxUzp62u/mlOhsum3h39Q3hhqEGRuLPwScaZvj0XDmbf6WhQICIAACWhMoqjlAT664xxn/ZvHYb1BIYJjWXVi2vSOVe/o5NWxsSe1hqmosEfm8Uixru16GOfRqGO36nsDhil302Jd308q8N+HU+H44oAEIWJoAL3WvF0fDH/nidhGpfI2lbdXSON407KrwiVUU9QTg2KhnJn2Nto4W+mDHk/T06l8Lj79Yen2hIAiAgHUI1LdU0ysb/0IvbniA6luqrGOYDpaU1RXQ/pJNLlveU7zO5T3ccE0AS1Gu2ZjyzuGKnfT21seougkxaUw5gFAaBCxCILd4A+VX7KbzxNHwqRmLLWKVtmZwlHeOJeaqFFXnEae3iQ5NcCWC6wMQwIzNAFDMeIlnad53ztLcB6fGjAMInUHAggRa2hvpra2P0vPrfo/Zm9PGl/fP7CpafdrVvh/Z6eETUyjqCMCxUcdLSmkOsPfY8rudoc8H8/6lVB5KgQAIWJ7A/tLN9OiXd7n9Q255EL0MXClma5Qc6MA+m17QFL7FUpRCUDKKcX4nDrS35uC7xBv3UEAABEBAVgKcMuDVTQ/SvtKNdMHE79r65BRvFdhW+KWioSqo2kuNrbUUHhytSB5CRJixMelTwOkQ/rX8x85j3HBqTDqIUBsEbEhge+FX9PjyH9g6lcuK/W9QZ5ey8BscHT63ZIMNnxTPTYZj4zk7n9Tkh5yPb3NAp7L6Ap/ogE5BAARAwBsCNU1lzlOby8SMs9I/8N70J1Nd3luzrfALVSrhdJQqXAjQpw6Xb6U55PabW/5h6286vh0B9A4CIKAVAf6StmL/63SwbBtdNf2HIhBdqlZNS90OB0xV68wdLt9JLe1Ntl6+UzOomLFRQ8uHspyTxe7Ttz7Ej65BAAR0IsBRi/+5/EdiFmO5Tj3I02x5fSHtOLpCtUK8nzJPbMBGUUYAjo0yTj6T4mPcb255mF7b9FfhsTf6TA90DAIgAAJ6EWjtaHbORr+++SHi91Yty/a+KE5CdXlkHpajlGPDqSjlrAyXLK45RK9u/itVNhwzvG90CAIgAAJGE+DZjKKaPLp62o8pNWaY0d3r2l9h1T7K9SImTV7ZFuKZmwBHoK56WqFxzNhIOIoci2bdoQ/o3yt/BqdGwvGBSiAAAvoRqGwodv7uW3/4Q/068UHLn+55dtAow+5U4tl73o+E4p4AHBv3jAyVaG5voJc3/Jk+3Pkfp3duaOfoDARAAAQkIMAzEx/s+De9vPHPzk2zEqjklQp8XJuzeHtbEIVYGUEsRSnjZIgUb6J7deODSIlgCG10AgIgIDsBjrpbUptP18z4CaVEZ8uu7oD68QmoT3c/O+A9tRc5uCHv0XH4YU5iMHagMxgdA+9tOPwRPbXy53BqDGSOrkAABOQnUNV4fGlqy5Fl8is7gIYb8z+mioaiAe6ov9TYWkcciRhlcAJwbAbno/vdts4W4pMAnMCSp19RQAAEQAAE+hJo72yjt7c9Ru+IHzP9nuQ0Ehy3RsvCWdNRBicAx2ZwPrredX4TWfEzj+Ia6KoYGgcBEAABCQlsFrM2/1l5L3GwUjOUL/e9TE1t9Zqqin027nHCsXHPSBcJznb7r69+QqV1R3RpH42CAAiAgBUJHKs5KH53/pgOle+Q2ryyugLacPhjRTo6HMr/FHMCTd53hOKagHKartvAHRUE+Cj3V/tfoxfW/wEB91RwgygIgAAI9BBoaqujZ9f+ltYcfLfnknSvH4iTrV3dyhJd3jjvj6r0R1LMwXHBsRmcj6Z3eT8Nn3r6XESfREZuTdGiMRAAAZsRYKfh413/ozdE/jzZ9t3sEilwDlfsVDQiE9PmU3rsaBqZPE2RPAt5E+hPcScmFoRjY9Dg8Zowrw3vPrbGoB7RDQiAAAhYn8B2kWPqv6t+QfUtVVIYyykh2OFSWpZO+JZT9IwRlyitQsW1h6m22Rz7jBQbpaEgHBsNYbpqqqAql55ccQ/WRV0BwnUQAAEQ8ILA0eo8ekLsWeT9N74uX+a+THUKnawJaXMpKiTOqXJG3BjFqvOWhtySjYrl7SYIx0bnEefcJ0+vuY8aWmt07gnNgwAIgIB9CbAz8ZSYufHlrDhv6uV0OErL+RNvPinKOaBGJuWc/OzuDY59uyYEx8Y1G6/usEf9pYhf8Mbmv1OHiMGAAgIgAAIgoC+B9s5WenXTg7Qi7w19Oxqgdd43+e72fyreMJyTsYQigmP6tDR3xMV9Pg/2Ib9yFw6guAAEx8YFGG8ud3Z10FtbHiaekmQHBwUEQAAEQMAYAuxgLNvzPL299VHidAZGlQ35H9HR6v2Kuzv3xN6a3hUy4sb2/jjoe7Ytr3TLoDJ2vQnHRuORb2lvoufW/Y62iQ1tKCAAAiAAAr4hsKXgc3pe/C5u7WjSXYHa5grhTL2guJ+zRn+NQgLD+8kH+gfRsMRJ/a67uoBj3wOTgWMzMBePrta1VDrXeGUPHOWRcagEAiAAAiYjcLB8uziN+guxmbdSV83f3/GEYgcqwBFA80dd4VIfNaej8sq2GDor5VJpyW7AsdFoQDjJGR/nLq3L16hFNAMCIAACIOAtAf6d/O8V91J5faG3TQ1Ynw+I7CvZNOC9gS5eOvUO4o3Crkpm/HhXt/pd5xUC3muD0pcAHJu+PDz6VFRzQDg1PzdN/hKPjEQlEAABEDApAY758p9VPxeZsXM1taCxtZY+3PmU4jZjwhKJA/INVoL8g50B+waT6X1vH45998bhfA/Hph8SdRcOieiST6/+tUh0VqeuIqRBAARAAAQMI8CZtp9Zcz9xnj6tyvs7nlT1u//rM+8lPz8/t93PG3mZW5keAcSz6SFx6hWOzSkWqt/xA/X8ut+LtdVm1XVRAQRAAARAwFgCfBz8pQ0PEC8feVs4bYKamDljU2dRanS2om6HJUxUJMdCNU1l2AJxGi04NqcBUfqRH+pXNv4JMWqUAoMcCIAACEhAgI9Jv7Hl7yLz9kcea8MBV3m2RmlxkIMum3qnUnEKDgyj5MgMxfK5Kvb4KG7UxIJwbDwYPD7K/frmh7Ab3QN2qAICIAACvibAsW7YMVmV95ZHqryz7TGxBFWvuO5FU24Vx7vDFMuz4LxRlyuWxz6bvqjg2PTl4fYTx0Z4a+vDIrpkl1tZCIAACIAACMhL4NM9zzoDqarRcPORz1SdgoqPSKOczMVqunDKjkyaqrhOUU0e0vb0ogXHphcMd2/5gWZPnb19FBAAARAAAfMT4NQ3n+15TpEhVY0l9NGu/yqS7RG6fvavyE/8U1vCgqIoOjRBUTX+m6TlpmhFnUosBMdG4eBsyv+U3t32Tzg1CnlBDARAAATMQmBl3pv06e5nBlW3q/v43py2jpZB5XrfXDDqKooNT+59SdX7+SOxHKUK2AlhODYKqLFT8972fyHvkwJWEAEBEAABMxJYdeDtQZ2br/a9RoVV+xSbFhUST2eNuUax/ECCY1JmDnR5wGscZbmjq33Ae3a7CMfGzYjz8tN7O+DUuMGE2yAAAiBgegLs3Ay0LHWkci99tf81VfbdMPd+cvh59yc2KjR+wJxSAynCM0mHKxCFmNl4R30guha6trXgC2caeuypsdCgwhQQAAEQGIQAL0t9mfvySYnm9gZxPPwhVQdGzhx1JSVGDj3Zhjdv5gy7SHH1/YhC7GQFx8bFI8MBnLBR2AUcXAYBEAABCxPgDcU8e8PlnW2Pq0qXExeeQovHfF0zOhOHzlPc1j4Noyor7lRCwQAJdfK5SnuOraU3t+BIt88HAgqAAAiAgI8IfLb7WZFbai/lFm9QpcG3z/idSJug3ZxBfHgqORwO6upyH2KEoxCX1RVQUlSGKp2tJqwdfYuQ4SNzr23+m5h27LSIRTADBEAABEBALYFucVxErVNz8eRbFR/RVqoPO0k5Gcrj4OwrVZ5pXKkOZpODY9NrxHjj1Ssb/ywiCnf0uoq3IAACIAACIDA4gWyR32l61tmDC3l4NydjieKa+5FeAZuHe56Wo9V59OL6P1J7Z1vPJbyCAAiAAAiAgFsCgf5BdN2snws59YH43DYuBJQmz+S2Cqv3EWcyt3PBjI0Y/bL6ApGl+3fI0m3n/wmwHQRAAAQ8JPCdeX+goIAQD2u7r+bvCKThSZPdCwoJTveTV7ZFkaxVhWzv2PBmq2fX/EZVQjOrPgywCwRAAARAQB2BRWOvpbSYEeoqeSA9O/sCxbXsnl7B1o5NY2sdPbP2N1TXUqX4gYEgCIAACIAACDCBjPixtEDErDGiZMaPU9zNgbKtquLuKG7YJIK2dWw4SiMvP1U2HDPJUEFNEAABEAABWQgEB4TR9XPu8yjBpSc2hASGE8fIUVKa2urpaPV+JaKWlLGlY9PZ1Ukvi9NPRTUHLDmoMAoEQAAEQEBfAt89808U5B+sbyentT53+MWnXXH90c7LUbZzbDg2wTvbHiWeqkMBARAAARAAAbUELs+5U7OUCWr6Hp0yQ7E4HBvFqMwv+MXeF2lb4XLzGwILQAAEQAAEDCfAMWWmpJ9leL/cISfF5KPlSkppbb7YP1qpRNRyMraaseFM3V/tf91ygwiDQAAEQAAE9CeQGj2MLplyq/4duejBT+zomZF1rou7fS/z6sSBUnuuTNjGseGlp/e2P9F35PEJBEAABEAABBQQ4M27N4p4NVrmgVLQbT+RSUPP7HfN1QW7LkfZwrHhpGCvbHwQ+Z9cPf24DgIgAAIg4JKAQwTpv23h33QNwuey89NuJEdlnnbF9ceD5TtEiiD75T20vGPT0FpDz6//vYgq3OR69HEHBEAABEAABFwQuH7ufRQTluTirrGX/R0BNCxxkqJO+e9eQdUeRbJWErK0Y9PR1U4vrX+AaprKrTRmsAUEQAAEQMAgAudNvFGxI2GQSjQr+zzFXeWV2i+9gmUdG9449fbWR0VCMPsGKVL85EMQBEAABECgH4EZWUtpzrAL+1339YXM+PGKVcizYWgTyzo2q/Leoh1HVygefAiCAAiAAAiAQA8BTjp54eRbej5K9RoWFEkRITGKdCqtO0J1zfY69m1Jx2ZfySZatvd5RYMOIRAAARAAARDoTSAxMp2+OetXhqVL6N230vezhylPimm3bN+Wc2wqGorojS0PUXd3t9LnA3IgAAIgAAIg4CQQHhRNtyz4Czkc/lITGZsyS7F+dttnYynHhneAv7j+/6ilHSegFD/xEAQBEAABEHAS4Ki+ty962PAcUJ7gj49IU1ztUIW9jn1bxrHhzcJvbnmYKhqOKh5sCIIACIAACIAAE3A4HE6nJjw4yhRAHH4OGpuqbNaGv+wXVueawi4tlLSMY7My703aW7xeCyZoAwRAAARAwGYEvnfmXyk2LNlUVk/LPFuxvnZKr2AJx+ZQxU7i5JYoIAACIAACIKCWwE3z/0gp0Vlqq/lcPj1utGIdOK2QXYrpHZv6lip6bdNfRbqELruMGewEARAAARDQiMD1c+6jjLixGrVmbDOhgRGKj30X1x4mjsRvh2Jqx6aru5NeFU5NY2utHcYKNoIACIAACGhI4NqZ99KIpCkatmh8U7OylR375n2oB8u2Ga+gD3o0tWPzxd6X6Eil/fJg+OA5QZcgAAIgYCkC18z4KY1JnWl6m8aqsMEuUYhN69gcEJ7nygNvmv6hhAEgAAIgAALGEmCnZtyQ2cZ2qlNvCSqOfR8s326LGG+mdGx4nfDNLf+wxQDp9H8BzYIACICALQlcO+teyzg1PIAOP3/i9A9KCm/bKBF7baxeTOfY9MSrscsmKKs/gLAPBEAABIwiwBuFx6SYf/npdF7TM845/ZLLz3nl1j8dZTrHZu3B98hOx9ZcPp24AQIgAAIgoJjAjeJIt9k3CrsyNjNhnKtb/a4fLNve75rVLpjKsSmpzadle5Dc0moPIewBARAAAb0IOMhBty18iDJNeqRbCZeI4BgKCghRIkoFVXuprbNFkaxZhUzj2HR0tdPrIrklv6KAAAiAAAiAgDsCAY4gunPJY6YMvufOttPvK41C3NnVQfkVu0+vbqnPpnFsPt/7ApXVFVgKPowBARAAARDQh0BoUAT98JwnKC48RZ8OJGt1/JC5ijXi01FWLgFmMI5j1aw5+K4ZVIWOIAACIAACPibAOZ9uO+tvFBwQ5mNNjOs+JTpbcWdW32cj/YxNW0cLvbX1ERztVvzIQhAEQAAE7EtgaOwoumPxI7Zyani0g/yDKT48VdHAl9cXEqcjsmqR3rH5dM+zVNVYYlX+sAsEQAAEQEAjAhPS5tLN8x+gAEegRi2aq5kZ2ecqUpjDphwq36FI1oxCUjs2h0XW7o2HPzYjV+gMAiAAAiBgIIEzR11JV0//Mfn5Sf1nTVcio5KnKW7fyvtspN1jw0tQb299TPiV3YoHCoIgAAIgAAL2I3DFtLtp8tAF9jP8NIvVbJTGjM1p8Iz4uGzv81TdVGpEV+gDBEAABEDAhAQcDgfdsuAvcGpOjB2nV8hOmKhoJOvEHpuKhiJFsmYTknLOrqAql9Yf/tBsLKEvCIAACICAQQQiQmLox+c8RWkxIwzq0Rzd5GQuVqzoQYvus5HOseEAfM4lqG4sQSl+OiEIAiAAAjYikBE/ln645AniiLsofQlkx0/oe2GQT4ct6thIt8dmxf7XxfTY0UGGArdAAARAAATsSmD2sAvovAk3ik3CfnZFMKjdkaFxxEt0XV1dg8rxzcOVu5yhVKzGUqoZm7L6AlqZ96bbwYAACIAACICA/QhcPf1HdP7Em+DUDDL0fuRH41KVRSFubmugktrDg7RmzlvSODbdYunp3W3/JM5jgQICIAACIAACPQQ4gvBdix+jCWnzei7hdRACk4eeOcjdvrcOVVgvno00js3mI5+JrKO5fYnjEwiAAAiAgK0JcCThnyx9iuIjhtiagxrjmZnScrhil1JR08hJscemsbWWPtvznGmgQVEQAAEQAAH9CZwx/BI6Z/wNWHpSiTo8OJoC/YOovbPNbU3OxdjV3Ul8VNwqRYoZm092P03N7Q1WYQo7QAAEQAAEvCDgIAd9c86vaemEb8Gp8ZDj5HRlAQtbO5qpqOagh73IWc3njk1+5W7aXviVnHSgFQiAAAiAgKEEODP3j899ikYmTTW0X6t1Nn7IGYpNyrfYcpRPHRue/vpgx7+RNkHx4wdBEAABELAugZyMRXTXkscQn0aDIR4SPVxxK1bbZ+PTPTbrD39EpXVHFMOHIAiAAAiAgPUI8NLT12beQ2NTZ1nPOB9ZFBoUQXyarLWjya0GBVV7xYnkTvJ3WGOfjc9mbHjD8Je5L7kFDgEQAAEQAAHrEuDEjbz0BKdG+zGemnGWokY56fSxWuvss/GZY8NJLlva3XuSikYFQiAAAiAAAqYjMCv7fLpTxKdBagR9hk6Ns2ilfTY+cWyOiR3YWwo+12ck0SoIgAAIgIDUBAIcAfTtM35LF0y6WRwz9smfIan5aKVcavQwxU3xQR6rFMP32HSLrcIf7XzKmZ/CKhBhBwiAAAiAgDIC6bGjnUe5QwLDlFWAlMcEQgLDle+zqcy1TDwbw13l3UVr6IjYqIQCAiAAAiBgLwI8Q3PTmQ8QnBrjxn1K+kJFnfEm42KL5I0y1LHp6GpHhGFFjxiEQAAEQMA6BHiD8A/PfpJ4Tw0naUQxjoCafTYchdgKxVDHZv2hD6i6qdQK3GADCIAACICAAgJnjb7GmcAyJixRgTREtCagZp+NVRwbw/bYNLXV01f7X9d6zNAeCIAACICAhAQ4gvANc++juPBUCbWzj0oczyYoIIT4SLe7cqRyrzNgrtln1QybsVkhnJqW9kZ3XHEfBEAABEDA5ATOHvdNunvJ43BqJBnHSUPnK9Kkqa2OyusLFcnKLGSIY1PTVE4bRJRhFBAAARAAAesSSInOoh8v/Q/NH3m5SF5pyJ8X68LU0LKxqbMVt1YgZm3MXgxZivoi90XijcMoIAACIAAC1iPgcDjoipy7aULaPGwOlnB41eSNyhcbiKdnLZXQCuUq6e7YlNUV0I6jK5RrBEkQAAEQAAHTEGBn5tIp33fu4zCN0jZTNCw4itj57Orqcms5540ye9HdsflczNZ0dbuHaXaQ0B8EQAAE7EQgOjSBrpv1C+LlJxS5CfBm4DEps2nPsTVuFeWtI7XNFcTja9ai6yJoUc0Byi3eYFY20BsEQAAEQOA0ApyJ+5Ipt4m4NE/AqTmNjcwfJwyZo1i9gqpcxbIyCuo6Y/PF3hedR8dkNBw6gQAIgAAIqCMwJf0sunDSd7HspA6bFNJDY0cp1oM3EE8US4xmLbo5NoVV+yivbKtZuUBvEAABEACBEwR4uemaGffg+LaJn4io0HjF2mPGxgWqL/e97OIOLoMACIAACJiBAAd3+9r0n9CwxElmUBc6DkLA4edPabEjqKj6wCBSx2+V1uVTa0ezSKAZ6lZWRgFdZmx4tuZA2TYZ7YVOIAACIAACbgjwCZoLJ95COZlLyIF4NG5omef2pKFnKnJs+MDP0er9NDxxsnmM66WpLo7N8v2v9uoCb0EABEAABMxCgIPrLRx9NQX6B5tFZeipkEBW/HiFkkQ8QQHH5gSuYzUHKa90i2J4EAQBEAABEPA9Af42f8HEmyg0KNL3ykADXQjEhw9R3G6hiU9GaT5jwzmhUEAABEAABMxBYETSFHF8+/umjltiDtK+15KTYYYEhivK21golqK6u7tFagw/3yuuUgNNHZvy+qO0t2S9ShUgDgIgAAIgYDQBPv57ec6dlBCRZnTX6M+HBPgY98b8T9xqwEmrKxqOUmJkultZ2QQ0dWxWHXjL6eHJZiT0AQEQAAEQOE6Aj25fPvUuBNez6QMxMilHkWPDeHifja0dm7rmSuSEsul/FJgNAiAgPwH+A3VFzl00JGa4/MpCQ90IpMYMU9x2YfU+58k4xRUkEdRsxmbtofeps6tDErOgBgiAAAiAABNIjsygS3PuoLSYEQACAhQZEquYQmHVfsWyMglq4ti0djTR5iOfymQXdAEBEAABWxPgJadLp9yOGRpbPwX9jedAfezsltYX9L952pXyhkKx0bhJbDgOO+2O3B81cWw2H1nmNF5uU6EdCIAACFifQHrsaLp4yq2UHJVpfWNhoUcExqedQaW57h0bPhVVVJNnung2Xjs2HKFw/aEPPYKLSiAAAiAAAtoQ4E2h50+8keIjlMcq0aZntGI2AtkJExSrfLTaho7NvpINVN1UqhgSBEEABEAABLQjMCNrqYgU/DVVeye06x0tmZFAQsRQxWpzagWzFa9nbNYd+sBsNkNfEAABEDA1gQBHEJ09/ps0LWMJcdA1FBBQQyBMRXTpIjFjY7bilWNTWneEDlfsMpvN0BcEQAAETEkgMTJNLDfdTNkJE5Gc0pQjKIfSHE04I34sFVTudatQQ2sN1TSVUUxYkltZWQS8cmw25n8six3QAwRAAAQsS2B61tk0f8QVFBuebFkbYZixBMamzFTk2LBWvM/GFo5Na0czbS/8ytiRQG8gAAIgYBMC0aEJtHT8DTRG/AEK8A+yidUw0ygCGXFjFXdVVHOAJoiTVGYpHs/Y7Di6gti5QQEBEAABENCGgIMcNF1sBp474iKKC0/VplG0AgIDEFBzes5s+2w8dmw25SMg3wDPCi6BAAiAgGoCnOZg8djraJjYO+Pv8PjXsup+UcG+BEKDIhQbf6z2IHFoF4efQ3EdXwp69D+Ip6WKaw/5Um/0DQIgAAKmJhAWFEWLxlzjnOLn9yggYCQBP/IjzvCu5Dh3W0eLM9N3kohYbIbikWOzGbM1Zhhb6AgCICAZgQAxGzN72EViuekcsdSUIpl2UMduBEanzFDk2DCXouoDZFnHhj23nUWr7Db+sBcEQAAEPCLA+2amZCyiWcPOpxSR5sDPJNP5HhmLSqYikBE3RrG+x8RKzVTxHJuhqJ6x2X1sNTYNm2FkoSMIgIDPCDgcDhE872yalnk2cTJKTjyIAgKyEUiISFOsUlHNQcWyvhZU7dhsOfK5r3VG/yAAAiAgHQHeJzNn+EU0Ychc5zITZmakGyIodBqB8GDle7tK6/Kps6tTbG6X30lX5dhUNhZTQVXuaWjwEQRAAATsSWB40mSakXkuZSWMI2wAtuczYGareSYxJixRRBYud2tGe2cbldcXOmcg3Qr7WECVY7Ot4AvqFv9QQAAEQMCOBGLDkmlW9vk0MnmqM4s2lpjs+BRYy2YOAKk05yMf++alVdmLYsemu7ubth9FpGHZBxT6gQAIaEcgMiTWuU9mVPJ0So7KoED/YO0aR0sgIAGBzLhxyh0bsc8mJ2OxBFoProJixya/cpei6arBu8NdEAABEJCXAGfKnp55Do1Pm0vJkZnInC3vUEEzjQgkR2cqbqnYJBuIFTs2yAuleOwhCAIgYBICvLQ0JX0hDU+aImJ0pFNIYLhJNIeaIKANgaiQeMUNldQdMUUEYkWOTUdXO+0pXqvYeAiCAAiAgEwEOJbM0PjRNCo5h9JjR4v9MWkUERyNY9gyDRJ08QkBnqXk8ARdXV1u+2/vbDVFBGJFjs2+ko3U0t7k1mgIgAAIgIAvCQQHhFF2wgTKjB8rNjlmU1xYCoWHxFCQMzu2ny9VQ98gIC0BzvSdX7FbkX4ltfnSRyBW5NjsPLpSkcEQAgEQAAG9CXAqAo6YmioSRyZGDHUeVw0Xsy/BAaGYgdEbPtq3JIHhiVMUOzacJ3LS0DOl5uDWseGZmv1lW6Q2AsqBAAhYg0CAI4hSxUxLavQwSopKp1jhxESHJlC4CH4XHBhGnGuJRPI+FBAAAe0IDI0dqbgxnrGRvbh1bHJLNlCHCMyDAgIgAAKeEuB1/PjwIU5HJTY0UbwmO38ig+MoTEQ/DRFLSIFiuQjRej0ljHog4DmB+PBUxZVL6g4rlvWVoFvHZlfRal/phn5BAAQkIhAaFEExoUnOGRSO7xIZEke8BBQeFE2hQeHOE0W8xyUoIFjMrIgf/0Dn0pADSR8lGkWoAgL9CYQHx/S/6OJKY2sd1bdUOf//uxDx+eVBHZvm9gY6WL7N50pCARAAAfUE+CRQaFAkRYjNs/zDDgg7InwtLDDC6Yjw8Wbem8IzKkH+Ic4AdOyQ+DvEjwi37hB5YXgWxQ/LP+oHADVAwCQEeLaUl3k7ujoUaczHvvmLjaxlUMeGT0N1KjRUVgOhFwiYmQD/sokWSzfRIp8Lx5uICuVZEnZSopy5idgxCRF7T9gx4ai4AeyQiDrHZ0mwF8XMYw/dQcBIAhnx4+hQ+Q5FXZYKx2Zk0lRFsr4QGtSx2X0MsWt8MSjo07oEOF5EbGgyJUSmUaw4ihwjnJbezgo7KsedlCAxWxKAmRLrPgqwDASkIpAlwiSocWykUv40ZVw6Nq0dzWIZavtp4vgIAiAwGAHee5IWM9KZKC5BBIGLCUsSU7axFCqWfthhQdLEwejhHgiAgK8IDBEnEZUWnrGRubh0bPJKN+M0lMwjB918SoBD8Y8QYfgzRCA4zinER5J5SQinenw6LOgcBEDAQwLxEcpPRlU0FInUCp3SflFz6djsLV7vIR5UAwHrEOBNdSOTcmhY4iQaIgLC8fIRnw7CSR/rjDEsAQEQIIoMjlWMgUPAVDWWEM9Ky1gGdGx4w3AegvLJOF7QSUcC7MSMSZlFI0U+IXZieBkpSGzIRQEBEAABqxMIFEvlakpZfaG5HJv8yt3IDaVmhCFrSgIcmn/y0IXOJaVEZ2bnMFPaAaVBAARAwFsCHNIhURxqKK8vUtRUWV0BjUudrUjWaKEBZ2xyizcYrQf6AwHdCXAcl5nZ59LolBkiiVu6CCAXpHuf6AAEQAAEzEIgO36SYsemXMzYyFoGdGz2lW6SVV/oBQKKCXCAujFDZlNOxiJKjxvtPJmkuDIEQQAEQMBmBNJihxPlKzO6vOGoMkEfSPVzbMrqC6imqcwHqqBLEPCeQJgIXDd72AU0fsgcihcb27DJ13umaAEEQMAeBBIihyo2tLLhGHV3d4uToPIFAu3n2OwvRSZvxSMLQSkI8NHreSMvExt/Z0gd5lsKWFACBEAABFwQ4LAVSku7OBnFkyCc0Fa20s+xyYNjI9sYQZ8BCPB/wIWjrxbOzExn/qMBRHAJBEAABEBABYGwwEgV0kS8HCW9Y8PRhguq9qoyDMIgYBQBPo49f9SVlJO+SKQhiDeqW/QDAiAAArYgwAcqeG9il/inpHCgvlHJ05SIGirTZ8bmcMUuJL00FD86U0JgeNJkWjzmOpGqYISU67lKbIAMCIAACJiBQFJ0BpXU5itSlffZyFj6ODYHy7bKqCN0siEBzmq9YPTXaEbWUpHFWt30qA1xwWQQAAEQ0IRAZtw4xY5NhRkcmwNIeqnJg4FGPCfAQfPOn3iTM2geEkZ6zhE1QQAEtCXQ3d1li1xwKdFZisFViqUoGcvJGZva5nKSdVpJRnDQSVsCHDTvnHHfFJEv07VtGK2BAAiAgJcEGlvrxCGFKC9bMUd1Nfmf6luqqa2zRaSeUZeOQW8SJx2bQ+U79O4L7YNAPwLzRlxGZ4y41Da/NPoBwAUQAAHpCVQ1Fdvmd5Sagxnd1E1VDSWkZpbHiME+5dhU7DSiP/QBAhTgCKKlE24QEYEXUyCSTOKJAAEQkJgA//Gubaqg9NjREmupnWoc5FRNqWosltexOVwOx0bNYEJWPYGQwHC6aPItIirwXBER2F99A6gBAiAAAgYTqBBJIRNVROQ1WD3NuwtS+WWzUjg2shXnjA0rVtdSJZtu0MciBDj55KVTv++Md+Dn57CIVTADBEDADgTWHnqXzh3/HTuY6rSRf0fzl9CW9kZFNlc3liiSM1LI6djki/g1KCCgNQF2aC7LuYNGJuUg/ozWcNEeCICA7gQ6uzpoe+FXdPHk23TvS6YOeNktr2yLIpWqpHVsKvcoMgBCIKCEQGhQBF025Q7ik04yJkhTYgNkQAAEQOCgCIEyJmWW7UCkxmQrd2yaSqXj45yxOQLHRrqBMaNCvCn4kim30qShZ9oi3oMZxwg6gwAIKCfw2e5nRRqXK5RXsIhkYoTyLN91zRUiY0En+Tvk2TcZUNdc6czQaZHxgBk+InC2iEEzd/jF4uE+edDOR5qgWxAAARDwngD/bSytL6ChsSO9b8xkLahJbNklAhdyHDwOripLCSioypVFF+hhQgKT0xfQBRO/KzabhZlQe6gMAiAAAgMTWHvofeeN6NDEgQUsfDUyOE6VdTVNZXI5NoVwbFQNIISPE+AIwdfO/BnFRwwBEhAAARCwFAHeNLz2wLvimHeaLWeheZ+kmsKOjUwloLB6n0z6QBfJCXByyityfkDj0uaQn/iHAgIgAAJWI7C/dBN1iX9T0hdZzTRF9qhNkVAtm2NTXHtYkaEQAgHeFHzJlNsQLRiPAgiAgKUJfLjzKad9wxMnW9pOV8Y5xEZgh/jHzp2SUiP22MhUAnjKDQUEBiPA05LfnP1rW26iG4wL7oEACFiPQFldgdgMW+E0zE4Rh08fyXixDFdeX3j65QE/1zZJ5tgMqCUugsAJAtMyl9CFk26x5TozHgIQAAH7Efhk9zNOo2PCEm09O50ana3csTnhCMrytOBsriwjIZkegf5BdP3c+ykzbqxkmkEdEAABENCHQGNr7cnAdNMyz9GnE5O0mqAiP1ZdSwV1d3dLE5AVjo1JHjIj1cyKH0/fmP1LCgoIMbJb9AUCIAACPiWwMu/Nk/2PTp5+8r0d38SFJSs2mwP0NbRWU2SIumPiijtQKQjHRiUwq4svGXcdzR95BU48WX2gYR8IgEAfAu2drbTm4Lsnr/FRbzuX6NAEVebXioCGcGxUIYOw3gT4GPe35/2eOPkZCgiAAAjYjcCmI5+dNHlIzHCxrzDw5Gc7vokIjlFldl1LpZCXI0ozZmxUDZ01hTnY3k3z/0ihgeqCMlmTBqwCARCwG4EusZTy2YlNw2z7rOzz7Iagn70hKv8ecAoKWQocG1lGwkd65GQsoYtF4kqHn8NHGqBbEAABEPAtgZ3HVlFHr9AnwxOn+FYhCXoPCghWpcXxGRtVVXQThmOjG1r5G7485y4RWXOh/IpCQxAAARDQiUC3SOL4/vYnT7Ye4AiiyFA5NsGeVMoHbwJULsXVt1T5QMuBu4RjMzAXS1/lo9y3nPkXSorKsLSdMA4EQAAE3BHILdlArR1NJ8WmZ52DwxOChp+Yxee9l71nsk5CGuBNfbM8jg3WHwYYICtfig9PpZ8s/S+cGisPMmwDARBQRIBna97e9lgf2cnpC/p8tvOH+HDlSY7rxXFvWQocG1lGwgA9RiZPo9sXPUwhgeEG9IYuQAAEQEBuAvtKNlFzW0MfJVOisvp8tvOHxKihis2vb5HHscFSlOJhM7fg3OEX09IJ38IUq7mHEdqDAAhoRIBna97a9kif1kanTEf6mF5E4sQMv9LS0t5I7Z1tIg1FkNIqusnBsdENrTwNXzT5ezQja6k8CkETEAABEPAxgb3F6/vN1szKvsDHWsnVfXRooiqFGltrKCYsSVUdPYTh2OhBVaI2bxD5noYnTpZII6gCAiAAAr4l0MWzNVsf7adERjxy4/WGEhUa3/uj2/cNcGzcMoKAFwQcDgfduuBvlByV6UUrqAoCIAAC1iOw4+hXfU5CsYUZcWMoyF9d7BbrkelrUXhQdN8Lbj41iCSiMhTM2MgwChrrwMkr71j0CKnN9aGxGmgOBEAABKQj0CkC8b277V/99Jo/8vJ+1+x+ISxIXTR6XoqSocCxkWEUNNQhVDyIdy56jMKDozRsFU2BAAiAgDUIrD34nojN0tbPmOyEif2u2f1CUECoKgSNmLFRxQvCCghEhsQ6Z2pwnFsBLIiAAAjYjkBbRwst2/N8P7uz4scTz3Sj9CUQ5K+OSWNbXd8GfPQJMzY+Aq91t1Eh8XTH4kcoWKWHrbUeaA8EQAAEZCXw6e5nqUv8O72cOerK0y/hsyDgLyIPqymYsVFDC7KDEmCn5s7Fj+Ibx6CUcBMEQMDOBOpELqMN+R8NiCArYfyA1+1+0eHwV4Wgqa1elbxewog8rBdZg9p1Lj+JmRpMoxoEHN2AAAiYksCbW/4xoN4T0uaKnEiBA96z+0U/EdLVIf4pLU2SLEUp11ipZZAzjEBYUJRzTw2WnwxDjo5AAARMSKCo5gAdKt8xoOZnjLhswOu4eJxAeIjyI9+YscFT4xWBniPd2CjsFUZUBgEQsDiB7u5uemXjnwe0krNXD4keNuA9XDxOQE304WYsReGx8ZQAB9+7/ayHcaTbU4CoBwIgYBsCO4pWUE1T+YD2zhOxa/z8sHAxIJwTFyOCYwa73ecenzrr7Orsc80XHzCivqDuZZ+3nPmgyMehLoeHl12iOgiAAAiYjkB7Z6tInfCwS72nZ57j8h5uHCcQoWIpqpu6iZNh+rrAsfH1CKjs/9pZ91JqdLbKWhAHARAAAfsR+GjXU9TV1f94N5OIF5mr1eZCsh9BIt7Lqaa0dMCxUcPL9rJnj7uexqTMtD0HAAABEAABdwSqGotpU/5nLsXOGX+Dy3u4cYpASED4qQ8K3mHGRgEkiBwnMDFtPs0fid37eB5AAARAwB0BXhJ5Yf0Dg4qNTM4Z9D5uHicQHBimCkVrR7MqeT2EsRSlB1WN20yMTKcrpt2tcatoDgRAAASsSWDn0ZVUXl/o0rgZWUsRu8Ylnb431IYTaYNj0xcgPvUnEOAIopvnP0AO7NzvDwdXQAAEQOA0Anwy582tAwfj6xGdh9g1PSjcvqrNF4UZG7dIIXDj/D8QYtXgOQABEAABZQTe3vaIyw3D3EJ8RBrFhicrawxSFBgQrIpCu3AsfV2wFOXrERik/yXjrqO0mBGDSOAWCIAACIBAD4Gj1Xm0q2hNz8cBX8+b8O0Br+PiwATUpptoE0fsfV3g2Ph6BFz0nxE3RmwWvsLFXVwGARAAARDoTaBLBIZ7ft3ve1/q954jDY9ImtLvOi64JuCvMo9We2eb68YMugPHxiDQaroJ9A+i6+fcJ9KP+ampBlkQAAEQsC2Bz/Y+T+6SMC4c8zWxX1FdxmrbAj1huL9wBtWUDszYqMFlH9lvnfFbZOu2z3DDUhAAAS8JVDYco9UH3nbbyoysc93KQKAvAX+HOkewo6u9bwM++IQZGx9AH6zLM4ZfQumxowcTwT0QAAEQAIETBLq7u+iZtfe75TFuyFwKDYxwKweBvgTUznB1dMKx6UvQ5p9iw5Lp7PHX25wCzAcBEAAB5QS+2v+6yySXvVs5WxzGQFFPQG2okU7M2KiHbOUa3573O8SrsfIAwzYQAAFNCVQ1ltAXuS+5bTM5KlPkhhriVg4C/Qn4kbqFnc5uZPfuT9GmV86beCPFhCJjt02HH2aDAAioJMBLUE+v+bWiWhdN/p4iOQj1J+Dnp+4QSxccm/4Q7XiFv03MHnaBHU2HzSAAAiDgEYEvcl9WtAQVERJD6XHYt+gRZGcllY6NOHbv66JujsnX2lq0/+vn/BpHuy06tjALBEBAewJlIg/UV/tfU9TwxZNuxe9XRaS0EeoSM2m+LnBsfDwC54oomJEhcT7WAt2DAAiAgDkIdHZ10P9W/UqRskEBITQqZboiWQhZhwAcGx+OJZ+CmjPsQh9qgK5BAARAwFwE3t/xBDW21SpS+oKJN+FAhiJS2gl1U7d2jXnYEhwbD8FpUe2bc35FfsjarQVKtAECIGADAvmVu2nzkWWKLOX0CZOGLlAkC6HBCPjeURlMu4HuwbEZiIoB12ZkLaUEkWUWBQRAAARAwD2BNpE1+tk1v3UveEJiqVjmV5sOQHHjNhKUYc+MWtxwbNQS00A+wBFE5034jgYtoQkQAAEQsAOBbnp+/e+po0tZgkWHw0HTMs+2AxjdbewmdZuBZchxCMdG98eifwdXTrubAkSiSxQQAAEQAAH3BDbmf0L5FbvdC56QOGfcDRSgMiu14sZtJtjdrW4pSm2kYj1wwrHRg+ogbcaL5aexQ2YPIoFbIAACIAACPQQ4uvB725/o+ej2lWdrZmaf51YOAsoIdKmMSyPDvlE4NsrGVjOpr8+4BzEVNKOJhkAABKxMgI92/2fVvapMXDr+25itUUVscOHO7o7BBU67qzZp5mnVNfkIx0YTjMoaGS3iKSRFZSgThhQIgAAI2JzAG1seooaWGsUU+CTUzKxzFctD0D2BTpUzNjJs2IZj435cNZO4ZMr3NWsLDYEACICAlQnsOLqCdhWtUWXi+RNvxkkoVcTcC3eozNYNx8Y9U8tIzMw6jyKCYyxjDwwBARAAAb0I1DSV0eubH1LVPEcZzslcrKoOhN0T6OhUdhKtpyUZNm1jxqZnNHR+PXv8N3TuAc2DAAiAgPkJ8AzBE1/do9qQS6fcLqIM+6uuhwqDE2jvbB1c4LS7cGxOA2LVjwtGXUXBAWFWNQ92gQAIgIBmBF7a8CfFKRN6Og0PiqbxQ+b0fMSrhgTaOltUtSZDKBPM2KgaMs+E54+83LOKqAUCIAACNiKw+sDblFe6WbXFV834EdLTqKamrEJbR7MywRNSgRLEaINjo2rI1AvzbA2v/aKAAAiAAAi4JnC0ej99svsZ1wIu7iRGptOwhAku7uKytwRa2ptUNREowd87ODaqhky98LyRl6qvhBogAAIgYCMCTW319N9Vv/DI4qun/0jU8/OoLiq5J9Dc1uBeqJdEkL/vv8jDsek1IFq/5ZNQ2FujNVW0BwIgYCUCHNn2yRX3iDxQ6gLBMYORSTmUHJVpJRzS2cJOp5oiwwoFHBs1I6ZSduGYq1XWgDgIgAAI2IvAK5v+Qpw2wZNyWc4dnlRDHRUEGtuUB0jkZoMDQlW0ro8oHBt9uDq/SSBujU5w0SwIgIAlCKzIe532Fq/3yJYzhl+C2GAekVNXqb6lWlUFODaqcJlLeOn4G8ylMLQFARAAAQMJHCzfTsv2vOBRj5w6YfHYaz2qi0rqCNQ2VaiqEBIYrkpeD2HM2OhANTo0ATmhdOCKJkEABKyhqgiuAABAAElEQVRBgCMLP7fmtx4bc+nUO0iGeCkeG2Ciio1ttaq0hWOjCpd5hM8V2WVRQAAEQAAE+hNoFXFRHl/+Q+oS/zwpMWGJNDFtvidVUUclge7ubpU1iODYqEZmjgqjU2eYQ1FoCQIgAAIGEujq5hNQP6WW9kaPe7125s9FMD4c7/YYoIqKPF5qSqB/MCGlghpiJpGdkbVUioE1CS6oCQIgYBMC3dRNL234PyqvL/TY4nGpsyklOsvj+qiojoDazN6hQRHqOtBJGntsNAZ7xohLNG4RzYEACICA+Ql8uusZ2leyyWNDHOSgS6fe7nF9VFRPQG0CzLCgSPWd6FADjo2GUCNDYikuPFXDFtEUCIAACJifwMb8T2j1wXe8MuT8STdJsX/DKyNMVrlVZTqFsKAoKSyEY6PhMCwZe52GraEpEAABEDA/AT7W/d72f3llCJ805WV+FGMJNLWrizocDsfG2AEyorexYv0XBQRAAARA4DgB3k/zzJr7vcbxjdm/RPZurymqb6CxRd1R7/DgGPWd6FADMzYaQU2PHY1pUo1YohkQAAHzE2horaZ/imPd3pYp6QuRD8pbiB7Wr2upVFUzIjhalbxewnBsNCK7YPRVGrWEZkAABEDA3ARaO5rokS/u9CixZW/LOcLwRZO/1/sS3htIoFoEUlRTZEkjBMdGzagNIpudMGGQu7gFAiAAAvYgwEeEH//yh9Tc1uC1wVfP+AlxbBQU3xCobDimquMIcYBGhgLHRoNRGJ40Gf/5NOCIJkAABMxNgAO6/XvFz6i6qdRrQzLix9KYlJlet4MGPCdQWndEVWU+GSxDgWOjwSjMFVlmUUAABEDAzgQ4/P5z635HxbWHNMFw7cyfadIOGvGcgFoHNTIkzvPONKwJx0YDmJnx4zRoBU2AAAiAgDkJcFTh1zY/SAfLtmtiwEWTbyFZYqJoYpAJG+ns6lCltcPPIc2YwbFRNXT9hYfEDKcgrAH3B4MrIAACtiHw/vYnaFfRGk3sTYxMp+mIWaMJS28aURt12N8RSOzcyFDk0EIGEh7qMHf4xR7WRDUQAAEQMD+BT3Y/QxxZWKtyw5z7yE/8Q/EtgeZ2dZu/edZOlgLHxsuRGJY4ycsWUB0EQAAEzElg+f7XaPWBtzVTfun4GygqNF6z9tCQ5wQaWmpUVZZltoaVhmOjauj6CocEhpMs5/b7aoZPIAACIKAvgTUH36Uv9r6oWSfxEWmEgxia4fS6IbUbh4P8Q7zuU6sG4Nh4QRK5S7yAh6ogAAKmJbDh8Ef08a7/aar/t+beL9ImYAlKU6heNFbRUKSqdnBgmCp5PYXh2HhBF7mhvICHqiAAAqYksKXgc3p/x5Oa6n7exO8QJ7pEkYeA2mP7YYGR0igPx8aLoUiOyvCiNqqCAAiAgLkIbCtcTm9vfVRTpZOjMmn2sAs1bRONeU+gsGq/qkZkiTrMSsOxUTV0p4Rjw5IRbfgUDrwDARCwOIHtR7+iN7f8Q3Mrb+AlKJyC0pyrNw12d3dRU1udqiZiJJpxg2OjauhOCU/NXHzqA96BAAiAgIUJsFPzxua/a27hFTl34QCG5lS9b7Cts1V1I3ERqarr6FUhQK+Grd7uiMQpVjcR9oEACIAAbRfLT2/oMFPDoTImpy8EYQkJNLWqm61hE5JEYEVZChwbD0ciMXKohzVRDQRAAATMQWCr2Cj8lsZ7atjyAEcQXTvzXnNAsKGWNc1lqq1OFVH4ZSlwbDwYiaCAEAoOCPWgJqqAAAiAgDkIcDTh97b/Sxdlr597H/HvURQ5CZTVF6pSjI/phwTIc9wbjo2q4TsuPC51jge1UAUEQAAEzEFg7aH36aOdT+miLMf/ykLiYF3YatVoUXWeqqYCxQycTAWOjQejMSo5x4NaqAICIAAC8hNYmfcmfbbnOV0UjQlLpAsm3axL22hUOwKHyneqaoyj8MtU4Nh4MBqp0cM8qIUqIAACICA3gWV7X6AV+1/XTckb5/1RZID21619NOw9AT7qXddSqaohmWLYsOJwbFQN33FhJGnzABqqgAAISEygmz4US0/rDn2gm46X59yJ6MK60dWu4daOZtWNxYYnq66jZwU4Nirp8m7+QP9glbUgDgIgAAJyEuimbnpry8PEUYX1KqNTZtCU9LP0ah7takigrlndbA13nRQpVxR+ODYqH4jsxIkqa0AcBEAABOQkwMsOL234E+WWbNBNwdCgCPrajJ/o1j4a1pZAef1R1Q0OjR2puo6eFeDYqKSbHT9eZQ2IgwAIgIB8BDq7OuiZNfdTfuVuXZW7ef7/ibg1gbr2gca1I3C0Wl2OKO45M26cdgpo0BIcG5UQU2OwcVglMoiDAAhIRqCjs42eWHEPldYd0VWziybfQgkRabr2gca1JbC/bIuqBh0Of+liEsGxUTWERJz8EgUEQAAEzEqgtaOJHvvybqppKtfVhNEp02lG1rm69oHGtSXQ3d1N5SqD84UEyHXUm4nAsVH5XIQHR6usAXEQAAEQkINAQ2sNPfrFXaozN6vVPjwoWuyruUdtNcj7mEBLR6NqDaIlyurdozwcmx4SCl+D/BEGXCEqiIEACEhEoLLhmJip+QF1dLXprtUtC/6MfTW6U9a+g5om9TmikiTMmwjHRsWzERUST5wTAwUEQAAEzETgSNVe+t/KX1KX+Kd3uWr6DykmLEnvbtC+DgSO1RxU3Wpa7CjVdfSuAMdGBeGM+LEqpCEKAiAAAr4nsOPoCnp980OGKJKTsYQmps03pC90oj2BvFJ1G4dZg5FJU7RXxMsW4dioAJgana1CGqIgAAIg4FsCX+a+Ql/ue9kQJRIj0+niKbca0hc60YfAfpWOjZ+fg+IlPPUGx0bF8xEfPkSFNERBAARAwDcEOPDeG1v+QTxbY0ThiOw3z39A5IFyGNEd+tCBAKdSULv/Srbklz1Y4Nj0kFDwihxRCiBBBARAwKcEOEbNf1f/ijwJtOap4jfN/yPJ+kfOU5vsVo83l6stsZLupYJjo2Ikw4OjVEhDFARAAASMJcDHuR9f/gNqaKkxrOMLJ32XhsQMN6w/dKQPgSNVe1Q3nBotZ8BaODYqhjIkIEyFNERBAARAwDgCRTUH6KmV94rlhA7DOuWNwjOzzzOsP3SkHwFPli2HJ07STyEvWoZjowIesnqrgAVREAABwwhsKfic3t76qGH9cUeJkWl0xbS7DO0TnelDoEvsySqqPqC68VHJ01XXMaICHBsVlB0O4FKBC6IgAAI6E+AQ+O/veII25n+ic099mw/0583Cfxabhf373sAnUxKoa65QrTd/0Q8KkDNgLf5SqxhO7PhXAQuiIAACuhJo62ylp1f/2tBNwj0GfW/BX8VmYSzN9/Aw+2tBVa5qE2IkTKXQYwQcmx4Sbl75OCMKCIAACMhAoLqxlP614sfU3NZguDpfn/lTsQw11PB+0aF+BLZ7EBZgSMwI/RTysmU4NgoBRoQg+aVCVBADARDQkcCeY+vo5Y1/0rEH100vHH01jU2d7VoAd0xHgGMeHSzdqlrvUSnTVNcxqkKAH/lRt/iHMjiBsCAc9R6cEO6CAAjoSYD/AH2067+07tAHenbjsu1xwqFZNOYal/dxw5wEasX+Gk9yiI1JniWtwQGx4SlU1VgsrYKyKBaMo96yDAX0AAHbEeCosP9d9Usqrj3kE9tTorPo6hk/EX0jCbBPBkDHTg9X7FTdenBAKAUGyLs9IyA9bhQcGwXDGhQQrEAKIiAAAiCgLQF2Zv4j4tO0i4jCvijhQdHiBNT/IV2CL+Ab0OfG/E9V95IgYX6o3kY40mNH9/6M9y4I+PthO5ILNLgMAiCgC4FuWnPwXfrn8h/5zKnhQxPfX/R3QgwvXQbY5412drV7dKouK2GCz3UfTIGAjLgxg93HvRMEHA4kd8PDAAIgYAwBzvf0woY/0sGy7cZ06KKXWxc+SBHBMS7u4rLZCZTVF3pkwuShCzyqZ1SlgKSoTOL9I60dTUb1iX5AAARAAARcECivP0r/WXWvT45y91bpW3N/I451p/e+hPcWI7D72BrVFjkc/sR7rmQuDg46lxGH5Sh3g9TZ1elOBPdBAARAwAsC3bT+8If0yBd3+NypuTznThomaR4gLwCj6mkE1h/66LQr7j/GhCa6F/KxhHPjSGb8OMorU3+O3ce6G9q9kYnlDDUMnYEACPicQLuIIvzC+j/SofIdPtdl8djraEr6WT7XAwroS6C+pdqjlRozbF854diM15egBVpv72ixgBUwAQRAQDYCx2oO0n9X/5LaJPgdMyv7fFow6krZEEEfHQgcKNviUauTJN9fw0Y5HZuhsSOdu975WwPKwASa240PXT6wJrgKAiBgBQKcwPLLfS/T8n2vSmHOhLR5dP6km6TQBUroT2DVgXdUd+Intq6MSJqiup7RFZyOjb/IWs3TSwfLfbsD32jj1fTX1FanRhyyIAACIOCSAP8++Z9IYFlad8SljJE3hidNpqum/VCE30MAPiO5+6ovPixU7sGJqOjQeF+prKrfk2eYsyU/l67KKh2EG9tqdWgVTYIACNiNwN7idfTnj74tjVMzNHYUfXP2r8jPD06NXZ7Fw+W7PDI1K94c21acMzZsYTbvgN/7gkfG2qFSV1eXM6cWvtHYYbRhIwhoT4Bj07y++SHaIxwbWUpyZAbdOO8PIqqwvywqQQ8DCKw68JZHveRkLPGontGVTjo2aTHDKSQwjFraEc/G1SBwEjo//AJwhQfXQQAEXBAoqjlAT6++z6NTKC6a9PpynMgTeMuCvxBvRUCxDwHepF5QlavaYHZ+sxJMNmPDSmcnTKS9xetVG2yXCnzkO8gf32zsMt6wEwS8JdDV3Umf7H6G1h58z9umNK0fHZpAt531dwrwlzeRoaYGo7GTBA5XerYMFS8cYbOUk3tsWOHhiZPNordP9MSRb59gR6cgYEoClY3H6G+f3iKdUxMZEkt3LHpYfElDYl9TPlheKr1i3+setTAyZZpH9XxRqc8c5Iikqb7QwTR9trQ3UnhwtGn0haIgAALGE+Al6xV5b9LnEu5Z5Ezddy56lIICQo0Hgx59ToBPQxVW7/NID45xZJbSx7HhNde48FSqaiw2i/6G6tnQWkPxEUMM7ROdgQAImIdAbXMFPb3mfqpsKJJOaXZq7lryGAWLvZQo9iSwv3SzR4YHC0c4NizZo7q+qNRnKYoVGIlZG5fjUNNc7vIeboAACNiXAAfbW3PgXfrrpzdL6dSEBUU5nZqQwHD7DhIspy9yX/GIQlrMCI/q+apSf8cmOcdXukjfL2fdRQEBEACB3gR4lubRL++gj3f/r/dlad7zTM3dSx4Xp17h1EgzKD5QhFccPJ1JnJqx2Acae95ln6UoboZPRgWKTWVIr9Af6jFxZBMFBEAABJgAz9KsPvA2fbrnWWmBRITEOPfUwKmRdogMU2xbwZce9cVpFCamz/eorq8q9XNsAsXxv2GJE2lfySZf6SRtv56c/ZfWGCgGAiDgMYHqxlJ6Zu39Yj9iicdt6F0xKiSe7lj8MAUHYE+N3qxlb79bhJddvt+znGR8zNsh/pmp9HNsWPnRydPh2AwwihzYiONSIErnAHBwCQRsQKBLnHhavu8VaRJXukIeE5ZIt58ljnQHhLgSwXUbESitPeJx9vhxQ+aajtSAjs2olOnkt93PmULAdBbprHBzGx/5jtK5FzQPAiAgG4GS2nx6bt1vqb6lWjbV+ugTH5FGty38q3NLQZ8b+GBbAivyXvPY9jnDL/S4rq8qDujY8BTmEJFigcOAo/QlUCtORsGx6csEn0DAygQ6utrpw53/pk35n0lvZkp0Fn33zD9TgCNQel2hoDEE2jpbaVfRGo86iwiOId58brYyoGPDRoxJnQXHZoDRLKnLdzp9A9zCJRAAAYsROFS+g17c8IDH0/hG4siIG0PfPuN3yP1kJHQT9LX32FqPtRyZbJ5ow72NdLkjaJxwbFD6E8iv8CzPRv+WcAUEQEBWAq0dzfTC+j+IYHv3mcKpGZmUQ98RWbqR0FLWJ8pXenXTJ3ue8bjzM0de5nFdX1Z0OWOTGJlOCWKttkLCCJq+BJZbstGX3aNvEAABXQl0086iVfTGlr9TV1eXrj1p1fjEtPl05bQfkJ+fn1ZNoh2LECirK6SGlhqPrAkJjBCR9tM8quvrSi4dG1ZsXOpskfPkDV/rKFX/nC+qo7MNWXGlGhUoAwLeE+DI4i+u/yPxJmGzlNnDLqDzJ94o1IVTY5YxM1LPz3Nf9Li7EUnmTYrtcimKaYw34TEvj0dRRUWONIoCAiBgDQKdXR306e5nRSbu75rKqVk09lrh1NwkBgFOjTWeRG2taGlvor3F6z1u9MyRV3pc19cVB52xSY0ZRrHhycTBqFBOEeDTYkiGeYoH3oGAWQlwUsBXNz1oin00vRlfMuX7NC1zSe9LeA8CfQhsObKsz2c1H0JEolQ+YWfWMuiMDRs1YcgZZrVNN733eOEF66YUGgYBEFBMoKqxmB5f/gN6ft3vTefUfGP2L+HUKB5pewpyINlle1/w2PgRJk+GPeiMDVOZkHYGrcx702NAVqy4v2SDMKtb/GAK2IrjC5usS6BVTM9/IGLSbCtcbjojHQ4H3XLmXyg1epjpdIfCxhLgmciOrjaPO10w+mqP68pQ0a1jw/+JeNmlsuGYDPpKoUOHWJNvbK1HoD4pRgNKgIB7AryPZu3B96ROWDmYFZzv6fZF/6Do0ITBxHAPBASBbnp/+5MekwgNiqTkyAyP68tQ0e1SFCs5MW2eDLpKpcOxWkRllmpAoAwIDECAM3DvFlFX//jhdaZ1ajjv04/OeRJOzQDji0v9CRRW76e6lsr+NxReGZsyU6GkvGKKHJtJQ8+U1wIfaba7aLWPeka3IAACSggcFsE0H/z0Rnpl01+oXYRoMGMZGjuK7lz8GIUEhptRfejsAwLvbvunV72eNeYar+rLUNntUhQryYH6OHfUsZqDMugshQ47jq6gS6beLnbZYJ+NFAMCJUDgBAH+PfXGloeovL7I1EwmiJnyq5yB9xR9/zS1rVBeGwKldUeIfzwtUaHxlpgZVOTYMCSetYFjc+px4X029S1VxAlDUUAABHxPoKy+kN7a+jAVVZt/mXih2Ly5aMzXfQ8VGpiKwDvbHvdK3ynpZ3lVX5bKqhwbDmLFx8hQjhM4XL6TJqcvBA4QAAEfEuC0L29ve4wKKvf6UAvtuub0CFj+146nXVoqqy+go2J/jaeFVx8WjLzK0+pS1VPs2HD68uEixHJe6RapDPClMusOfwDHxpcDgL5tTYAdGt5PkF+52xIc+Dj3zfP/RGkxIyxhD4wwlsBbWx/xqsPk6EwKDAjyqg1ZKit2bFhhnqaCY3Nq6HjKu72zlQL9g09dxDsQAAFdCfA3U3ZoCqpyde3HyMbDg6LptrMeosiQWCO7RV8WIVBce8jrJdh5I8yZyXugIVTl2IxNneXcnc+JIFGOE+D0Clnx44EDBEBAZwK8x4/3EPAvcSsVPphx47w/4AuSlQbVYFte3/x3r3oM8A+y1PKnKscmwBEojJ9PGw5/7BVEK1VmFnBsrDSisEUmAt0i2NgRsXeGHZpKsfRktTI5fQFdPvVO8vPDySerja1R9nBYg3Kxcd6bMjIpx5vq0tVV5diw9jkZS+DY9BrGXUWr6Mppd5PDz7/XVbwFARDwhkBXdxftK9lI7+34FzW01HjTlLR1zx73TZo/8nJp9YNi8hPoFv9PXtv8V68VPWf89V63IVMDqh0bnjblNAtWmw72ZlB4ipwDaaGAAAh4R6BDBNLbWvgFfbzrf6YNqqeEwDfn/Iqs9i1Zid2Q0ZbAjqKVXjv+nKYjPjxVW8V83Jpqx4b1nZ51Dr23/V8+Vl2e7tcd+kDM2sCxkWdEoInZCDS11dHqA+/Q6ry3qUv8s2rhCMK3LvgrxYYnW9VE2GUQgY6udnpn66Ne9zZ72AVetyFbAx45NrzP5pPdT1NbR4ts9vhEH45CfNnUO8jf4RFOn+iMTkFABgJ8ZJvjY+WWbJBBHV114Nnu75zxewoKCNG1HzRuDwJf7H1JZPDu8MpYf4c/zRlxsVdtyFjZo7/EnGl28tAFtDH/Exlt8olOR6r20rCEiT7pG52CgJkI8L6AQxU76f0d/7bkhuCBxmJm1nl0waSbsEl4IDi4pppAfUs1rTrwlup6p1fIFn+zHOKf1YpHjg1DmJF1LhybXk/D8txXaNg8ODa9kOAtCPQh0NrRTFsLvqDP9jxr6f0zfYwWH66ZcQ+NGzLn9Mv4DAIeE3htk/cbhrnzpeO/5bEOMlf02LFJic6izPhx4ijmHpntM0w3jn7K8X2Qhdcw5OjIJAQqG4/R8n2v0vbCr0yisTZqRoTE0Hfn/5liwhK1aRCtgIAgcFjMdmoRbZsTXiZHZVqSqceODdOYlX0+HJtejwXvtZmZfV6vK3gLAvYkwDnlDpRto492PkWVjcW2gzA6ZYaYqfmJ2HcXaDvbYbB+BDrFnpqXNvxJkw7mDL9Ik3ZkbMQrx2Zs6mxir6+uuVJG2wzXadneF5xLdH5+fob3jQ5BQAYCDa01Is7VR7Qi73Xq6rLu6abBWF8y5Taalnn2YCK4BwIeEfgi9yXnyoBHlXtVYocbjk0vIL3f8o5qnrX5bM9zvS/b9j0vRRVW76OMuDG2ZQDD7UeANwMfEXmbPt39jFfZhc1Ojpeebpr3AMWFp5jdFOgvIYGapjJamfemJpqNTZ1pyU3DPXC8mrHhRqZnnuNcP+dkkChEH4iTHrcu1GZjF3iCgMwEGltraXPBZ7Q89zVx7LRNZlV1121i2ny6POdOhHzQnbQ9O+DUIs+t+61GxvvReRNu1KgtOZvx2rEJDYqgqRmLnNPPcpporFYckbmy4RjFRwwxtmP0BgIGEOAvMJyb5st9L3udTdgAdXXvgo/KXjPrpzQmZabufaED+xLYlP+pyAelTa60ITHDLJ9F3mvHhh81XqvbmP8xdXd32/fJ62X5ezueoG/N/U2vK3gLAuYlwBsWC6v3i8jAb4n8TZvMa4jGmnNqmW/NvZ9CgyI1bhnNgcApAjwzqmWk/3MnfPtU4xZ9p4ljw3kmxqbMoj3F6yyKSZ1Zh8p3UFVjCdba1WGDtEQE+FQT50Bbe/B92iny0aD0JcB/HPgLnZ/4hwICehHgJajn1/9es+b5sE9W/HjN2pO1IU0cGzZu3sjL4Nj0GuW3tz3qDJ/e6xLegoDUBI47M4ecy8o7RMwZK+ds8nQgOCbNt8/4HcWGIdeTpwxRTzmBLUeWabrke9boa5R3bmJJzRwbzm6dnTDBuf5uYh6aqZ5fsZtKavOJAxmigICsBHiZifeF8RHtHYUr4MwMMlBnjrqSFo35Ojn8rBeCfhCzcctHBDh0wjvbHtes9+DAMBGGYIlm7cnckGaODRs5f+QVcGx6jfYrmx6kOxc/gunqXkzw1vcEOCvw0eo84cx8QLuK1vheIck1iAqJp2+d8RtKiEiTXFOoZxUCvF/1mdX3aWrO3OHWS3bpCpCmjs2IpCmUFjOCimoOuOrPVtcrRebifcUbaYyIGYACAr4k0NbRImLN7BF7Zt5zRgT2pS5m6vvMUVeIWZprMUtjpkGzgK4r8t6g0voCzSwJ8A+iBaOv0qw92RvS1LFhY3m69qUN/ye73Ybp99rmv9K95z9PAQitbhhzdHScQFNbndOJWX3gHedyE7goJ8B7aK6f82uEbVCODJIaESivL6TPRRR7Lcu0jCWWDsh3OivNHRuenUiOyqLSuvzT+7Ll5/bONmdE1vMn3mRL+2G0cQT4BAVHJ91bvJ7WHHiX6lqQ6sQT+ueMu57OGHEJ+WEvjSf4UMcLAp1imfipVb/0ooX+Vf0dAWSHI969LdfcseHjjwvFlNcrG//Sux9bv1936ANn6gkE7bP1Y6CL8bz5t0R8ieDM2RzEy+4RgL2BPCRmOF036+cieFmcN82gLgh4TOCNLX8nnmnVskxOX2i7iNiaOzY8IONS51BSVAaV1Wm3RqjlQPuirWfW3k8/WPIvfAv0BXyL9dnc1kBHKvfQ+vwP6WDZdotZZ7w5DoeDrsz5IU1Imys6R1wa40cAPTKBXUWrNN/M7xD5HC+cdLPtAOvi2HB267NGfw2zNr0ep5qmcvpq/+tiNuvqXlfxFgTcE+AkkxzwMbdkgzNgHpaY3DNTKjEhbR5dOuX7FBQQorQK5EBAcwK1zRX06ibtcwxOHrpQ7O8M0lxf2RvUxbFho8cNmeOM4cKxXFCOE+CU8xPFL1IsSeGJcEegtaPZmSl7a8EXtOvoKsSXcQdM5f3IkFix7PQL4uUnFBDwJQFeTn5yxT2aq8B7ay6a/F3N2zVDg37ivLxuCZ5ySzbSi+v/aAYOhunIv1B/dPa/iacIUUCgh4BzVqaphPaXbqb1hz50ztD03MOrtgTOm3gjzc4+H8vC2mJFax4SeGH9H3TJwTYja6lwbL7noVbmrqbbjA1jGZ0ynTgi8VGRQA/lOIH6lmp6d/vjdOnUO4DE5gR4r0xh9T7aImZlco+tw6yMzs8D/z66fOpdImllhM49oXkQUEZgRd7rujg1/iK8iJ1P4urq2PAJqSXjvkFPr/61slG2iRT/IRsrlupGJ0+3icUwkwnwUc6y+qOUK45jbzj8MTW21QKMAQQ4cvDXZ/3MGTzUgO7QBQgoInCwfDst26NtvJqejucMv9B2J6F6bOdXXZeiejp6Zs39xIOIcoqAQ4RL+vG5T1FEcMypi3hnKQK8ysubAg9V7KCN+R9rmszOUqB0Mob/j1005XuUk7EYy046MUaznhGobiylfyy7TZdZWt4I//MLXrBVQL7TR8EQx6a45hD966sfi/Bhum3nOd0uU3zmTMF3LX7c1p61KQZKhZIcg6JQLL1yXJk9Ig8TMmSrgKehaI6ItHq+2EuD004aQkVTmhBoaW+kBz+9iTjNiR6Fg/HZKS/UQAx1XYrq6TA1ZhhNGDqPdh5d2XMJr4IAHwF/VSTK/PrMn4GHSQnw6aWS2sO0+9ha4hNMrR1NJrXEGmqnxY6gq6f/mDglAgoIyEaAE9D+c/mPdHNqwoOjbO/U8Jgb4thwR0vGXkd7xQZJHliUUwQ4/P3qA2+LEO6XnrqId9ISaO9sFftkCml/yWbadOQT4s3gKL4nEB4UTV+b+RPKih/ve2WgAQgMQKBLxKP6r0iXUN1UOsBdbS5dNPlWbRoyeSuGOTb8DWpm9nm05uC7Jkemvfqf7H6GMuPHOU+Qad86WvSGADvilQ3HKK90C20+8hlVNhZ70xzqakyAowZfNOlWsY9mEfbRaMwWzWlHgLdhvLThAV1PCCdEpImo/7O1U9rELRmyx6aHT3N7g3PDVFNbfc8lvJ4gECCCKf3wnCfFZuJYMPEhAT65xM4Lb3bfkr+MSuuRFsSHwzFo1/NGXEZnjbmGAv3tF1l1UDC4KRmBbnpzy8O0rXC5rnrdtvAhZ1BcXTsxSeOGOjbMhBNCfrjzPybBY6yaYUFR9IOz/0nBAWHGdmzj3pyOTINwZCqEI3Pkc5GV/oiNaZjD9HFD5tLFk28h/v+CAgKyE/hgx79p/eEPdVVzeOJkumHu/br2YabGDXdsOrs66bEv76aKhqNm4mSYrtGhCXTHokdwmkMn4h2dbeLZOyZmZLY5A+OVi/0yKOYgkB47mq6YdjfFhaeYQ2FoaXsCvM2A91DqWRx+/vTTc59G4MlekA13bLhvDhv//Lrf91IDb3sTYOfm9kX/wMxNbygevucjlbzZ94BwZLaKGRk9N+55qCKquSGQGJlGV077IaVGD3MjidsgIA+BZXufpxX739BdIT7azUe8UU4R8Iljw90/t+53zg2Zp1TBu94EeJqdnRsE8OtNxf173sfFy0n7SjbRtoIvEd3XPTJpJXhm5vKcuygjboy0OkIxEBiIwGd7nqOVeW8OdEvTayGBEfTz85/TtE0rNOYzx6aioci5JMWZTVEGJsAbim8+88/im2r2wAI2v8qRfRtaa+hYzQHaW7yBdhatoHax1IRibgLx4al0Wc4dJxwaP3MbA+1tR+DjXf8z7PQvx0AbmzrLdozdGewzx4YV+3TPs7Qq7y13Otr+/uU5d9KU9LNsz4Gd4JrmMiqs2ieCPa6ig2XbENnXQk9FclQmXTLl+yLswUgLWQVT7EKAj3S/v/0JkT7lE0NM5qXZWxf+1ZC+zNaJTx0bjtr6yOe3U11Lldm4Ga4vOzaXTv0+8UYxuxR+PspF0sjDFTudRyWx0deaI5+dMJEumHQTJUVmWNNAWGV5Ajx7/Prmh8SssTHR9f38HPQjER6EE7yi9CfgU8eG1dlZtIpe2wSvs//Q9L/CuaVumvcARYVa72HuFlE568WyUnHtIRHVdxPtEOk3kJ6g/zNgpSvsrC8eey3xZnkUEDArga7uTudhmANiBtmoMiv7fPFl4GajujNdPz53bJjY02vuo0PlO0wHz1cK83T9tMzFonvz7j/g1ARVjSV0pHIP7Tq2mvIrdvsKJ/o1kADvGztrzLU0M2spBQciXpOB6NGVDgR4T9+/V/5U5IvL16H1gZsMDYqke897duCbuOokIIVjwxuJH//yB8gjpeKh5JMi1836uYhdEKmilm9EeZq2sY1nY/KdJ+E4GWpjW61vlEGvPiHAszIXTLyZRqVMs9Vyqk9go1NDCDS21tHjy+82PF8cB+LjgHworglI4diwep/vfZG+2v+aa01xpx8BB4k8OVNEnhwxe+Mn0ewNx45xzsZU7RFZr9dgNqbfyNnnAp/Y4OUm7J+xz5jbwVIOKfHEV/eIL+PGnsIcJvajfeuM39oBsVc2SuPY8JQeRySuQpJB1QPKAcyum/ULEZE1VXVdbyvw+jJv/i6uOUR5ZZtpV9Eaamlv9LZZ1DcxgaCAEOHMXEdTxR6akMBwE1sC1UGgP4EdR1f8f3vnAR5Hde3xo957tbpsWbZk2XKTK7YB2xDTi03oSYA0EkgBEggkIbwveS9f3nshD5JAIDwghPJoCWDTMTa2ce9VLpJluUiyeu/vnLFFjK22u7Mzd2b+VyyzOzP33nN+Z7179pZztIXC517x7hl/3wC6n6eg5N8XyuAElHFsRExJPPjcmocHlxhXByRQxOsWJAJlgF/QgPd4ckG2M7Z2NFEVp8MoqdqhLfzGTiVPiNqrruxuWpB/E6VF53Kmbeuu/7KXVaCNXgRkg8PS7U/T+tJ39WrSpXYuL/wOyWc8ytAElHJsRNzXNz9K246sGFpy3NEvAV9fX7pq4vepMG0ef7n49nvPcE/2TSkdqd3LAfDW0aHK7YgbM1x4DrlPErZemHcDTeT3mxXWeznELFBTZwKyQ/OZVT/Xdm3q3PSwmpMYT9+74NFh3YubeFsNL+zsVQmELMh67JO7qKWjQSWxLCdLRHAMfbXoJ8MOR9/V00n1rVUcxfegtsB39/G1JI4NCgj0R6AgdRbNHb2EkqIylVrf1Z+sOAcCnhA4ypHNn1n1oGlRzSV22b0XPU3hwdGeqOGouso5NkLfrDlMO1o+Iy6PlnACwTNjhfRwhvWG9hqq4F1KMv0n262b2ursqD500pFAXHgqLcy7mUYnTfLadKeO4qIpEPCIgEy9r9j3Kn2y9yWP2vG08sL8W2jO6Gs8bcZR9ZV0bMQCL6z9NWcB3+goY3hT2alZC0kSa+48ulrbseTNvtC2fQjIVNO83MU0MeN8TsgaYx/FoAkIDEJAkunKek8ZwTazxPOPibvnP26mCJbsW1nHpqG1mh5ffjfvsGmxJFgIDQJWJSBhBIqyv0LT+BEfkYapJqsaEnK7RaC4YhO9uP431NPT41Z9vSr58hrJHyNtgls4/d2qZUAlSRuwqOA2enMLvFUDcKMLEKD8lFk0O+cKSo3OQRA9vB8cR6CLQ468seUPWsgKFZRfkH8zckG5aQhlHRvRZ1LGfA7wthZTUm4aF9VAYCgCoxILaU7ONSRrsSROBgoIOJHAkZp99PznjyiTny4xMoPOy7naiabQRWdlp6L6tGtsq+XAfT/gXVKNfadwBAEQ8IBAVtw4mpN7DcnRWzGPPBAPVUHAMAKyG/StrX+mrUeWG9bnUB35cT61ey9+msICo4a6FdcHIKC8YyNyS1j+Vzb8bgAVcBoEQGAoAlnx47RfgFnxBRTopQCOQ8mA6yCgEoHS6l1aVm7VwlqcSnK8QCVUlpNF6amoPprjeO6/MP18Dtz3ad8pHEEABIYgMDppCs0adbkWywgjM0PAwmXHEJANKa9v/j3tO6HertusuHyakgmnxtM3oyUcG1FSMgMfrt5NdS2VnuqM+iBgSwKym2l8+hwt7LosAPbDmhlb2hlKuUdAYtFuOvwhvbPtSSUjqEsOqFtn/dI95VDrSwQsMRXVJ3FZzV4tAmQP5+xAAQEQIC0h3rSsRTQhbS4lRqZjNxPeFCDQDwGJHvzy+t9ydPWT/VxV49TXZ/2KRiZMUEMYi0thmREb4ZwRO5bmjbmOlu992eLYIT4IuE8gjrO4z8q5ksYkTaXIkFhuCAkn3aeJmnYm0NBWQ29s/gMdqtqutJqTefoJTo1+JrKUYyNqz8tdomWWloVfKCDgFAKyXmZ69iLKjM2joIBQp6gNPUHALQLtvI7mg93P04bS992qb2SlqJAETlz8PSO7tH1flpqK6rOGRCX+06c/RqLMPiA42o6Av28gSRoMWTSfHJnF62Us9xvEdjaBQuoT6Oxup1X736Tl+15RX1iW0NfXj3604Ikv5fKzhOCKC2lJx0aYStjrv3M+KUlUhgICdiAgGdlnj7qK8kZMp+iwRKQysINRoYMhBCRq8NpDS+mj3S8ouTB4IAhXTbqLJmdcONBlnHeTgGV/Buby0Pzs0Vdp3rmbuqMaCJhOICV6FG/JvoJyEidqSUpNFwgCgICFCMgIzdpDy+hjizk0gnhMchGcGi+91yzr2AiPBXk3kYTClm3gKCBgFQL5I2ZwgslFlBY7BsHyrGI0yKkUAYlFs/rAP+iz4tctNULTBzE8KJpumH5/30scdSZg2amoPg6NvOr9z5/eQ03tdX2nLHOUuCOj+Jf6iOiRFBeWTNGhiRQeFENB/iHU2tmkbU2saT5BVY1H6ER9KR2vL6Gung7L6AdBTxHw5/UxU7MuponpF1ByVBa2ZOONAQJuEpDP+0/2vsTxaD5yswXzq0nW7rvmP86f+SPMF8amEljesRG7lJzcSc+teZh6eruVN5N8yRXxr/VJ6Rdy3JEM/pLzdUnm2pYKbS553cGllvyl4pKyFr45NDCSt2RfTgUpsymGnVYfbMm2sDUhutkEKhvK6N1dz9DBym1mi+Jx/0iZ4DHCIRuwhWMjWq4+8E96f9ezQyps1g2yy+XKSXfS+NTzdPnFLsnbdh5dRct2/JXaOpvNUgv9nkEglh0Yycg7JnkqRQRLfBkUEAABdwnID9X9lVto2fanSX7Q2aHkp8yk64t+YgdVlNbBNo6N7I56deN/a1/2qhEv4mmIRQW3kb9foO6iSRTmbZyZ9u1tT/A0VZfu7aPBwQmkxeSyM3MVZSeMp5CA8MFvxlUQAIEhCciygg0l79Nn+1+z1WdaVEg83XPRU0Pqjxs8J2Abx0ZQdHS30VMrH6CKhlLPyejQQkhgOH191iM0Iipbh9YGb0Iy1EoG9P2Vmwe/EVc9JiAjMtOzL6WMuDws/vWYJhoAAaJu/lEmSwo+2vMCHas7aDskkrftnoV/ofDgaNvppqJCtnJsBHBtcwU9ufI+Dt7XaCrv7PjxdMuMh7wySjOYYh/veZFWFL862C245iIBWeQ9IX2utgA4lbdnI7mkiwBxOwj0Q0BG2asay2kdx5/ZVPqhjdcM+mjfBaOTJvdDAae8QcB2jo1Akrwgz3/+iGmLiQvT59E1k39g2oJR+dWzkrdBorhPoG8n06SM+ZQUmenyIm/3e0ZNELA3gbqWStpavoJjkL1BMtJs93Le6Kvpovxb7a6mUvrZ0rERwutKltHS7cbPZ8o0xY3Tf2aaU9P37vrn1j9aektknx5GHgN4DdRMDpZXmDaP4sNTyccHySWN5I++7EugrqVKW//42YE3qLWjyb6KnqWZJG6+Y86/n3UWL71NwNIB+gaDMz37EpItgkYmQZMtvtcX/dR0p0a4XFF4J1U1HaWy6j2DYXL8teCAMJrNi39lt1pMWJIStnO8UQDA8gR6e3uppvk4bS//jD4/9LYjd26GBUXSbbN/bXlbWlEB247YiDG6e7rpb2sfMSxl/fcueFSbtlDljdDJ+VP+84PbHfULaTjswwKjaM7oayg/dSZFc2ZdFBAAAc8JdHMICgkiuqXsE358bKsdTa7SCfALorsufIyDruLzxVV2etxva8dGAEkE36dW3k8nefTCm2Va1iK6rPBb3uzCrbYrGg7TH5f/0K26dqokCSbn5i7WEkxGBsfZSTXoAgKmEZCt2SUnd2jbs0urd5kmh0odi1Nz3dR7tXhWKsnlJFls79iIMWVI9C/s3LR0NHjFtrLQ9GeX/N3wHVDDVebdnc/Q5wffHu7ttrlP4kbMzb1Wc2YkVQUKCICAZwQkR9Px+kO05/ha2syjMk5Y/OsKMVmXJ07NuJRZrlTDvToTcIRjI8zKavbSs2t+SZLeXu9y9aTvk+yeUbVIlOLfLL3ZEXmmZOh37ujFNHbENM67hZgRqr4nIZcVCPRqYTMkT92+io20lQOBOmnhrzsWkt1PsgsKxVwCjnFsBPPOo6vp1U3/RbKwTa8iqRIeuuxFXdIk6CVTf+3Ir6t/bHm8v0uWPyfOzLzcJTQ2eRqFBUVZXh8oAAJmEJAfQPW8e6m8tpj2nNhAxSfWO3qdjKs2kCS310y+29VquN8LBGy7K6o/VgWps6mutYo+2PVcf5fdOrdw3M3KOzWimGxhfmvLn2wTBEummTRnBiMzbr1vUcnZBCTSb2NbLZ1oKOHNFTto17HV2mtnU3Ff+6y4cXTlxDvdbwA1dSXgKMdGyElen4bWk1qGbD1IipduheLH64Cmj7rU0mttZNGvrJmRRHKYZrLCuw4yqkCgs7udGtqqqaK+TFvou+f4Ou21CrLZQYa48BS6ftpPOSK5475OlTWfIy2xqOB2/oddQ7uPfe6RYVI4vL6VEh9OyVhgOcdGtmbPHbOYCngxHjJme/R2RWVbE+jlhbztJLuUqnmzxPH6g3T45B4t/1JXj/7rCm2N0gXlJFbNLTN+TqGBES7Uwq3eJuBIx0ZWri+e8iN6vr2BPNmiOIuj1FqpyC8LK5Qg/1Bta/aEtDkkU04oIAACxClieth5aaXmjnpeC3NSC2EhU0lHqvdRRWMZEBlMQLZ13zT9QYoNSza4Z3Q3FAFHOjYCxZ+zrd44/QF6ZvVDJKv+3SmZcfnuVDOtjgyVynSODEurWGRab3bOlZQYmYEIwCoaCDJ5jYAkhOzu7qS2rhYtLEVDaw3VtpzgJJFH+fOphI7xCAy2VnsNv8sN+/r4adu602JyXa6LCt4n4FjHRtBKOP1bZvyCnl71gJYV3FXcERaMjZIRl6flbHFVV2/dnxCRSgvzbqWcpEmas6l3Pz293dov3V7+tSu74eQof9pRnsv1ntNH7d5uLWK1LK6Ua31H2THS3d1F3b185Gtd/CXUy+1Ipm8//pATp9HXx5+PfuQrjy/OcW5wPu/rI0e5dvrIr31On5MRRLnO/z99Tp7zH5/j/51+/q8jn+Q/Kfx/7b9Tr/Rmh/Y8IyDvsS5+r8gaFxlpaelo5NGWBmrm6aI6XudX11xJNS3HqaqhXBuF8aw31DaKgPzru3LidxGAzyjgbvTjaMdGeElE2q/NfJie/uwBbX56uAxlukS+wKxWVEghwF/tNGPUZZxw8nKXp5rEOenuFceiQ/t129bRrH0pyA6PevmyaKmg6ib+smh05peFBIsMDgynsIBICuF5f3He+x4h/Fzet/5+ASQJP/3lweEKxCk79VwcM3HUTjlofc6avM/FedOcry+O4qDxR7w4X/xBr/1p/pX1nSwZPdEcX07Jojmx7NRKepLO7jZq52zU7Tyq0s6B6iSqeQsndJTAn83t9dqjsb2GGltrOd5Lo212IFrtM87b8i7Mv0XpuGXe1t8K7TvesREjyRzp12b9kp5Z9XPtw2o4hhsRlT2c25S7RxI9mlVkvYws3JYM6PKleWaRL5Me/nUrw+2tneys8BeFOCq1LZXsqBzjNQSl2q4OLIQ8k9q5z2WEoKmtTnuce9W4M+Jg+Z12mmQUSxwoX3GgZCSLHSvNefKTe06NdJ26X5wnvkfOac5UgHbsG/0S58qHz4sT1cNOx5kjan0ja5If7tSomjglndo92mgbc5E6fc+Fk7zf5P2k1eHn3fxczqOAwEAEJPgeAvANREed81/+dlFHLsMlSYrMoptnPETPff7wsOayw4OtGQjOjG3SOYkTtZgzwlh+9Ur+qjp2WCqbyulE3SE6UrsPMTQMf8d7t0NxEOAkeJcxWjeWQFHWxSSjNSjqE4Bjc4aN0mPH0I3THqAX1v16yNQL8svSiuXskRJv6yBrSiQB6V9XPejtrtA+CIAACHiFwIS0uXTZhG9ro4Ve6QCN6kpAJshRziAwMmGCttpdhr8HK1bNmSJD9kYWWZhbx2HaUUAABEDAigQkIKikSpBF/ijWIADHph87jU0u0la9y1z+QEVGIaxYmtprrSg2ZAYBEAABwwlI/rklU37Ma78G/6FruGDocFACcGwGwCPZuheNv32Aq8SLWisGvKbyBQmrjgICIAACIDA4gdykqXRd0b3nbHQYvBauqkAAjs0gVpgx8lK6aNzXBrxD4lNYrRRXbrSayJAXBEAABAwlkJs0hfM//cQrsbUMVcShncGxGcLwkjTz4gGcG9mObKUi21+x3sVKFoOsIAACRhOQcBSS1FKi06NYkwAcm2HYbTY7N5dO+OY5K+IPVm0bRm11bqlowDSUOtaAJCAAAqoRyBsxna4vglOjml1clQeOzTCJTc++hK7mlfFnLiJbfeAfw6ytxm2bDn+ohiCQAgRAAAQUI1CQOpt3xN6HNTWK2cUdceDYuEBtYvr5WuJMyeoqRaZ1GttqXGjBvFtlm/emUjg25lkAPYMACKhKQBLwLubdTxIlG8X6BODYuGhDWVT2jdn/RmFBpyIPrytZ5mIL5ty+78RG5K4xBz16BQEQUJjA9OxFdPWku3g0Hl+HCpvJJdFgSZdwnbo5LWY0fWvubykhIp1WFb+pZe91oxnDqkjiyLe3PWFYf+gIBEAABKxAYG7uYl4/+S0E37OCsVyQEY6NC7DOvDUmNIm+Oec/aGRiIa0++NaZl5R7vuf4Wi0DtnKCQSAQAAEQMIGABF+9eNzXaUHeTSb0ji69TQCOjQeEgwNCOXHmg1TPCR1bOho8aMl7VSWb8eubH/VeB2gZBEAABCxEQDaAXDXp+zQ750oLSQ1RXSEAx8YVWv3cK/9Irph4Jx2o3Eq9/KdaeW/H//JUWYdqYkEeEAABEDCcgGz8uIFj1EzKuNDwvtGhcQR8eP2Fet/Gxumva0+yQyoiOFbXNj1p7FjdQXpixb2eNIG6IAACIGALAqGBEbyr9WeUETvWFvpAiYEJwLEZmI1bV2R0JMAv0K26elbq6Gqj371/O7V3tejZLNoCARAAAcsRiA5NpFtn/oLiw1MtJzsEdp0ApqJcZzZoDXFqmtrrBr3H2xe72Ll6cuW9cGq8DRrtgwAIKE8gJXqUtosVTo3yptJNQIzY6Ibyyw01ttVSeHD0OWkYvnyX/q9aOxp5+uk+y2Yf158IWgQBEHAqAS1D99R7KNA/2KkIHKk3HBsvmr2ts4WC/EMMi5FQWr2bnl/zK+rqwWJhL5oVTYMACFiAgATeWzT+DgTes4Ct9BYRjo3eRM9qr6e3mxp4UXF0SMJZV/R7KVNP72x/kjaXfaJfo2gJBEAABCxIQCIIS4yamaMut6D0EFkPAnBs9KA4RBvi3Kza/yZlx4+n9NhcvttniBrDuywb2nYdW01vbH4MozTDQ4a7QAAEbExARsgl59OY5Kk21hKqDUUAjs1QhHS8vrL4NVpf+q72ayJ/xEy3s8i2djTRzmOr6OM9LykbGFBHbGgKBEAABIYkEB2aQDfxdu6kyKwh78UN9iYAx8Zg++46toZHWP6HenkUJy1mDGXEjaVk/ocYF55CkcFxFBwQ9oXDIyMynbxepq2ziZrb6+lIzT7aUPIeVTSWGSw1ugMBEAABdQlIbJobpt3/RXJidSWFZEYQgGNjBOWz+pDAeS+u+4229uasS9pLX19f8iV/TC/1BwfnQAAEQOAMApMz5tNlhd8mf9+AM87iqZMJwLExyfqyHfzlDb/VRmFMEgHdggAIgIBlCUg6m68UfINmjLzUsjpAcO8QgGPjHa7DalUSVC7d/hRtOvzhsO7HTSAAAiAAAkShgZF0XdG9NJI3ZKCAwNkE4NicTcSE1xtL36dlO/7KU0+dJvSOLkEABEDAOgRGRI3UEllKmgQUEOiPAByb/qiYcK68tphe2fA7qm89aULv6BIEQAAE1CdQmH4+XVH4XSXy8alPy7kSwrFRyPYtHQ302qZH6UDlFoWkgiggAAIgYC4BP19/bT3N9OxLzBUEvVuCABwbxcwkW7xX7n+Nlu99mXp6exSTDuKAAAiAgLEEIoNjeT3NfSRbulFAYDgE4NgMh5IJ95Sc3MmjN7+nRk7HgAICIAACTiSQHV9ASziJZXhQtBPVh85uEoBj4yY4I6o1tzfQm1seo+KKjUZ0hz5AAARAQAkCPpx25rzRV9P8vBs5iaWfEjJBCOsQgGOjuK16qZfWHlpKH+56HrumFLcVxAMBEPCcQGhgBF096W7ke/IcpWNbgGNjEdOfqC/VpqYqkU7BIhaDmCAAAq4SyIzL5ySWP6KokHhXq+J+EPiCABybL1Co/6Szu4M+3P03WscjODKSgwICIAACdiAg003zxiyheblLeOrJ1w4qQQcTCcCxMRG+u10frNqmrb1paK12twnUAwEQAAElCMSEJdG1k3+IXU9KWMMeQsCxsagdWznjt6Rj2F6+0qIaQGwQAAGnE5iSuYDj09xGQf4hTkcB/XUkAMdGR5hmNLXn+Fp6a9sT1Nxeb0b36BMEQAAEXCYQERzDEYTvxAJhl8mhwnAIwLEZDiXF75GIxe/w6M3Oo6sUlxTigQAIOJ1AYfo8uqTgDgoJDHc6CujvJQJwbLwE1oxmZfTmne1/4aB+tWZ0jz5BAARAYEACkSFxdPmE72CUZkBCuKAXATg2epFUpB1Ze/P+zmdpS9kn2DmliE0gBgg4mYCPjw9NzbyIFubfSsEBoU5GAd0NIgDHxiDQRncjO6fe2vZnqm2uMLpr9AcCIAACGoGEiHQtG3dmXB6IgIBhBODYGIba+I46u9tp+b5XaM2BtzihZrfxAqBHEAABRxII8AvUYtLMzrmKJDM3CggYSQCOjZG0TepLoha/zaM3R2qLTZIA3YIACDiFwJjkqXTJ+DsoJjTJKSpDT8UIwLFRzCDeEqe3t5c2Hv6APtr9Ask6HBQQAAEQ0JOABNpbVHA7jU0u0rNZtAUCLhOAY+MyMmtXkHg37+96lrYdWYHFxdY2JaQHASUIBPgF0ZzR12jZuP19A5SQCUI4mwAcG4fa/3D1bm1reEXDYYcSgNogAAKeEPAhHypInU0XjbuVk1YmeNIU6oKArgTg2OiK01qNyYLidSXv0vK9L1FbZ4u1hIe0IAACphFIjc6hReNvR34n0yyAjgcjAMdmMDoOudbUXqetvUHsG4cYHGqCgJsEZGRmQf5NNCFtLo/X+LjZCqqBgHcJwLHxLl9LtV7Ou6aW7Xiaymv3W0puCAsCIOBdAhJYb87ok3FBoQAACOVJREFUa2nGyMtItnKjgIDKBODYqGwdE2ST3VPby1fQh3teoIbWahMkQJcgAAKqEJAYNNOyvkLzxiyh0MBIVcSCHCAwKAE4NoPice5FCe635uDbtGr/G9Te1epcENAcBBxIQNIgyHTThWNvQDwaB9rf6irDsbG6Bb0sf3N7A60ofpU2lL5H3T1dXu4NzYMACJhNYGzyNJqfdyMlRWaaLQr6BwG3CMCxcQub8yrVtVTSp/v+j7YeWc7pGXqcBwAag4DNCYxMmMAOzU2UHpNrc02hnt0JwLGxu4V11q+66ZiWf2rn0VVwcHRmi+ZAwAwCmXH52pRTdnyBGd2jTxDQnQAcG92ROqPBk01HtREcODjOsDe0tB+BjNixdMHY62lUQqH9lINGjiYAx8bR5vdc+erm4/RZ8eu0rfxTXoODDOKeE0ULIOBdAuLQnD/mq5STONG7HaF1EDCJABwbk8Dbrdv61ipac+At2nT4I+robrObetAHBCxPICtuHDs015GspUEBATsTgGNjZ+uaoFtLRyOt5zQN60qWkuyoQgEBEDCXQE7iJJqXu5hkLQ0KCDiBABwbJ1jZBB07uzs4g/hyLRaOrMdBAQEQMI6AxKHJS55Oc3KvJcnrhAICTiIAx8ZJ1jZBV4lkvL9yM33Owf4OVW2nXv5DAQEQ8A4BSXcwMf0CmjXqCooLT/FOJ2gVBBQnAMdGcQPZSbzKhjKeolrGIzkrsA7HToaFLqYTiAiOpWnZi6go6yKkPjDdGhDAbAJwbMy2gAP7b+1sIskkvr7kParhXVUoIAAC7hGQHU7TR15K+SNmkp+vn3uNoBYI2IwAHBubGdRK6sg01cGqrbSe0zUUn9iIgH9WMh5kNY1AkH+IlsepiJNTJkdlmSYHOgYBVQnAsVHVMg6Tq771JG3mreKbyj5CVnGH2R7qDo+ALAKekrmQxqfNIXFuUEAABPonAMemfy44axIByUO1v2KTFg+nmI89vQj6Z5Ip0K0CBEICw6kwbR5NzpjPozPZCkgEEUBAfQJwbNS3kWMlbGyroS28ZXxL2cdU3YS1OI59IzhMcV8fP44KPIkmZVxAY5KLyN83wGEEoC4IeEYAjo1n/FDbAAKyRfxw9W7aWracdh5bTR1diGxsAHZ0YTCBlKiRVJh+vjbVFB4UbXDv6A4E7EMAjo19bOkITcSpEedG1uOU1ex1hM5Q0r4EYsKSaELqXG0xcEJEmn0VhWYgYCABODYGwkZX+hKQiMYSE2db+Qqqa6nUt3G0BgJeIhDJMWfGpc6m8annUWrMaPLhPxQQAAH9CMCx0Y8lWjKJgExVldcU065ja7SH7LBCAQGVCMjU0riUmZpDkxmbT5LyAAUEQMA7BODYeIcrWjWJgDg5x+oO0p7j62jv8fVU2VhmkiTo1ukEZJpJ8jXljZhBEkgPzozT3xHQ3ygCcGyMIo1+TCFQ21xBxZWbSLaOl5zcSV2cnBMFBLxBwNfHl9JicrWdTLlJUykpMsMb3aBNEACBIQjAsRkCEC7bh4BkHJfdVRLt+EDlNqpsOMzjO0jKaR8LG6+J5GjKSZxIo3l79siEQs7TFGG8EOgRBEDgSwTg2HwJB144iUBTex2V8ijOoZM7qKRqB1Ujb5WTzO+WrhLxNytuHDsxEzRHJjEyHYt/3SKJSiDgPQJwbLzHFi1bjEBDWzUdPrmbSnlUR0Z2qhqPYETHYjbUW9xA/2BeH5NH2fEFlMWPlKhRSDapN2S0BwI6E4BjozNQNGcfAi0djXSkZh/Hy9mjHcvr9mONjn3M268mMpUkjkxmXL72GMFB85A1u19UOAkCyhKAY6OsaSCYagS6e7rpREMJldcWn3J0avdTbfMJjOqoZqhhyiPxY+LCU7QdS+m8a0l2LsVHpGJqaZj8cBsIqEoAjo2qloFcliAgozpH6w7QUXZy+o6ydgdFPQJhQVEkGbLTOCheajQ/YnJ4sW+keoJCIhAAAY8IwLHxCB8qg8C5BGStjsTSOV53SDseqz9IjW21596IM14hIEkjEyLSte3WSZGZfMykRN56HRkc55X+0CgIgIBaBODYqGUPSGNTAs3tDVTVdIQXJJdri5IreWGyPJcM5iiuE5BppIiQWIoPS+HppFSK5ymleD7K1FJ0aCJJTBkUEAABZxKAY+NMu0NrRQi0d7Vqea4k11UtP04dK/hYpT1v7WxSRFLjxQjwC6aYsESKCU2iWH5IJF953ncM8AsyXij0CAIgoDwBODbKmwgCOpmAOD4yqtPQWqMdtec81SVTWzLlVc8OUIPFRn38fPxI1ruEcf6kiOAYkjxK4doxil/HaiMu0SEJFBoUiYW8Tn7zQ3cQcJMAHBs3waEaCKhCoLuniySqcmd3+1mPs8/1ve47nr6/i489p8/Jc62dDuricz48pSNrVvx8/U8fA/jor7324/PaNT++7sPX+dh3byAHsgsJCONHOAXzIyTwX8+DAkLgsKjy5oEcIGBDAnBsbGhUqAQCIAACIAACTiWAFXZOtTz0BgEQAAEQAAEbEoBjY0OjQiUQAAEQAAEQcCoBODZOtTz0BgEQAAEQAAEbEoBjY0OjQiUQAAEQAAEQcCoBODZOtTz0BgEQAAEQAAEbEoBjY0OjQiUQAAEQAAEQcCoBODZOtTz0BgEQAAEQAAEbEoBjY0OjQiUQAAEQAAEQcCoBODZOtTz0BgEQAAEQAAEbEoBjY0OjQiUQAAEQAAEQcCoBODZOtTz0BgEQAAEQAAEbEoBjY0OjQiUQAAEQAAEQcCoBODZOtTz0BgEQAAEQAAEbEoBjY0OjQiUQAAEQAAEQcCoBODZOtTz0BgEQAAEQAAEbEoBjY0OjQiUQAAEQAAEQcCoBODZOtTz0BgEQAAEQAAEbEoBjY0OjQiUQAAEQAAEQcCoBODZOtTz0BgEQAAEQAAEbEoBjY0OjQiUQAAEQAAEQcCoBODZOtTz0BgEQAAEQAAEbEoBjY0OjQiUQAAEQAAEQcCoBODZOtTz0BgEQAAEQAAEbEoBjY0OjQiUQAAEQAAEQcCqB/wfYiZvF4CDubAAAAABJRU5ErkJggg==;" vertex="1" parent="1">
          <mxGeometry x="650" y="1100" width="36.09" height="38" as="geometry" />
        </mxCell>
      </root>
    </mxGraphModel>
  </diagram>
</mxfile>
